<mxfile host="app.diagrams.net" agent="Mozilla/5.0 (Windows NT 10.0; Win64; x64) AppleWebKit/537.36 (KHTML, like Gecko) Chrome/127.0.0.0 Safari/537.36" version="24.7.7">
  <diagram name="Page-1" id="9YF6RCa0AiLYWpFC1ut_">
    <mxGraphModel dx="989" dy="513" grid="1" gridSize="10" guides="1" tooltips="1" connect="1" arrows="1" fold="1" page="1" pageScale="1" pageWidth="827" pageHeight="1169" math="0" shadow="0">
      <root>
        <mxCell id="0" />
        <mxCell id="1" parent="0" />
        <mxCell id="tH_dNCv8WW0gVUp8uDPe-13" style="edgeStyle=orthogonalEdgeStyle;rounded=0;orthogonalLoop=1;jettySize=auto;html=1;endArrow=none;endFill=0;dashed=1;dashPattern=8 8;" parent="1" source="tH_dNCv8WW0gVUp8uDPe-7" edge="1">
          <mxGeometry relative="1" as="geometry">
            <mxPoint x="690" y="840" as="targetPoint" />
          </mxGeometry>
        </mxCell>
        <mxCell id="tH_dNCv8WW0gVUp8uDPe-7" value="" style="shape=image;verticalLabelPosition=bottom;labelBackgroundColor=default;verticalAlign=top;imageAspect=0;image=data:image/png,iVBORw0KGgoAAAANSUhEUgAABCwAAAPQCAMAAADKOxpOAAAAQlBMVEVHcEyGzasQnVkTn1sAAwEAAAACCQYAAAAAAAAABAIXoV4co2Hz8vMipWWL0K8XkFeKz64Ul1gYhFMAlEhOt4OX17iNEK25AAAACnRSTlMApf//aBk/ipObmeIObQAAIABJREFUeNrs3dtu3MYSBdAkAvzQjQ5kHOr/f/VYlkbTl2qSQ3LswFjLjhM7j0E2Nqtvf/0FAAAAAAAAAAAAAAAAAAAAAAAAAAAAAAAAAAAAAAAAAAAAAAAAAAAAAAAAAAAAAAAAAAAAAAAAAAAAAAAAAAAAAAAAAAAAAAAAAAAAAAAAAAAAAAAAAAAAAAAAAAAAAAAAAAAAAAAAAAAAAAAAAAAAAAAAAAAAAAAAAAAAAAAAAAAAAAAA/EG+/b38cf72nxUExR5v0gKu9IcmxQ///ist4ClRUd5/nJK3pPrHDy/9z+5H75/9/vfPm7SAy6Pix//oKZdny7k0P66R+h+f3sNCWsCVUXFhGnQ/u3AoQ1ZshUfaFRZdYuSP0vIzLKQFnHd1UnyExecv91/n6ZH7fPj897df8r70uCVE/Qfvvv8MC2kBJ327PipukfBRIm5Vov7Z94ycV5tFCZvF8NkxNIsfSZHTy2dYSAt4RlYsl3SL2z/krWbRBUT5qhd1tUjVXweahbSA0+OKaVIst1+WI1mRv5pF/R1y++3a1GL8MEmTL5E0hkjfLb6ahbSAS7JiuaRQdN8hk2YxTDTHmUVbLUpQIoaoGJrFZ7W4h4W0gBNZsV4rzk44u/FmPcy450Q4syjb88yt1ZD3rMjpnyospAUcnleUZ/SKNi6anAjmm+OSR8lttbhlQWozIvU/N5uFtICTWXH5gDPXQ87cf4hE3yDDWmpZXQ1Ju5pFrldDrKDCQe24YpIUy8H0qFZN+xHn7mYx22WRomqxs1lICzieFZctl06aRVssPv4aqkXzR+3Q4v1fRTUiRb8fd3y/dGEhLeAxf39mxTIrEMu5FMmlbRa5To1oKaQ0xaIExaIPiLpW7GwWdn7D+WLxvP3eXasIP0TqwUUbEWUys2hHnWl7ZqFbwIliscTlYrkgLXL3IdIMOWebstqI2DpTlprMWG8Wb9ICDhaLPf/LL+ebRW73V0w+Q+pvkBI3izRfDUkPzSykBRyYWHSpsFw078z11s1HmkXp5hbxru/U7Pd+ZGYhLeBQsVj2pMJycOm02b7ZziyCldMyNIv11ZD+OFma7uCsm4W9nPBwsZiveSwX7clq4qI5tJ5LdCI9PiNSJiOLVIdEmjWLNG0W0gIOTSyWpyyH5G5kkZs94N3MorSRUZqtWfGx9DQMO6O79W7NwpoIPO7b8qRd3v1tFuM5shyOLL6mFuMWzp9/W1k5TdWpkYeahbSAvV8hy9r5seWCXjHcqNcMMaJTpv2HSXCzRW7Ok6XtU6cv07CQFrD5FbKWDsvZ2WbpNmRVey5yuIUzuIgzOKiexmxIDzYLXyJwPCyWZ23gzO3HSG4yY7bdO2gW/QbOtHpz1nAJZ98snBOBMyOLZfPem+XYnqyqSTSLIfF8Mz56Or/4f+s+i+YOzjdfInBwZPHEEWeub+wtzWGy2Rn1plrUfzQ9GpJ33pS1MrOQFrDjK2TZt2FzOTfh7M6aTjdwNtWiRN3iPQq+l1Tvx0pfp0NSeAdnf7u3tIBz883r11HbM2TjzXqTq2+aDRfNewD7m8VQLLaahbSA3WHR5cNy1T6L9ur/ebMYzqaXnPc8rTwMLMa79ppmYQUVzoTF8oxFkVy61ZDc58f0Ur12Z9YjM4sUvs8+PRsiLWDbJB+WHf/88KMhuduU9fFY4Y4zp2Xt+ePqLotuMSQ9PLOQFrARFnvSYClnN2SNr5HFR0PC02RtsUgPN4s9qyHSAnaExfKs0yG5Cow83sEZfIZsFYs0HEzvikXULNL2PosPr9ICZmGxPOsM2XCMbLzde/pyYfwxsu/VkF0zC2kBhz9DlmfUivpN5Dy8jFxysMmiT414s8XWekjfLPqbst6kBZyZWUyeGVouaBY5eJAs72wW98RI8etC4b98fJ+FtID1sNj3AvJysFmM083Zi2RRbJSgY3yGwffSr4fcZ5nBzCLvWg2RFrDRLJ5x5nT6wul2s5gUi/0vnUbXe79sbsqSFrD7M+TawUWuXw3ZfEU9PKy+PbGo7/aOF0PWm8WbtICTYXFVsxh2WOSVyyyiHZzNpXopPAYS3HAxbxa+ROCSsFgueN+0uzSvH1nMTpHNq0W74eJrXJGGuEibzeLNlwgcCovlVzSLvD3eHL4zyvhPaWXjdxoeHuoWQx5pFtICVprFcn1WVBst+mnFnmZRqu1Y0wPqadzWOVkMSY+EhbSAMCyWODDOPlxYlYsctYudI4tJsUjxU4ZpMrJ4rFlIC/jFA84cPgUQnDmN3yZrq0UfGKk5HdLdldU0i9yshthvAVeFxXJlVOzqFcE+i2F8EZ82TTu2WaR7szC3gKvC4sJzIeN7p6tbsuKlkNI/ipymL4ZMt1nkx2cW0gKGsFie0i5y6Y6RDV8h81uycvuIyPpayK4zpwdmFtIC4mbxlPv0ynD3/9p0M3xuKLdRkrrF0smJ0zQUi3ygWUgLmH2GLJcumwbH0vNk+2Z0fV73B+XCZvEmLeCaAefVcZG3dm8OzaIqFdOLOONqsdUs3tbPhUgL+JVhkYO/7zifHur2b6byfW2AES+GzPZZvO6IDGkB97B4yubN3D+X3i6FbA4toqs408oNWWn60umwzyKMDGkBv71Z9DfrRS+GzKpFCXdZzDd2Tk+GHFoNkRbw1LDI7cyiRBdZxAun4wPJud9lMY4s6i0W8f7No/sspAU8NSzay3njE6ezj5DhPu+vIElbL5GljZFF1Szst4D/Sli0R8m2NllUA4oy/xqJdnynul/k+f7N2WqItIDfGBb1QHNyMGRl6bTehVX/3HqGrNrwHeyyyKdmFtICnjmxGJ4kq8vF5FhInq+gjlfqtbss2i0V/ZHTwzs4pQU8LSxydINFv4Nzei6kmmyWyfPpaf2hofg1stPNQlogLJ63xWL8KrkNPCd7NevpRdnc1N0/cbo5sjjXLKQFwuKJxaK7Um9zvDn2i7VXToPT6muLIbdm8SYt4D8QFjm4ySJ3S6h535HT6gmA5n2Q98u9m7hIeWVk8bXNIp9uFtICYXH9TXrBPb25rBxPX7mDs6xtqxhnnUOzSGtnQx6tGdICYXH5UdNqxlk3i8kNWZNqUebbN3O/w6LNiOFq78nM4lW3gN8QFjnc4V3WN2+W8DLvUq2JxCsgqbu2N90v9u6qxW095OX0Z4i0QFhcvMNi+OTYdTh9uNm7OxeSqrfI+nnF/fdds7htybo3izdpAb85LPqzY/FTyPHh9C4lojcLp1di9Q+INM2iWjm9pFlIC4TFRYumORxnzptFO8ss4316k1Nk7cppfwFn6jZwpiv2WdxJC4TFdS+QjTfpTQ6ndwfI2uQo27dtpuEtsrZZ3IpF7prFmXMir9ICYXHBN8i4saKKi7y6blrGq3qbicUYFKmvGl2zqEcWbbN4PRMW0gJhcbJX5PFwevMhEmRF2yyi0cVYJXLqvkHilw2/YuKjYLxc9RnyIyx8iSAszr4/lsPZ5r5l0zJcpTf/DmkiI33ekjUOLepicVsNeb0gLHQLhMW5DRa5XT/NG3felOEOi5L73d4lWvBIwQGRNG7ZqtdC8qRZvB3LCt0CYXF+tvk5nBgiY/PSm+5SvZK3akWTFymP1eI+spiuhrweDAvdAmFxeC9Wjk+ETO7zvl+H1W/J6t9Pn7SKbgU1pTyrFtfcZzGEhW6BsDg0r8jRomm7tyJeCplXi1m3GA+F3P6oaxZfs8185T6L11fdAmFxYi9Wf6v3sGy6thRSLYiU7mR6WZ1L3IMjeimgOXR6ebPQLRAWj0RF7uJi3izm11jE1aL/CpldodddZVFVi1SvnOarmsVrTVogLB66Fyt3h9KHWjFZNi1DtagXTrtzqN+H86bRxXpDs8jXnjrtwkK3QFg8cuFmEBhbrwrdF0m7alG6ZdPwAyQIh5Vi8bXtuw2LtyvCQrdAWOzeXNFt3cw7XkwfT6IHzxWu3tQ7FouwWdxXTYNm8XpNWOgWCIt9K6Z9s8jj9bzzhZBqW1a538/bfJSk8OnjFD6oPm8WF546fR1IC4TF9rNjw0tCOTyUvlYt4iqx47hpXi8W9WTzyvssxrDQLRAW+yabuTsekjcfIAvuwOku/o8DI8V3esfFIjVXWTyzWegWCIv1aUUe3ggJXxSatYqyUSVKjg+nh9sspmshv6JZ6BYIi+3XTHMQGeN3yMqRkC4+SncuJP2fvWtbUmPbYbtOv9nlTXfvzP//6gkwdC/b8loNIaQgcubCMOSNUcmyLEdZU3Lsf9dk8XTNYsZFtGARLKANq204nCIB8nqLJsRGBwoPVMdksd1Pf7bPogALcgsWwaJ3RciCymmYWgwSbypqYV3z5oBYiGcW0Wfx9WywILdgESyQVuHPgaQ19DA87fq8jwxApLif3iMWrcMCMIv5+WBBbsEiWKBd9EAo4pX0RDGKO8jAodVKFgJy/xFCSOXfDFvqqQ35eh5WkFuwCBZJq1CL2bwaAvTcomn3DvLYaCEHRAtssmjkzWoaMj8VLMgtWASL3IC4wWnwdYdkrEGcdxvFGXwW0p+VyshkMWYW/z4VLMgtWAQLVXBIyLyLwgVitYOQGHuDqYWBM6cbGFwXTuU4sdjTe589DemDBbkF628GC3UtR+vsDsE2bnTaG5qqv5Nuh24VdhWLQrDYYm/w1unzsYLcgvX3goUGQwWwckeYcAtlnTjv8gqyudV0GUKHVCaL1sJ5efi/F4AFuQXrLwOLJnq3bSv8lfSc9R+kCx3speejIdadoeKsm1qxUD89fQmzILdgfSpYBLt28G/HX2aowB/NMYBK3UyzkSRUKAq4AZvqhclij97c8OLXmcUBrCC3YH0ys9B2+plWPly8P7RVlJGblXXTSi/WNg4RfP7YTUJksG+6q5zfqPESsCC3YH0oWGg4DmQIJrzFu2QW/bSbFipql/c9eyGlqLFDRTM5fRWzILdgfTyzAKMOzCy0vgzSS9EzbPJWeDBE0inkPApBB07btZAQ7f0EZjEfLaIF66OZRfsojEst7plWMkWHVpiW+2OPUIsOsXA+rK0HCdOQr98KFuQWrI9lFjj4KjELBVn/ADG0E3djiEtEaoGmpmkUIvAMmfjbQloxi/m3ggW5BetTmYXCsG4NKNKfgAS7d7UQotUotVggK+yb0notILFwesX181c1izuwgtyC9ZnMwmpmoSFbsz8BKd0VLr4bihTjTfVCsdBiKyTE6j3DwTnfVUQL1meBhWYfdzJuJgdWdw7ST9y0lNMLLiELOAEglWIhZZJFe43siiD/vRIsyC1Yn8osNAT86/B4KQSNXgtikEakOG8ZRfMGw0UpWfgATnkxsyC3YH2cZpE1zdB46IBW9CP/LQ06Eq+w4aUQqZ8WoFjExZDb568xi3uxgtyC9WnMwt8RC9GaanH/oyNbaNdfgW4LhRV1AzAg8QyZOywENAsJkTe7iiHL/FKwILdgfRqz8BlXILTbSgNWsFdY31+hHjZwfIUcpBDwsqGLyNr8FbvA+eO1WEFuwfpAZmExnUI1rJtCSVP72RUNVASW4ZOxNmunhT/9xbKcuakVhdHCNSLqkGP58fVasCC3YH0OWLTXiUOmZrcDScxCe3pFyquA22O+5wAzUyhkSFYs2h31Vt/8E2BBtGB9ELOInYgmkVPrNZCNVfStWKZ5PSQZvG0gaQr4SJpFq1RomInIcvp6NVYQLVgfwyzg334M3M3CpntWtbZiJRJhxe6YldoEZhYCWEjThLTfbzRjknV+PVgQLVifI3CmKM3RnlgSK8rDY8iEFdbSR/NSAV6LVqtQeN/UO7N2o8XjfchMtGD97cyi2DE/8ptW1zy6OZbZhqW99COahQB9Axqxtrmp6CKLfb0eK4gWrE9iFog+dG0VyVpxfHMMzkJ6mbxQs5D2orqbhGi7cxpDcB7uQ2aiBeuvFzgL+tC1XzVQYRWzwIOPMu3GPFP43jUtmYWAyYk3V/j+40YtTo/2ITPRgsU2pCNK9JZM/ZTDqhRvg8fSLbQo/U1TRT4LScxiH5vmXL2bzHl6cB4yz0QLFtsQDA4jWqEhvKJzJd1qTtFAhtQ7IJlaCPJkuL10RC5+Mgt9kFrMRAsWmQUK2x1Jntf+IzALBddME5DkLRDT4mC6xpOmUaFImkVaOJV4mWyS00MS5zwTLVhkFlaqmeW+WDhxmgGhk83r8cIO5WzGfkQEuD196qY6x3dTy0PUYiZasAgWnRMgULYIUoV2PJtaZ+hpOAwgsRMR2IBA62ajWGg4b+oXUM+bZGfVYv5DYEG0YL0/szhswspShdWeTavsmnfFVQDMEIXMIkbpJVLxvXn6ALWYZ6IFi5qFjcO6QwRWl1loDLuBO2WtQxxhxWIuwSJ4OMXLFzDSG5wNuW6H/KQW93stZqIFi2AxtF/deg/1XKIaglgwalpBLLJgIcFdkYzevjXxzMLZK/wZABEfayHT/Y3ITLRgESwQswhuiths1O5u131YuChU3jaVugUR4OHMyyFezwxJensz8n065Kxa3DkRmWeiBYtgUXsqbn/p6WpQL+PGetSiMXvvrcihdM1wAgBoFvFIiMYFkQYxptN6n2wxEy1YrL0hiIbKLVYPpdlUtMIqaoGcFUfmpnFl/ebQRMzCe7A0eixuzyxnjfMutJhnogWLlf/sd5CoMjWtPy3F1MJi8r/lk6USkzVFQey/ZmbRHgfZx6RuHOJXUO9Di5lowWL9U54Ou+df5BSRWhREwurBqYzOh0RmEUVNlUA3Gq3zJ7WY7kGLeSZasFj/HGMOI6TAbkzTNEiNxELqvBuBSXqikFn4bKy8beoXRqb70GImWrBYGCzG+BBJhfm7IFal8h6RKnrUQsSlYwHrpqZ8rOTLOhOLy/x0tfnrD4EF0YL1jgLnAz1HSrdBMTYWDN3xVRZpxOaxkGD7TrwiMotILAJGBCDRRaZpOY9E1kPkYp6JFizWg8wCKBXZrBkT9Ky8ml5avwULFnEa4lUKlcA0ivoJGD/JxY8xuZiJFizWQ8wCROahPRCLMZsaLgpVIqa4OD1MLPz/TcTCMYu9d/k2WVxbkQu9uJKLrz+BFUQL1kczCy00TetcPDbAMKyzO5bujznbFWIWoNEoBAvdRIsLaEzLmVus69yFi5lowWLdyywcW/CrYMDSbQqaETwtvagVLaOQGPTteYW3YoTbIBImIfEWwHcTIhduIRe0WH/8W+LFPBMtWKwHNAtv0EyhV+hOOsILG2+nZ2LhMrK6zCKk6rn10yti6HIFjGmRC1qsZ/ECAsZMtGCx7mQW1dao4fYjhv07mVOklDAlZumJvz+WtsyywwJJFpus2TyazuRimb7RYl1PPy6I8coiWrDemllohRMOGdTHdMeVU3DDdIuzkN4xU2DW/G5CBDKL6N3UGJXVLJJp9FssF8BY1j9XfAey3phZFDDhxUpNi2eYgBjQQEfKZozylsQrWiFDQvamS66IzchNsbjkfF/np2eKsRAsWKwDYNHrOaIO4bVM64dVGD5YKJ3ovJyKpXkQ0jKLQBsCs8jOrBYvrl7O81BEhGDBYh0Ai+G9MMX7HxagwfLF4zQRMcFOCefHzBm9UrjB3YIpvEG2eyxaxWK6cYvp+rgRLggWLNZxsEix/gWzwNQi4YyXNoezj/xU4hVbsHfK6NXFH1L3qXoL3BO5Kp0nggWLdadmYfnGeaFZgB/xECQtme6w4DI3nctCosyZc7Rikp5sS2XRipVQYmpVjLOfczkRLFisLlhYdQUI2jb7P/YDLEzQH7zFY+kxS6+9l+4cnOqxQJPPQsOBsmlHBwceF9fF9Ge4Bd+BrHcWOPFeR2QdhqzckFmYuyMErqH7MUg6EiI49qJJysMn08e1NETjsoZ6IliwWMc1C8vDUIsDUzQ/7TQwFUagOYgg5xViFi68e5crgn+zkS4WBw/h0XI9EfByuOA7kPXGmoVCJ1YUNPzZoHjH1OLDjhEr4YLjGCJI+vTp/zdE8AfT0/7YiGFM5/NDp6bW0++GjhPBgvXGzAL6rOr5aZIqbHThePtpMQHHCFPkvwyZRRia+oNDCuBiyQ+v8Vly4Ran69f15LHjaJ3ZyekKBfFrCxNXLOI7kPVOAmdl9gYe7z1QE0RlWfBt7q4L6e2NCaIWbi0d5uuB1bFwj8wTi6VOwWlwQ2+UYggI31/A59r+3n91iHJ5ku9A1tsyi+yy6ikRKEwvv7jXgkh62DALkUqzCHMQaMlSSCySajE1c9RzJ7K3IPv3/DGCi3X74rjK7d/2NN+BrLfVLLS7PQYT/p1EkTFDDuTySkQUtywG7FpxeSwsioXHt00QQC+mfQX1++WJQDzUifSJxbo9zXcg612ZxZhYpO3zcIwMp3iHBP/FBFKLkJaX0zbj8bHgpIgRFloInEvM+r4BxvmfB4o104uTfxx4xdoSD8wsGrzgO5D1rprFEWJRWrotWzZHvELQifTNi9XIm2kQgsQKBREWeuMPS0+vmJqgCymFhkw4sAgKe5D9lWvzLN+BrDdlFgeIhTdaKbZlIcdmT9lEWmfLKSCzyPumsf9QODZdNBuymnsil+OGwx7j2G9jJ7Km/8x3IOtNNYuaWJRHCK08ZAoi/aVZBRGYYOGfkJwBHuzdumiGhfgTIhWXxbINKPZW5MYtfkGnWEvKcXLzEgqcrPdlFphYaLpCGAQLgzEWMloyLajFvmgaw7ybSchuxgqZegpibyYgVcCOZNoakjGRWA88DsCwplexDWG9q2ZRLZzbOOsijk2l020cCMcKaoUEXpE1TpTn3dsHWXYeMV2jvv0yapiS7sPQ1q21uhFr83htXV2rlz85OmV9hGZRZFtEocIfC0pPDGRNtznqF9D3Y0JhABIcFq1WcV0LyaBxE0KnTCrQhkhzTuR6KOD0kuI7kPUBAmc8TFrjiP95fDxICyOWBDBB7oucjbU/ozDPe+TdvF4QyYBBsGCxksCJ5QgQ+W/499Xx0iLv398Rkrx67vVNNw1xkw4/PoVmrMpd4dbHtu/TbreQR7nFeuj5lWDB+hSBE7muivkptHYn6vA9BpF4AD3eM22xYu9QJPAKTZ0IcmPpUNTcIUK86Vse4xZrgILWruWeILNgvTWz6PAEq3iF+y9ydAzSWRgRPATRYLNSLGRqWFHXyCn2TIubc3PR3Wlx83DecONxbuF2Vle8fbZyGsJ6W2ZhPeuVjn4peqDEGTfxoXTxVKO9PSbqd03VCRbqlM1vJ4W/E4JGIwvIzXqabrEOuhO+A1nvBBYwrCa1J11q0RMvFxj/D4iFOIt3Pm2aOUW2bR6O1Wt3TffeYxHHLB7gFj1753/bl+0bwYL1RmDRia0xtE+aqYXUrgrRKj2vfa2/U+jc3S4WKwbxbhNT14NoeYUMbY81RixxeyKT5xbGaQiLzKL2UuiRtkSOHER3dgqJ99H3vfMgU7TMwpu6mxcXC6aaYGJpNkNaxJjanyaneTpuYQQLFgXOnpUCY4d13FeC56XpklBULMLumIvNctqmhsQ8DZomMHAuhZFz2tqPvTlpmcXVndXAxFJ/HK9l/8Z3IOu9BE4rtIn/s3cFy3EkKzBiuEE4Joj9/3990nR3FSRQ3bLfpWyQLI1G0p5GuUmSJJI7Kn5JDQfrPF5wYHFyMz2mVwhgRFwDsbGbj7L/3dqYwsQU9Qz1f+Vq/t5/ABQeVvT6b/UrsGs7ZpF6Kn4txqn8CCgY9sMyE9bkFezDsYxvMx4+lixHz+VmaenfJCdpzufUjE7JcYuMGWjGFh7Vf92GdO2rWTwamf7KDpZy7t4O4d0ptRA4JGRNm+ZRzO/24iYavOWWXZDLwyFvyAJmQfzhATI+fH0pJzmYb8sORScrUc9R+hXYtVcbskCIX55z8L2iuRQrGCN62dCK2IYMvUL8mUI0crp1Uyk2x7SQMMgtkJHdVb8EjNh6vE/U0IEaa5ywUKEGPPoV2LWhwJlRi18m9YrLdmP9nSwiKz1QyEHdhJUxCdvpjNEVQC203h8zK2PIMNCDcXQig0kAvZApQ2A7ovbDgAs1QNNg0bWfwLn0a+YrH/zkh9ypoHhd7DwjBq2HZRZcXQWRIFuYJ7WYhGiVu3nqFQWzmGjh//iBbUwguFoTpB0eP5pZdG0GFim14DVlqBDiECr05lqhJRbseQQyC2hCpErWvD9RONiGkDsspFkrElxapBeNeNtH4tuRSSwU2o03aBetWXRtCBacMQK+VSEerIFw2PxIlM0oVjhyEYjEkDYlbU3krgcxk1PNjoeYd8ssiPTtJYuk7/Ck411NS7RNWV0bC5xP4q3K/fPke7z8bxphM4ESyy48ANhozhWx0Ny2qcGvafdEyD0EZvFdRrE4ycQpXogfi/gxyfHuHpsvGiy69gMLrh/8SNLM3JoVs+C4h+6pBSgUcI0QuxIMyClJhfoGwz/OmcU3WPDVOpxD1Kl4DqHCocbEDtepeFDpV2DXjswibzhY8lT/5TUQjhsh6Q8lWyDmQ9wH+WpBwrgUgyyWcTeabZ2quRmSUYsPs+DJLcwE9OIIU8nUMFNVRBL7uF+BXVuBBT9Jy3wkcXJu1syoBTOj98pfFfKnj09ThThrt6AfS1JrhSZpFaIjfxN6EWKchxxdyMktsN/wQgW4rxTFDad4tmbRtbtmwTeYkNCMY/zBgVpwadxilkTT9KlYcMc060NC+r/QDa8gM/uYG6gJVhhN40MsPp8+SsPn3/Hp0CsuhgEixfmD7/Pn3/P7139BtV+BXftqFrLAhIWiGc58mF2xVLkMZ8dAucB1EHewMOEX11d6m3ujsEoWxQpULU6F83BnfTTO6xMixVsTXbN6+P3Wr8CuTTWLm7SaJw3Jg59nDumaqF0gEEhySigeNsVDQhJuhBA+pHRoWjKLLzai1wRk/v1fioTjEvODwQ/3jQaLrv3Agp8LE4WVc61QgNUqth2wQQZQYW6a+vxNXCKTkldoyPJ2agYtRQu6JM5BqCq0AAAgAElEQVTvNzn/4t+mvXCI8U4Bw7OL8UyDRdfumgU/vBHk5x38BHY4RQnPLHAR/aIiHK4UAsug1UiEnGqhIcCiYBZElll8VE6jWpgBqoIfaz6FkxGjjfYrsGvXNuTRROQ4AsKwfc4VsbB3S5lTJoH2CvHBV5iel9g2iwBvDbZNRnZRY4UnFsZ3cVAHuVTKSRV+Xv0K7NoJLLi84sFrnsE5TtTgw1PIlHTFVJyMKX6HDLNu7GREFhF66lQKcjumtIKKSSwGXBz9yJxoRDXiyZv5tX4Fdu3LLPhes+B175LqFHDElFdYIf6MKVwBQAP4+Eh3uZtuCKKTjZRYQeyQgi+4EDP8NLTCzURXNUevDRZdO4IF36sT4jPvfsQshiFbsl10CK+IEqb7LmfZWUv3Jo0FU7sSousmBBSL7y32CzAOYDjXRDSXMRfMYqqg/Qrs+js1C14yDk7Cd4NHM5AJBx32eCncCGHmcHOMy6OmcGUsdibkz4SUzOKK5dSpYOgZnqUGHsbc1I061szi3W1I13ZgsYzb1V/+MFjWXCBIZCMQLroQvwvCcRrCY2yaXTPlkaKXbpAJEgw1VwDsmZACLWjAw7kewtcc9R09E+kbDEyQYPQrsGs7ZhH82Zzl9RcqJ2fZmtZYwRnZgLEpRvpbkwVG/TuvVkUnHI0gCMaCMyEVVlzvPFDjwgzR/0v1K7BrH7BgdzDQNg1y47KqQnM4GivydE1PLczf/4y5iasggndNxe2DqO1KtNQ3ydu0qsmpmYDQuVJ2PPgGIBQ3bSfyROh8N1h07cgsyuOk/MDayRBeIT4Wz1stkvAKycajNvc7HB8DEUMfJFioOwJgYjdvsEINs7hwgqyXU2E0YkzfCZrg1KRfgV07gQVjI8Jrk1VJLQLiMM+BaYUS4qnC+Kd+ST10ILBfVg5N03unjxxZPBUKq1vwnKWWOPGUWrRm0bVXG2KvevyUWaDa6QaqJrY7hGtCB2L+9O0VEbBYSLhXuJh4VIZNglPp5bs6TfOaiDjFEzLznNyp4bmwgNrMomtHgTNnElIsmCeh/o6cnEk1AR3yvfRsBCIcrh4LF71IcUtI/dDDBuhd5swlXFxIoVOzIGu1OLycLXB2/Utgwf7Exw8js7JBajEkTa6ORcs2Zt3kcTdSHRtbhFcY6+a8EsKwDGIVi7EZwsOQNZ+6NtYbLLr+GbDg7CIQGjRRqeDUVMEm3t/G4fiYTQzEsiMQcX5N4cTZLZxeJUtVCzVzEUJIoYAP7JqQKXASuQwcHTl7f4gWbcrq2rAN4R+tnnIe7D9c3dkFEIzEEpd5JbhTyj632wKGpRrEPytysXrZmqltQti9GRvncIFfzu9mFl3/BrNg0CodbcjcVLI4GSSSqhup7BFGIBwUzTTAe8CFSqJXaGhBfOiN3imb39oEWReWWu/mMHP+MbfoRbKuLQVO/lGmRTY0YZeWB6Hd2Y10Tm4ef6atKpB/5Z1YkuV4LwYhZLI2LYAsN8iGTOHJxGHXIH6RRYt3M4uuf0Wz4PoWULVvjj8GlorsHghk60FEnmCUXiJpwpM3B0LI5WOpxJzvEi7UrqYb1cIoF7MR+V1u0Q7Orj2ZxU+S9NLtcyQS9Z0xNwNxXcg8YyrZBYAY9R3YhfjzIGi/UnbcoVIsCFdNr69MbpYFDfnNmKw2ZXVtyCy4vAV0F8Cbcop0Z8yLFeJ9WCcmSDnpkMVBU3hCo12TPIYkgxCLHZcwwZM7jG1TyuqLW/B7vnUb0vVXM4uH+RV4Kii9QRijbRyIgEyJyTYgUISbY7JO0UueJrN8uuo/rs8618fYOrznogg0ItdW2VX8eXf/8EODRdfGmkXQG2QR6M/TTRGYhFQb6QLpNYKbHsISt0GYMTvLkQdZQAXZQyFWzFi9KxtHtzdwMpgs/nwm0q/Arr9Cs+A6zZ9Z6nHHQuQMEw17yTSmX0FQVmHFurbRRfM8b40YcrNrGp0VZn4akWLCBQNxuIoGo6AGi679NYvKvhl5QYUEi2Wx4MEKXk3xsf+YbJPxiiISS+0YhBhIBt0keivPnoPNanochQzQOJ5sZtH1r2gWSCWcl3uIBXHX1Hu7uQrCkujB8s5MWES335B8d0wXgie5c6Ze4LwlFoZQTFIBPu9E5eRBIzi8fb3T8Z3jUYNF17aaBaZZmKmoIRPX//3F53JydeEY3JrhDohlFCoC+2JFjoXeWrodTgzlUv10tNpLR6emn6Y6fwUSjaPVIGw/rs/jQ4NF144F84UwbDA0gzP+kA8/4lMY6n/OXNXYsCQG8UqeuxvmpBrcWNNUodn2WEkxiNyVEE8qFsRiLqF+CMS3rev7/Xp4fP68HVDx+n5/NVh0/T3MIromovNKinNB1qwZTBXTWBEtF35U6pXOJa3QqiVRSzkWzEIdSIApq2pD2HOLgQjjfXweeNHMomtTsECTxCq1v7oOFDsTYW/AclBhxh9iE/TY595IonQujFkyzN1XC6LQitC6CYnbpZDp7ZuQrFQRK2iQDdeBfLhFg0XXRmCRtA/5E+lX1e96VRN3QPyRQnEJesndsYkz/pCQLFJuDJJQyP5f9CAUVtBtpF7CKdwiKj+Yibx6GtK1LVhwelAwnWek5EKyAD0I15QgWQheIER8kHCIjCpGoW49jGG7dIxRiW4WThUtWGCwYKpMFp5b0PLtQIyDWDRYdO3JLKqVjkqrQMHCL5Yy7KCjYBlvHkuGHhMuVDLXpqYr6XAH4PrlJbPQK/VG2QRZWLP3LU586gMDswMhI2J8PlxA0QJn126aRXkkrNAsuQzpxgws5kS2FIzME7BshiUQuY37D3um5Ach9JNByDgCcJqyjKezEDY5ogUZUVPniGRoFieveDVYdG3WhqQ9RJ11lQVUOGMWbHtYZuHCblTW7UeVqpkChkJYRVgSubFYKMMRoXlV6H4Qwhm3uDjF6D4+n14XtWhm0bWtZsGLyH+uxqMJq7C0IKbkCXAGcdNSyLq5DOB3PqwxAaH0XIhynbVpiAUT4oSRMLlwY3HRiQxe4camrgVpZtG1WRsSBQdOMynqzDzDKjh0EfYa4QANlfIeuixyu3V5cozsVMQLnGVyhVk1JbsoZtZDsg6E7nWLV2a4oNmBnHjRr8CurQTOhFNEr4WsR6kup0JwsXR8qXAJeRGtaX7tSYY3wV0hNxsJXIKyVVPnsTD7pj9sQqZugSqnZxavZhZdGzKLyn1V26/CL+H90WitSAL10tBuyNFbzUnPIYeir5tCkl4kF24jZPqvDKOYg5E8w6KycbpOxC2EULBc9CuwazeBMy6oc23ozhfX8QhhEu4PlwqDPgHth7hMTeVHRYk/izIugXqF2Un3AVkM1s3EjPXIb6H0sqOQV5uyuvZjFqm7u1wrTfbOg0AZGEW6+gHrqLZxqWQLlVzJIBA41a6EZDqFhQsdy6U+GmsatH6rTt3CbYe8rIGzNYuuHZnFOpiby4Tu5GixZIOQxDUhq+tBddhVyOKdBs1kImI9WATEwggWGPcPmgX9PlqQvr4+vL4+kRmZfr8fskW/Ars20yxuQ7wDXnCgFEAgjJlCeK6iSxpR4dNurt+lJ9tjWmyDEKPDgm8iLNitjM2AXoWpKRVfp53I69Q1acqap7jZPouu7cAiWTqtsykkcUJkKoUVKYSjUZMFgnpTZqF5hGZgHoZN6CVZyLRqFxMQe9XUerGUCa6RPRE0a3LxOtGCdH51sItmFl2btSGVpyLOPLKs7RC9i1GbmLuJykYyO/XKZiFXQIB37ua8PVRIGsVMn17BP4cIzy1OoDjIBA28OD70K7BrN82itmAlmxmC4BB6DDmNVzHXJk3jwlWSR6eEogmcYBudPbMoIjfZTjeUTZfBqzDv/7F3JsuN40AQjUDdgLlU+P//ddriAtSChRRlG2SW1G5JrdbMQcx+yNqGxWNRi7AfP15nk/1ogm8gYpqI0T2GuMOz5TgbLQ4qlZGEi7Grh6UT2xGS2rN4VakFufJQDthrgAVTbjONMmlanE7cYd5xUC94EQriTBS710kQC8RMYtEKb8CuHUiRTNfHdtWz2oaukiXeHP80WLGprQySDucYWGxk8frF0tPMKwu9nUIHkyJhtzdpT6jiGIKYTiyS1YUMESk6a4qlE2H6ScsPSNGfu+tVbG0SUmswrXWlC6XgaAWjPuymPIREc3vHrFA5kXwICVvrKQxOxHzHEG09mKpLNTlTg4ade2UXglTOL5X9Yo3nKj1a8ze5O0OvxAlSmVN/rakVjQM5kcpkPXwDEfOIRVI95Ck6jCATG8lJf6zv4uRUbvqLQKLdUeYoR22TKWuzQpRRiFnebb9C5D1EnXfch2O5U/+PHEReRViB/t3CkhwJtD7DNxAxF1l4VdlJbQxLXj1F0kXayWiNwyjRlFa0m9Ab4yzYdIqNbh4rB1PoPeksvc3YLb4arLdYzyG59ZQhFojJPAvb9pVizbJo2hjOEN5kcyq6gHP3NvpLQTgVeQ+2O8jyIM3urnSK5VmjGLdZ5EU6K4WOoMW3V5HHZ9HyDGSBmI4sTDO5rrVSA/F8u0IP9BeN6zrRmmJ121iv0ZTdhAk7fkZ7RUg+g0Qqh3C2peAEX4QQ1vRprv1eE6j4BiKm8yy82VbR9yd08YQedbMWVCS7ydixLPJbuW1o2hXpe26Uy3fpyu7udN59YIV4ZAs43ziIvNyJJftBO2As3gW+gYi5jiFWB+zqYrWCdKuySvmxY4Z61eDGy0x+YaZ5JelXyE+l0ghZcDHUphzXSyorUseJI4eQBS6WegvafgNZIOYjC9sEluylvs/OTbuUpH1WXnY2rT+RbB23Tr3waPnV5iew3IJcFmCxKq6oTfKW03n3F7N5ERr50njsELIeRfb+9LVXBGSBmJssvIOIM5ZG2BFJGxTWyoxuL7peLzg6DkulSlRTCHXmeOfKTVlaEdX2Qg8fzjgW2bjgUiheaRF8AxHzeRaeTog6iIUpsi+hdwnFyiaxZPpARMkGx1GDk+V0bpLrx1jP9K7XWTCR7DDlosKi5k2cnoITQrY58z6RTS/wDURMRBa2HNO2ku6DKfKbzWQ82zjizexWr3GtxoJrrEGivZT0m5xRm9Gb7M161E1ZYfE2TGjD4nVb2ULkRSAWiNmOIaoki1OFCmpDd+3Zwo7XTHEoXeq9Yy+9kj0gLG2LatuY5YrcPlYaFWqQRUUv4mFzs0yh5tlZAXUWiCkNTpn3WIwITmoQr7E97dpBZ6aN/FkWXHCzcpPdnjEWJZ1kViJTWyuW3rEoSzflKzJb+i5l7Fwh2QJkgZjzGKJEYEeBpBca2zE2ZvZVsuWZztbjzrC85gohsya914iuN6WXolDUdcd9sellxVgKLEq2CCta4BuImIss9OjtpEqx2Uy7ciolnHHdyXingwWb6hFH2zZGcq9QfcSmWTy2dZtGUeRt/Ip4gWnx0orQYgt8AxGTkUXylnoU0lGZVKOXAznepjult00VudOUdb0WKX+z8CzqFVh6jndePFZUe7fH85bNIPHoIaTGFi++wDcQMZvBmfS07lSxJvR8PZkGiW4qVU6u4CNtIGLPmNh8nCs4X4O8GxVYYjBWuamQdL03Ow5FfDMTIskis8VazIlvIGImsRjJS6Te7uJo31XZaDparOmvDIoxepMsRsiC80b0aOZ5U7fT9GzW1Gsr422KL8QCMdcxpJbn8HyG5E/hrvWlh/A1d/D5Q8hmbgaXLVDBiZiRLBy5SPYkIU0N3diuTyPrn4X/Jo+vt8q8g0cWC1usE3DwDURMRhatJvL6LBvH6NRnjq+7iMU7Zd4+W7zm7IEsELORhddLlkz3qFqRnsy6c5tbvZdYxHNl3vWBOBALxExikWqdYBVLs1It4ddgpJuIxfleU5csFrpgiAViNrJw+0NjvbUjuXxh14qlWx1D4uFDSGiSxTrzG99AxFTHEA8s/OH9puC7RRZ0E7GIb5Z5hypbgCwQMxqcyQzTTaoKS60X8xYRFk/ohgZnPGFYhOZkTqROETManAfIInpTeJP+I76RWMTThkWTLJANQcxJFk5Bheo/d96ZbEP6qwx76+94Zuo0CE1ovhPfQMRcnoVXk5283EdqDPj31p+n24hFPGlY1MEigCwQU5JFsss8xvQhv5+8brAnkkWQA2/ay4fwDURMSBap0SOWPIlorfm4lVjE04mQLlhALBDTkoWpyiz7QJI709/pG+W7GZynB+mF3lZDfAMRM3oWSddvJttdWuRMeT14NCdRPE8szCC9FldALBAzkoXMehjZENVY/mZiiIUxLLpgAbFAzEUWtcYQs+6cxMJAZ2gN3zYbcpIremABsUBMdgwx9ZvJKbzi0SFXpd35MINTc0XocAXEAjE5WWwrNsRuwFNzM592DAleTXeDKyAWiLnEgkjOu+SqILBFB26LxrPEIjg13W2wgFggZjuGNK/4Q5vN+cFiEYLfLtYAC4gFYkKxqG0RPCAdbIstniQW1rCookWAWCBmFQs+zgxDf/qkbEgI1U70OlhALBCzkkUtqcGtUs2WbjxJLHxdaIMFxAIxk1iYlEfisfToCHM8RyxCoGGygFggbkEW/QPGET+jKhbvLP750c98y7AIlY1kEAvErT2LjkCwppK2wfl1/r/YurDHPmFdpV7c3xWL0B6fVwULiAViUrJQpwx+P3/602JxNt78zDpXhDZYQCwQE4rFYNbUMysaJsdpsaDqrU0WA7frxSK0G8bqXAGxQMwlFuSuDeJGzoNHUOPVcvbDZFFsMK7+vF4sWlwRmlwBsUDcweBMZ8yL9Vfi7iqAr1NU0SWLBR1i/s08/oRY0GmwgFggJhMLlj/eKO8ud4bQz3sWu2FZPCqefoYsQnNyXhssIBaIucmCrXRwfWaFfI22H3SOLPqeQ48sSCU75MPrxSL0pv03uAJigbjDMaQCEskt7yznZ1F+/Cuexcssef22SATHPli8IRZtwyK0uQJigbiXWPCAo0HrBAz9Fw6IBQ3eBrIhe1aEN9OC44dSpz2uoCZXQCwQU4kFCW9yqFpTVV6Vg/ZYysdvkMUuDrE4hHxILHpcETpgAbFAzEwWwrFITd2gPDKHxWhOOpgNoQO3TlHWliWNhX3RH4x3Uiz6XNEBC4gF4m6exaobXLBEqQ5cjuMrBm79gmex/Gcpmxav/9HeKeSkWPS5IrS5AmKBuJFYNJrQE+udhUY+RsSCDt66nsWiD2WBRZaKS+ssBriC2lwBsUBMKhbcEIztn2xZRiGu+P1thXb8lmexC0MfKk6LxQhXhDZXQCwQU4kF76j+YoXtTtu2MapWXO1OBTmZkeVHUyzo1G3Ys9gJo4cV58RiiCsyWkAsEM/wLKhck05SIcjJiuwI8gGyoCHPYtExRyEuayQb4orQAQuIBWIusSC5L0SfQf5dX7nZo6ylUCsE9l0jPDbP4hxYtC/suNVl7fUWn2pRHwWLJldALBAziQXtmYu4JzOotCiqTewkLAryDistsaBTWNG+sDdDM5qMaafv9LBYhEGwCE2ugFgg5iIL8q93p2qidCxINaM7Bkb3GHKcKr4v+F5vCNEOFwMHkHNiMcwV1OQKiAViKrGgmLMYvF75HGUCpOgN86orFFFwRpUryWLgwo7UGXJzkWcxzhWhyRUQC8RsBic1DhLSodgaxHZfgmLxgEz+9cpsyJYW7ZLFmi6NNYWI74rFAa4giAXiRp4FKWkgUczNLfdT/AHZAu7ryGLswi4rsngYK46KxRGuaB9CIBaI2ciCRSllzpJ6DgVljCBleKTdtaCryaJo+OhUcO7uplGIqzyLC7kCYoGYz7MwjaReATcbM5SKTEohOfnVS8hCXetDk7KOKMUxsbiSKyAWiNnIQuhBzIDB4mVxOqmsCtAHkivIgvJsvAHPolve7ZZfjIvFpVwBsUDM5lmQlzgljzMoSh+TXS90K9ig98nCucDbFZzZrnDqvN/3LK7lCogFYkKyUKaEOHIUQpHYpkwp/xLlnXQBWQipGPMsRksrTonFxVwBsUBM5llQHp9JXktIrrUgMyCLVO23Ksl4iyy0VIxc2LGaAbliuvcxroBYIO7qWZAsnRAF32Qb2E1hBeUkCfXJYsbFyMe4YkQrIBaIqTwLSQgq9ylEgnXXmNEJIRUtspglvj7oV0AsENMdQwwhKH+T1IhNcs4c5WGlKMG4k1h8gCsgFojJjiHkp0DIPXewdS0o44l+eCOx+ARXQCwQ05FFmQNVAyuo4AThbxZdWxInqKj5vI9YfIQrIBaIychC5TaybCTxnJ05OdS634gswme4AmKBmMzgNHSh/QmR8DAmJhWPJFnQXcTiIFZALBB3JYvCoGCxOqgYZVEWemq1iEY9bkYWB7HigFZALBAzkYWYGFM2n9KaBSGZ8yjlQWuEYYtbiMXnuAJigZiLLBwxIFmHSdrB9EnCud9BLD7IFRALxGSeRS2dQY56+ARRu99BLI5yBcQCcVuyKC3Ko2TRvc8vFh/lCogFYi6yIDGKt0sWw0Jxj2PIR7kCYoGYy7MQyqDJQmiHkZPeKeQensXnuAJigZiNLOpFVaogk46xBd2rkex6roBYIGbzLKo1VYorhuo275YN+ShYQCwQU5FFAyw0Vxy0N+PDyCJALBB3J4umYJBz+nhQNuSjXAGxQNyDLERpZmxZnyCLk1wBsUDchSxir1XsvGcxz1i9T3IFxAIxlVgMHUJO3luTuOOJeM3dbU/3ruxI7dy/3iaLALFA4BgS43m1+LooJfnGxvN3P/OTXAGxQNyFLOKbZDGyEOjYutNfEItPcgXEAnE/g/P4nf/shf0JsoBYIB5PFielgjej4CKy+E2x+CRXQCwQNyKLozrxTyZ48xk7ZuR9yAJigXgMWVzDFrtOxH3fYDyauehAxZ8kiwCxQDyGLN53Lb51wmQquwZn3kBa/RkmIAuIBQJkMZI25X9CsZ47il3ntAzvHCELKhaQ2Mf058kiQCwQzyGLc/kQLo4deervphnb5d7deB5LDsl/v7X0/G+RBcQCAYOz6UxsJma+0CkuOMGxOEi0syG7vMh7bCnFHyOLALFAPOgYMpYL3UWiqLgSQLAdPLaTyPK8fQzZPoKjfLAWafx5srgg8A1ETBOvC9ark1D3fCKh4qxBkixKxFioo0sWuy8auZ7/+KNkAbFAPE4sHGkw8lGKAun+rO9FZvvz7arvNmjtJmb+xEjEvyEW4QxZBIgF4mFi4bmYTiZTHTdKjyKvLmN5COlkQ7iwOoiGqOIzYhHCic+EWCCeJhbZTizEIYp/7bdzBcf9WZaD8r2xqLTotpOXp49FM8pLMf6gWIRwwrMIEAvE844h+pJfOEH8lO9Z9SCKmorlfVQoBfdSp9LqMEIRf0YswvcaocOfCbFAPJIsxIGAxNlggYhSJkojcmcNKoq3d/7oN5Lx/+yd21LjShJFZzKZPkG9OGT9/78OjW2pqjJLFyP7kKW1oWmgbRNBSKt3XuvRoTGktzRQNWzFE9UQARborDkLp4+ySCNk6Yn57s7rH3PtM81P2uYsVDfGH6+Axf0k052vCSzQaZ2F1+xQuoiywll9WqYvVOfyyIachXczLgYiB8JCHqce73MWAizQWZ1FxoS87pm5iFQ3ahaZzyxlke6VkfsLrTZltW1Fer2zuKFCdr6mAAt03gRn1iQxJxEyIsytlZqKQOT2+AIY9yzH+iLceqI0bQ1EjoKF3A5I/8bFHmcBLNB5nUXlDab2y6H0GA8+3MFS4uReRqlqJr95Ye8jAtnpLARYoBPnLDIrUd/tRRfWHHXcsTGkcjxEtWz43gaLZF1FNor2KljcbIV8o2KPswAW6MxhyJCqIofmlqHYLpHKbOfMiyFbYpHZjV03dnqfs5gymzudhQALdGZnkeUY0tz9MKS8qpE1VBTtnHle4/sttx4bDu9JzZTFS/dZyM1P7HcWwAKd2llkXRT50EfhLNKUsKiDlSz6mFIZTzqLd+Us5szmPmchAizQyZ1FMQCaN3bn02E3yzHFKZo7iNxqZK1c23MWb+2zEHlun4UAC3T6BOcMjKIzy3EPk8lI5cxoyqKZYrKkg4ORX+krgAUKFYbkM6V2CU3mEqb/6PM8xX0djs5d4cVOi+ZNGEWjvtRYAAsU0Fmkcqv2dLtn/VmDKa4W4Jg9xsyYHmDxQl8BLFA0Z1H2NlhOVP3gU0Y029E7JLcHsxNYiAALBCzmbEQ20qGa6tkPVa91K9vxnX1zyiCmPmAhwAKh/2g1DZZmd1EAozpOMJVpjMczhs1VhkiwEGCB0CNnURzgMfmHITv+p1yYlTduJq+zqidYCLBAqMxZDGXDRd7O6azinJzF0jruDsIQEWCB0M1ZDFUGU+tDBcuWrTwcGVqdU1OxBFgAC9RRGOLt1JzKHeWM6QMQsmAmOgtDgAVCcxhStksM+Rac5urtbSIMARaoI1hMGopPZQsLbNxR8QRYAAvUISzSs/ZhgR/AAligDmHxpI9YfCywABbobLBordPNu7QsQHAWwAJ1DIulXRJpHSCJnAWwQN3ComypUHvnpyfWZSacBbBA/Ych6elApL92b2CB0GrOIm2xDsvPwVkAC9QfLFIzZZHWDvKwxw5OIIm/Vg9YIPSARVoMJdIO07HzQKBs686u93FlnPzYjeHAAqF2GLLx1NG0nrJ491EAUhwIsv0NWCC0BxZpQ30jrZRZU5XNeC8s7qjAWSD0BmeRLBiSzUls7gd/+yFDOAuEXgmLtHMaZHO/59vDEJwFQm9xFsktbfgFj6pAkozlSDgLYIH6gkXa3mWx24HgLIAF6tBZpMag+sKIaVpt1AriLARYILQRFmlH82ZqxycGNCGcxdc9CywQeiJnsb/noh2eRHAWAiwQ2giLtX7MtLoVq5Uf1d/vLARYILTPWSTHJKzPl6afuIBf4SyABUJPhCFrpmHVePzbsNjrLKZ7FlggtAkW25djbXxQEGchwMwm4okAAB/xSURBVAKhHbBIut9dpK07wH+zsxBggdATYUhyh8XSjojjTbBYurH3OQtggdABOYtt0cfbYfH39jrGWVT3LLBAaEfO4thZshfA4r7Y5ghn8U0dYIHQAc7i98Fi2oH1c2dRowJYINQNLCRbl/dTZ/GwFXneAlgg1AUsHqS43e0/cxZTBEI1BKHOYCHzYs0jnIVkf+jgRKgbWDzCj4OcxYwKxVkg1BEsclIc4SyydMXkLJg6RSg6LKRExc+dxQMQUwyCs0AoPiwsKX7qLCY9jEXxb8ACoYiwkLn6cZSzyOjwyFgUFRFggVA4WMjqAYRPvqZ4H3EWCP16WHAwMrBAwGILLKIIWCAELIAFQsACWCAELIAFQsACWCAELIAFsEDAAlgACwQsgAWwQAhYAAuEgAWwQAhYAAuEgAWwQOi0sFiY5gQWwAIBi+zEL5wFsEDAYpUThCHAAgGLlQNEH18pzgJYIGDhHzOcYUJwFsACAYsmJTJM4CyABQIWmu/KdiiBswAW6NSwKK7x/Ps+JnAWwAL1JXeXtn9dlw+Z3nAWwAKdxFmscsEBBM4CWCDCEMsFywecBbBAJ4SFrIPhSWfx9xNgASwQzmKTs5AxuARYIPQOZ7F2EuHeeq2++K1O3YgCC4Te4yz0RbdxN+IKRDgLXXqlp3vAOtIILBDO4mhn8aaIAGeBUGRn8UgeEIYghLNYzVSo9JW4GIEFwlkc6SwkRwXOAiGcxbKn0NxZKLBACGfhLNy6wUG7NhdcgQhn8bSzyFOambPoxFqMwALhLA5wFiI2pVn4C/osEMJZVD3Wec20yFwQhiB0ameR+4k7I+4IKb5DzgKhUzuL2URMcYcWVdPpW6GtxeglLrgCEc5im7PIJzxzOBhAqFA6Rei0ziLPUmiBC818hogJTYAFQqdxFs7OCM1rpLnV0DrrCSwQOomzqBxF9nfhLOpMReBGzpE+C4Sz2OksvC1UWs+AqPOh10ZOrkCEs3Cche8oNE9aqE1slh6jl7TFCCwQzsLjhyw4igwEUvdbmPxmd4kLrkCEsxB1OeE5iso3OE1ZapMZ8dMVwALhLLyzUYuqhxTzHuVffr93TRKcBUJ9OIuSE1Uxo261cp1F/WgxiYw+5k65AtFpnUXdkqlFs4SZADHE0IojZegRnhQ4C4SzqK1EAYfSFyw7CxN42AbwIBWRUZbTFcACncxZ1Fe/igk7qvHRek6szllkfqR+Sk/Ogn0W6BzOwl77TkrC5Cu1jkSMpdAyi6l1y5Zm6VKNnq8AFqhTZ7HiIMQBge2ssjlOMwpishR5y1aBoaB8YEQdxZS4Zxev3wN14tJkIetKpzp9WCY00TrHUT9Fg2zk3Hz6OlcgigSLJg28P2pCBXeSvBoWLdurPGfhWInix5lF3xo+AgEWKBgsdDsptO6cUr+/smRH0d1tih5a/bz6B1Q+RUXqhXuUThF6k7PIAgobS6gTb3g9lq5DyL2D2iqHk8Qws2J2LETll59/OgIL1G/OwhkKrwy/2ixCaSy0fojazdziVDnqWkdd8ahw5fyTxE5ccAWiUGGImnqFOIGFdSDiI6bdqdkYCjMLsrLwRN2G8VjtFqP31QgsUMQwROq7VB1DYWbJtQ5bLBbEbNc0qZBGY7cZUi+6L1TiNHIuWw2uQBQpDLGHf6m4FQqbyCjjCDWrKGryOK/idmNpq9+iynSETlcACxQuDFFxyxMm/6CmFauqhZoEqPp1lDJlYbq71HRpmB4vmwmNSg2uQBTKWdj/uivn4IUm/pSYOhsr1JtCbTkYKaMPf29vhZ/AbRbAAkVzFtrosVTHJdhcp9YLuJ3RL20usnF6OXTxRAA13Z2B6yFcgShYzkJaPZZluOBHJHUbVWtmRG3XlorvLtoFFvmlh6qP+yKQEVigiM7CzQ9YIyGeF6ibKZ0Txep9eCYN6rZkuYVX6ah1E1igeM6irF7U4YLTtVm1bNc92PYMMZvzLFfYqNNQ4aEl1g7OltdgrR6KneDUxonlXsbAGSrziiVOEKFS77mpmGKKKOqFOlFLHyPOAvXhLKzzd8Y8tZ7wWExTttbjuU3ideOGVxXp77BTrkAUL2dhwo16TNxzBu7IWVn/9Psz/TnTGizBqqT7kpys1UPxwhDb192yDM4+KxuZ2JkPZ1ueP2eq9sVNgqSfCARYoJDOoj5s1Onq1oUshpv3lMZGCi9zWSHKdmcF1UgYgjpzFiZVofUeLG/ZnUodp9T5CDXPsD2i3nir3a8Rvvuq8WiuQBTKWTipCtc9+KPqZiTUZjPssm/xThRq7c/qyEqMOAsU2Fk4nRHqVjsagyFlXVS9GqmXujQv3NqfFdVLbDMbXIEoUhjidUY4J4Sp2UIjzmi7O0tiuy3sCxuL0k1aYvGBXIEoUhhizyhXb25cZOFQEGcbhdr93a1NeW6uoh+NOAvUj7NQd4O237DdOiHIjoE43RLeIgsVrwoS794fd5kN1uqhuM5icXdmY77ch0Rzg422pkzqJ/QWgeAsUCfOwsyoi3gLtNSpWKjvIdzR9MZAmcbvpthJkxFYoIgabL7Cb5wyPZpeXtNt4zInl9U11Tg10vHoFxy4AlEkWDROEVxYgWdLG60KiFmVpf7ImPZiINYSGiOwQHFhodKaNhVxll+aIVB1EpdqN994baGByx4jzgKdMwwR/6BCZxdFO2Vp1vGV2Yx20qLLuui4jSvAAsXRpY4SjD9Qx3fYEZG6iVvsbEfQksdmK/GM2bhwBaJIsHB326h4h6abE0jdcw/dFo34kcehAcgILFBEZ2GOITT7tL1t3l5M0mjbNPsy+u/M9B4x4ixQD87CbdT0GzfV395td+KpuyO8dyux6+FXrkAURtfB7o5ohxbOzry1pXg9DXqMR7/KgLNAcfQxiHhtlHVBtTFAvtC12WPgcXTyc/jgCkRh9Odij0pv7Lrzz04WMZOkxcP6pMB6H/cmFzL84QpEgeIQcYdM1fMPtg+rOkO9OOPjFPpZRZWUBQqWtPDPIav8gzo7sbRxEMApofBM/yawQJH0eXFCCfEMhTZbu08zL7qNGhuee/vs+sn1hyIlLa6D3WFh1us5XVh6qnBjjQnjM2C5kLJAoXS5SGOHhT2stNe9E++MPzJ7QRSCYumf61CXO/32itPjYTwYLZd/uPpQQGuB3o6fC8YChUtx3qwF2m4TxifcxGhKIaQ3UTxrcQUMi7f9+INXaj73irFAEa0Fgcjbs58jxgLFtBYEIj9Mcm7cjDXOQQjGAkXUx/UKHY5/jcVG7wszZCiotSBt8XTy4akY5MpwOgqqK7TYC4WfwONCEILC6s9paTG+4zmjMRb/45pD0ALerD3qKwZhKAQF1ie0GJ+ob4w7v/62FVRNUXxaDOeEw3i0i1h44PD1W4YVKLj++0ULurMOr3zgK1CneQvas54unW4wKn9RQb4CdUOLy4BxeFVR5O/vF1agPnQ5CS7+hQhk+EYFvVioG31cr+cMRn6U5Fw+Sn18mIrrlR5v1JM+rz3bi/F9uczMVHz/Rq8XMpuoP1xc71f3Zfgr0pw/gNPl9qv8+o2CCtSj/rl2p3H68P1xzN7Lvw58z342+zZRt/rzefvv8Ov9co34/n27zm8zLsZrcSNPX4wv4NPjNT8pgaDOgfHx8NDoWV0uH4ACIYQQQgghhBBC6P/sncmW4yAMRbNg/P8f7gxdFQ8MEpbtpHzvrvukFAfMQwiBAAAAAAAAAAAAAAAAAAAAAAAAAAAAAAAAAAAAAAAAAAAAAAAAAAAAAAAAAAAAAAAAAAAAAAAAAAAAAAAAAAAAAAAAAAAAAAAAAAAAAAAAAAAAAAAAAAAAAAAAAAAAAAAAAAAAAAAAAAAAAAAAAAAAAAAAAAAAAAAAAAAAAAAAAAAAAAAAAAAAAAAAAAAAAAAAAAAAAAAAAAAAAAAAAAAAAAAAAAAAAAAAAAAAAAAAAADgz+NDcC7m/0TnQvC0CgAshCLmdCe+efwz3TUj0DoA8OIpFLHCQzDwMADgqRSxw11K8C/CHN4cuNoISF2l+K8X2V28qZ7LtB9y5t2BS+GyUCqQi7tYzFoDsQCkoikXAbFALOCCsQqlVLyCFx6xQCzgWoxIxVMtHGKBWMCV3Io8phVXdi4+Ryy8D+6H4NnWhg90K37kIiAW54lFcOmRFTPZmEnkzcFuE9M2rbgPFIdYnCMW3hXT51Ju60X8dURc5P0HxdS0USqeIBZn9FysZsW00+by2xEh1gJyXOrFJF50PuURiw9zCFP0gkdHLMBEKx6JiY+YWXgcP3W5cWDk/mYiFge7Fd2YdH2nCrGAAWLdj72vexdTkw+uIhiNWQyxOLbjJN2CWICdX1GPkHlXeE2vqBWnioU4Jl3OsUUswEorOmdKV7mel9SKM8VCsX9V3NdGLMBGKwTHz+dycU2tOFMsNHvdJbVALEBJcc9UeFPFRC4uqhUnikWsOYTSjSrEApS+bFErxPlVP27JVbXiPLFYi/z/bavHjamFAHRCLMB+flIN/NfC+bJacZpYrER+Fo3260yt9bb2XxOL31ul73A05qiAhVpurqsVp4nFQuTX60bvFnKxClv8NbFwk9+DWBwSsNCfNneZ+yyOHnQh9Xc7lrsl6TpikRCLHeYnA62499KFu+YksZCtGxd+o0MswHARkhyt8gVi4YWb1nMHJCMWYPLKFScf+EyxmKu8Fy5XFomciAUofNmEX/GdYiG/dWgqK4sNEcQCxBSimzTKV4jF1CXsCfyvWqS4iC0hFjDuWESa+DvEYirzvXHxEpbSNTiIBQw7FolLG79ELGZrC8GHUy5tWCEWMLLuJWDxrWLR77WQK7MAYgHDEQva5GvEQuUOhv6jIxYgdWVZhPxlsbghFmD5luNYIBaIBchWITgWiAViAUW4l/ubxSJZeISIBYjw+RMcC/8qL/AoM+A/xNJ/Q2I7WrEwedCpWGTEArE4dhVy/Nvyqs75LFy0sTinmSUfYk6TcqESMxqxeNuPP1/gt/eesxeLR4nl+L9azMAT/hSYGf37QRtDYuGnX4TE9Br2jByLULr57T56YjjP0kNy1lVT/O/LO2VELMLK/thzLr91eBatiMVL0X7r0N2HkeYLfpT7XcYuq6V7ZSOLbOjF4lkBZ/ZFySEYnQnx4FWIq5fRSrryymaWfMVS+v/2+JnLkdVi4atPmkbaPlmEm4piUXrOJFY0F0cqNAtsVDXHTao7Tye/BaUuiaUuSYlQ/7KhTlyFuHbFPcUgN7RUr8n4enl87WIImVi41KwPqZ7NZhHOUbcwr6OktRaV3ZtY748k1hutDZfKdXjTDFfw8xrTDHLRClkctxfSL84p7ayjLKXHSNkkFr0nTerhPn+cwStQ81JufEPS+i3Z7Q9v0Ke+s56uNLBbeRXtHidAWpuZDlyFCItoCd5+O0uSYj2bxEJgX/12zjtwzHXOiyBpSKoBp+6Prt6M2BCJxTIIHFLvizIHpWpNfNRlyEFeRCscZUmiOncHeFgshKqmdH29Qe3IhWfhUq8RtvfHVldxPYpHPAu3/VkvHN88I5dI6znuZCnkqEchFqIRMODdrY726OP4c7EQjHYnX9YO+HnCPl38zgHPQjrPIBMnioVmhLfzB+wshRR3FQuNfZ1abNxzmItFEDVp1ftR9Iff2qdprjh6z0L+sOjE04nNI9f0eiXbRnjDI7CzNKYVcrFQ2df5Fj4Vt/38mFjIHrSyXFX0R0rb+3S2HlJ7FoouIW5ReNFkwfhZqkGfvJiHnH5cOhutqFsa1AqxWHilXdVCIpSzBKJYL6YBzoWRnHNK0mJ1paqrShNVG6lnQ+tZ+EJiXM6PfNV1ch8ZFyWxCINTmWI+HxmX5eeys+Rz3Fcs6qvjZOD4VhpCrBe5sm3owt0rvHuGYZ3zUGrH1TGjFJ8W7ibCM0VSINyreG3bxuQxtJ7Fskrb+2jA/fem0zIKEIv+Hz9lvSTqdbfXztItjlhSiEXRBXqkeD9yClPeXDoyVJNCRTlQuZ6wWt3kSL1WTMuDOashWNolTkln492d09M8tZys/N5CCamZmrr4vdw0eZNVytwsFrMXq5wF/DsFPo9YdUyYW3KVzOQfS+XcZblYlNcJ71l/Xelce86jsS0rCHdmSV73IiVh/aq4bn6YXyaF3LbbiIVA2uyWj0r8bJ76GkpDI7XfGsRiF7HIzXHZU/WKtNtZCn1LoRIekYlF7Nr36w1Qux2m7imHLMtEis3Uci+Ziuf7x6tNlaC3UfppkoNkuf/aT38vuVnHi0XhT3MQudXLXrezdBNtDZaTjURiUSgkG7oPqo6pNbOh2qdjsizryjf3e2KSPP3cBcqtnhi0IRMLSXUmPw3+oBWHi8W6TmI58O8LH+yEDIctOaGl0mAUiUUW2V92hT7lpXmcriUXWRgwCQ09CEn2Hs36Y/FNchvtOKlALIKk4MrrQ+VaKwQ49xaLkGRzWFEMQtNjGLa0HstO7ulLxGK1wpBt347E1Dqnb4NMLGT5UovnS+LXKFfdgpmOBPEbuFUsYmNth1NRFwu3r1hotghjs5yJnSUnL5uy/qhELMS3py/MD2XTtuQi1ZKss3TG8NWYX5AXXQ01SbCwIRWLaVs3vgqnYtr7Ixmcw2IRhHNsZUYOjRX+sCVVJYSV7AjEYuUDeVM3rxS70J4vz+KmrN75qUlKqH3WwoaxWCAVreXqrmLhxONmvTKdv8V2llZ3kHrxOyoTC2ky4DpAObpd5xt6UZSCLN60rRVi9kkhcr5sRGUjtG4qNluGQEss8q5iobzCr3GXsJ0l3SaE+JFyxXerzduutMk7vlqu60UptpPlc3ouP56uJEElBdPAxliAk6iEcI07kAs0KhbqW7lizS+3s+SVltSeRRAEIkI50rAtbbCuF02x6Iycyid1EheK5ZwtbIjFohMiBcFyXiSygoNkxSGlFqblSHbDEle1pN07ro/9ili47vgPkvzQQb2QneDK8u+clm0PxeaVPHTphmCljdbHJUlZJjcdX4yh/br+ofRUejuz+nBObfDYWVIf4NKKRW7Lmm9uX2xPGwylG4JdY23hRib01jTfacTfFtHayPVWlYjFPN2bsx8j8Qej229y4eUcCPaH8skjO0vyXcOyK9YVi7JsSnYurHb4ff/IaB6L/jjV6KyN5mBoQ2Mqa0/QwD51QxZDxIlX750eDTdjSz5pQzbKC3tDqs/prpGgbZo22EslyfIWKM//s1k6d5kq5O9mbh63MSQW68TdRwE79koVEU6bS4FC6YCiS/orAspuuZ2loLeUN4jF5K0OrbJI1mmDy5z3hdetqHXqi57F6HUg00exsKFyUsq3BiAYcv/cZh2y8NV9KdQXBp7O3awtJbVSOpVYLA5UvxfordI2O6QNutTIJhkTi/cQ9SluYLuNMbGo3ocyXnr2zwct9liHFPOc4vYhHm/GlgZkJySVWBT+1zedip12/Vunv7d6FmGLWGQ7G8oQSmjo9eRiFGh4Y+aBkCzaF5Cov7mlgSwTnVisX+pmUHPHMFu14Ml2z+JLxaJXTIkzZN0WM5jZyi5/HlnuCGQnHytgXiUWiy9oBzXjrseW6ndDXdSz6Nd9ojZyZx1i4FqU1efzxSLvLhYxnTiPVQ+YX9WzuAmqr1HstLkO2a6m5fn6C8TitrNYHLNTqn3y63oWN0G5RS7Ua6/cbCPv6YZnET9icewqZ0Yv7Fl0gkgcHdnbtRBtpMtKMHurIS6ytEOAM0mcinDCtDDtZEvPQpBPtcDOxphYvLanEmox5lpsq6VeO5v1+bsh2V4sXNerODKEli3FouhZDP8cCxujYnF7FhZqCQYiUXUttjVO7ZTXRyZl6S05nVikI9YfXt/R0winoWfxrWLREQziFnXXYsshPFc9Vz5Q46n8N6da0mVwhgOOf9zfcX3fbBeLYgbn8JtjYWOjWPwXjFRQDPZE3iS7w9GrtA1fW57oH6xykOxYS9lELOyCmo/McelcXD4zutmzmMWDRsUi23n9btsoL9R25caLhmsx7Ao2sjZ8UgcIKn9ypqWw7Yi6vVORFMMr7ONZaAxIRDifKxbPlorJMIz3x6IWRmqxSomrxNGEzkvtcvwTLSnvsyjVETULar6PownHxE6exc1gljGxYScWS7ngdpxGVHKsx3yzRMfyC8ZjpbtZykpDfbFYS4XZTmlWL/P38iyEF+uLVdh9gFj0qySyENkipr5d/EtdKzEIL+w1tOQUr3QcuLDXMq7u1G6y22c3RH0HZ7eLPkEs5hUkCHE2FyLqF7tQ+cI14gb9ap65lgZhZ0lbC6H+cVkpgP44cIMCr/QfLfMsVBfzaR9uX7Hw0gbmSFlNRn9jwBo5LTgni/ku6kLMsX5N/36WnMaxGCky1BEDl+XbJFm5avQ7ZXDOf6RgUVi8KkKZ6NO4bkIsFqFSos1ev/7+QiR22rI5jgp/rTsNHzTlC80sNX9xMChf2H9U8fpvfujcqz5veTZEPQfnUoq7zobP9TR5JzMUUupMM44Ip0Yt/rV3b9ttq0AAQP2Abv//wyeW0zSWQAwSTk/rvR+70rGuowEhiBYXuY/35qnWzbiM527MnpEaOnb374W7Loz8tanRMRhD2+IXxWWNr1cWzzs51JNW7pXQ0tRam8uvlVJgNOiv6coO05Jk0VIbrL33w6lUkbto0hy+M/epK70m0hiOlHnXE0kWu2WZyzfT17YEL8227pDpVfNZ7HYyFGM32KRHjF2g7IH8tlrbYY5NRnw3dXIGXvYVUkXupluiz/FxrnyG3C9SdIhJblqlSLLYbWoxW3x/szk1zwdau8FeN1PWrmo5vrHmwjDWHjH2h6XQMRSqyCZ9Fq3ZYj0hQ7GcK/ynbMMgc+emWJFT6//oGSl7oeb7dCLJYl+75DPBmQ9V4tliE/3Wt7LYhE/RAmc6FyPNR3d7aa33wslKrR3ClFsin/liPz/6/aub0ne9hWs907OxzypjZvbr+XWRMsNXd3dzYbbGULK4hcaw7OqzSHGx60UJrqnzfOl3qCw2b7MPMt1ULHC6xNjd5PVHSPGHvv+V8d7h2uLXnCQfGeNTStNytPhFCnSyZb+UyE+Uvz9X/SJlh2Q/1VJDaTKlWLLIbOqmbZetzyITum0HlQWbUPOtd2URLHKGzZ/dLsfINSPq75SXwICicW79WlFtsf2wIbtQeng0QSp9WfWZg/IzCuTi9YuUb2Hc7+c10FRe5iOWLLKbOs9fqbe0qWeye64eGdLx69selcX+tdJY797atRFCMZa5NrQyVbugNsuo5Cqy0bchV7NFyNGhTfNhFmqYquiHIh3taDBZFAu2o00NFr77YbPzU3txyM0xeetfWeyG1e7T1jjVBtcP1dRXj7FPBb/KzfFbNVcLM6RqSiLfzm/MFYeN7bk5fKnDul+k6eQuR5PF0P4D0R61Iftd60fNMgz3oiWXirZpqE9lsX9H/H0dwMwkEbnSKbNc8WGMwgldthuyfNSH91qxeNiep0K9H7dJYXG14yJwlVeGfTbfOMVXjf0ind3laLLIjqY/XZwFGlFHrcVdGupTWWQLtPU+fdyoc6h0mtpiFJ74pfJ4OXwJ9tEuTPfeuP1cWQqL1zRF6mM+G+/xg4B/LFJzsvio116UK5pn0d+H7lRZFAfqNJVOqSVG8bm01H8z25E0ZfOr96bH18TZdBG5ypvuzMPk84cinUgWbT+wNF2dbUch3foki9yZbtiQ4g3YI0Y5gZ57JMoIL+i5iK72Fr8gmj8ofW2kuXWmrDMJeF4an2QN2aIyrvZaZdFwAx7sYo8YxT7rof2HTMBZvwBTc3XRcJFHL4h6ofKjkeY0nE4WDRdnewv5Uuh+lUV0Q44HnPWIUWoSpRNHTTLoni7mpi7j0HM2VKh0jFR7QH88lq8ki/rCms2HsSl0KWF2rCxiVU4tHY4dYhQywdL6Q16EhNPFEi+dWyesrjZ0woVKv0iH6XG9PC8li8oPnC0rPkNXj0Kpid+zsgjsY+RsvCzG5v8Nae5VLBNYNnY6PWH14eU9tyxf3S1SuZr6fOJfTBaVcu3aaiLHR6F8irpWFrV9DFZOxzFiZzQ7Sn9uqGJmZUVzeTEdrht7/8bs7NNwLAxfbM8+3SLlq6mvaT3KyeJoqd7tDxRGql9eeKh4FA5Dx7b7sfHf/nQ6UZI2FKC9YsybMfbh52G31V3eLF88FnXbDyz++Nc0DtdS0XYIzBp0+JORxufseB/b9BWmmCyafiBtjub9SE5jj0tzHbO5DZ3+QC2d3cfGDRmn6zHWa/c+oGtZv4OMXzqTBsj5u3pYx7at4+jm9cGSPvLE0CcV/T6fc7qQffpFGtdLbN3T52/zx7kyYLlhU5fPX1imNHZ8hg33b98+D8KSuoY+uSEX9rFHjPXqHdrOh0zRKWsMw/CiuP+zSJk4Y3iClh/e6Z+L3P1G/aEYf9dR4+/nw2UgpD5VAsBtM0WeZAGU2rSmRAFuqf4mdOzx5hT4m43rBFO1v/KJEbx7qniMyakuuv08Ls3LEHgvvwcW16YuSPo34b3bH8H7f1NY6LKAd6oqNl8rHWaLWZcFvK+GeZGmhrwC/HOtkPASo5PCApQWJ+ao92EIvJlhjkxtt59QSfcmvJvcQlqbOXNyc68pLEBD5DFX4GOilWEY88uoO26gIfJ7jc3sAptehYCGyCvWIgXeOFvMjhm8abdFY7YwkQXIFpHV1+QK0BK5vCIv8I8bo8uxa4PAmxtCTRHvQYD6GueaIECkuGha2R34p5WW1JYqgG11kTIjvK2qDeTyxZgeq8U/rMtqOypAKWM8WFYbAAAAAAAAAAAAAAAAAAAAAAAAAAAAAAAAAAAAAAAAAAAAAAAAAAAAAAAAAAAAAAAAAAAAAAAAAAAAAAAAAAAAAAAAAAAAAAAAAAAAAAAAAAAAAAAAAAAAAAAAAAAAAAAAAAAI+A9eB9I7XZNEPgAAAABJRU5ErkJggg==;" parent="1" vertex="1">
          <mxGeometry x="619" width="142" height="142" as="geometry" />
        </mxCell>
        <mxCell id="tH_dNCv8WW0gVUp8uDPe-9" value="" style="group" parent="1" vertex="1" connectable="0">
          <mxGeometry x="340" width="142" height="142" as="geometry" />
        </mxCell>
        <mxCell id="tH_dNCv8WW0gVUp8uDPe-12" style="edgeStyle=orthogonalEdgeStyle;rounded=0;orthogonalLoop=1;jettySize=auto;html=1;endArrow=none;endFill=0;dashed=1;dashPattern=8 8;" parent="tH_dNCv8WW0gVUp8uDPe-9" source="tH_dNCv8WW0gVUp8uDPe-2" edge="1">
          <mxGeometry relative="1" as="geometry">
            <mxPoint x="70" y="840" as="targetPoint" />
          </mxGeometry>
        </mxCell>
        <mxCell id="tH_dNCv8WW0gVUp8uDPe-2" value="" style="shape=image;verticalLabelPosition=bottom;labelBackgroundColor=default;verticalAlign=top;imageAspect=0;image=data:image/png,iVBORw0KGgoAAAANSUhEUgAAAIQAAAAhCAYAAAAYlQP6AAANjElEQVR4Xu2aiVtTVxrG+z912ukzrdVap8+06lir1XbUCoIsAYRawaWUuiCbkRAgQAClQFGQRVGUFgFlDYgIJEBCCIQQAdkJW0K2d75zAwhc7aRObTPT5Hlezs25955zPN/vfsuNb7z11/fgllsremNjx3/Sls3bEBEShFJxDOQ/JKIvW4zhPAkmr6dTK4U8Kxm3hJF0TSC2bPmQd79bri2ngdj78Q6URkXC9tNN6K8kQZ0cC2ViFLoSIqEkaRIvQJsShb60GKhSo6Ggdrg0G6XJQuz+xye88dxyTTkFhMQ/CPqEJIwkSUjJGIiPh04kgj5R7FCSEN1RJ6iNwDNpNAaTo6AhD6JJjEdHdDS6Yy4hTXCMN65brqdfBGLfRzsgi4jGSIIUQ6I0jCSmcxq8LIFOSIpPcYjgmLwSj6UbEixeS8WwRAjtZSH04lQCKAtDlzMwHZ+O1ogYGnMnbx63XEcvBcJj+x70XUjE8CUpAZCOPlEG9Gm56IyVYCA5G4OSH6FNzIU+5Rp0kisULkQw5GdSS94jRULn0qFLysFTyQ2CIh9DNM4YQdETLcHhHXt587nlGnohEHs/2o7ei2KMxEmhF6ZDK76KHuk1qK4WoSP1GjqlBdDllcNQJqP2J7QnZkOZlomWS0K0iyXoSsnCSP49aLPLoMq4jUdxV9EryUJ/UgaBlYnuuDR87vYULqkXAlH1/UXKE1KgFaVCk5AKeXImKgkKxe0aTD7uhe5hO6Za+4DBeYw3q6GvbEWLtBAtKflou3oLo5VtGKvtwlBdF9R0PFjXjo7CYtwnYOTJV9ArzkLNd7G8ed3648UD4oKXH7RpOVCJM9BFT/ST1AzUp+egp7oDzeVtGFcZYBq2QCVTYlw9go6HTzDSpsNITQ9UJc14VquBvk4NrUyN3uZeLIxY0PjzI0xph9Df0IymrOtQZxWiPyELCX7uRNPVtA6IPbv3oTQiHq3CH9AizoW6qAL1BaV4eLMSlUUtCPGMRVx4HmAAJvUGVJSW4/7tCnQ2yDEo68NQgxb6xgEMNPVD2diFGf086soVOBEQi5gLGcASUH/vAbRVMrTEUj4hvoL9u3bzFvVn1btbPLBzfwX2e43ji6Ozr01sfDYPm2/jGtYBceiLw0jz/w5NcbkYuFmP7nsNCP/6NGAFfr7VhVMBGTjhJ4W8aQqWeeBRQxMaHzZA0aSApqkX/bJ+9Mm0UDf3QdmiAoxAQdZDRJy8Ch+fGIyOAzNTJty+kgclhZauhKsoFsbxFvVnFDPO6wZho9h8G6FYBeKdv21GBBn/1tkklIcnYYbif2LYBTQ9aMT8LHAqOAlf7vwO+z4+g+KcJixRX+eTDnS1EgztavQ0K6FuoraJYGjWQNulx1DfDAK9orHjoxAc8YzEk7YR2Amu8txC6EqqoaCSdOx2Mff2c+MGOaOEah16+/lqqbwOwVb+9a4s9sRuNNjvITbv2nWsArH9k10I9z2On6KkaEnOp1ygA767DwAWyh11MxB4XsQn7x/Dzi1fIy3+DmADpkcnYJ03c9ewcADTsuh4cngerQSH4KgQm9/1xd49JyFr1AJ24GHJXfTfJCBSs9GVLkFEoIC3Qc6IA6KjEhe9w+CxrFBxLVoIiu7qbOx6wT2uqt/bO6yIzbt2HatAfLXnIBJDzyMn+CyeltaiqeAuTvqFwE7G7usbxzcCET7eFIRt7/gj7mweBwQsdsyOU0JhpC9LdgcUy5qbsUHWoEGgQIK3/+KNw4fOo4ESTjvx09PUhtxvo9GRngtFSiIKI8/yNsgZOYAoR/CG/uAiJXmKx8jYy7/HVbXRUM9lgpo9ZLTh9aI1/QVWLLDutR+TDW1F89z56pGNJ4GFATNieOPPrlvHKhDB+72Rd1aEdN+TGLvfjHxRGsQx8dxA3d1PyfXHYNfW49j6tg+iw3O4vGIVCBN9sRA5FmrJ4Mzo4+MmVD1QQhCQhjff9MGX+yMgq+vjQBpT6xB5JBAaSlhVUglkolfLI14GxFvJMgJCiRsn2Pds3CeP0V4U9fz8iXK0r55fuV6GDCF5l14WdpS4FrxxHIc42NbMufJdkvsY7dy9MiSs9C8fr1svea6N/w6mjUZa0bEq9uTRthIU0wojD4jRx0YkXWEyoXkCnC0KVoBYsKKMO2fEVRqHu755gTfH2nWsAnH+q2CUXEhGVsC3mKhpRWasCOL4BFhoPf394/CnkHFw1/fkIfwQG/GjAwgyvIGAsDMgrOQWrGbOo1hJT0fm0fhID2+/VGx6/zgOfHEWSvkEd5/mSSdOH/CGpqSMKpo4qJLieRvkjF4GxHoP4SwQNJZSjhux5+BxWoxQdq+zQLB7FTJITodBcE4In9X+/xaIBdSP0j6PmFHSS63BAukGIJ7Wr7m+nsFjQ/UaIHJXxzKhk25YUJl486xdxyoQUu8TKDoVjaIz0RiueYSCjKsICw3D3MIiDAYbBF4XITgsxCebAyC6eH0ViJnxWdiWGAUmTnarHVYrA2IOGq0Rnl4J+HTXOXh5XMQ4LdJG3PxUfBtnvALQXVyGB+ER0MRf5m2QM/rFHKJyJYdwFggNbkVuKIGdBkKOjIPr1/abACGygPGgraIw8IMF03SsvrUeiNfmIcqOhSHL0w+ZIWEYbGyBcWIK2z7chpkZCgn0yZTcRViQBEHeschOL+dgYAxMjs7AbFyCzWKCzbrItVZyK2PP5jinERqSiiD/RJw5nQKzxZF6hB4PRd3dKsh+vIn7J8+jLy6Zt0HOyLkqw1kg1hv+Zf0vBmK94V/W/2uBkCooL7NR7sAZdQnqOdq8QTOOrQFi3ee3zCHKg4+j0C8QEpJdP0zWtiPh0mVKBBuxMGvHoGYRIf6x+FoQg+baXpjmaf4FO8kK0yIDwuyAgpMFQ7oxWI1A6Y1mBPhEobCwlhUYMMybsG/vPso6LeiraMTtwDPojU3jbZAzelnIWK//VSBWksmNHwoJ3z4HYl3IWCN+yHi51q5jFYgbgcG4KTiGVC9/2NRaGszEuR9pcjp5AMdSKsoeIUt6E8ZZOIDgoLCRLLCZ7SQbwWDl2uHBUe488yQtMg2WFh1jVFfVobO1nStP267dwt3A06gNj+FtkDN6VSC2RNai+5WA2I2zdzSvCEQgMmS/Aoj7zJfa0Vmwpk9k5kII5/ZfNxAJHkdR5O2PbN8gaO9UkMEcZaRxegG6vmGHNdn7Bkfe4jhmYo895Qw284oYGJRHsDKUnbM7Qgt3TOdVCrUj/zAYcS9SiDK/E/gx6BRvg5yRc0CEIbuZruuhJJMlfbHlaFSy0OIEEN6laCSYuuuLEOp9DheL5ATS+jn5hl9WLIOOwtedTAi8hZBULiefTgExj58HX2TQ5SSTJZevG4iAT/ei0NMHhf4hKAz9jiY1cwNigSULz43OqgimdWDYnvevE4UdO8swqTxdfXnFxiKPYlGokOMThDtHgiijP8jbIGfkHBDkEcJKUaNYzjGeUDUgcjJkkEcIXS0nHbnJpRLnQgbzCJfKlyHo1aCmKBUZvxAyXO7F1KZ3t6DY8yhu+VL5eewUFmUdVPgaOWMbZ2fJwCxPWCIDmzkjr4LBZH1ufB4QrKyge5h34JBmUEwtQpaSjiLKV+55BmDzex/wNujPJpd7dc107rPPUeolQLFPCH4+fxkYo7R2joK/lYEwT1XEHBl4kcTKSwbG8pPPgGB97BwPCvpDCSeM1C7S9TTcWIsCOYIg3Dh8BFGf7udtzp9RLvfjFtOOzR/ijqcvijwEKBCEQp5XQgZcTnUtK0DMkxZIxlUo7FZyIwQDqJ97CbHiOThY2Hc6MJFrWLTAStVH3rcXUOAfhDIff+x8xR+2/h/lcj9/M4X/cw9KPfyQ5+GPvK9Po6fqIbl75u9ZomDmvICN8xbLgNip5LDPYXpiBPMz05RAsszSAYPdzDJJalkf8xJjoyg+H4M8wXEUHw1A+Gf7eAty648VDwimjEOeKPDxQ0V0FBaUcswPaZ+/ibQsUHI5x7UsjNitM6RZsreRxDwG8xastKCW/bbBeRczLDMjuHslGVJ/X1z39UfqwcO8ed364/VCILZ/sA2lEScAZSPVNa0Y6qzCmE6OqWdaLM1OkMeg8LBEIYC9sl6inMFs5apKC/2loAAbSyQtLIRQUmqawUS/HONqGcwDLbgvPo8Mn0PYvnkrb163/ni9EAimo4cOwaBhQMgwramBQd+JZ33d0HWx/xAjpyTRkSBylYOR8WGHiXIFm40gISBss+OY1ath0Cow0d0I8+BjDi5Ddz0O7P6MN59brqGXAsH05ef70FZ1A4v0ZM9pVeiofoCHxbdRmJaN/ORcKB7IMamaxoSaNDANw/A0RlT9mFCpMdHZAXN/NyyadszK6wBdO5Q1ZTSmu6pwZf0iECtKiYmBsqoeOlknlNWPUZFdinxRDuZ6CISOUUx2jWKqZxhj3f0YlfdAW/8Ik086sKDoglGuwFRLMzKFr/aLplu/r5wCgmnPrv2QRkvxuKQJ2ho1BupUsPQbYOgaxnRnP5Z0lF/oNMCzZ1SZ1EFX246hBhWuiXOwb/e/eOO55ZpyGogVbdq0DaGCU8gSZkLZqkJTcQXq8ovRdq8Y6rp7qMjLRVZ8Er7x/wbvv/933v1uubb+DW2+Mvup3pTcAAAAAElFTkSuQmCC;" parent="tH_dNCv8WW0gVUp8uDPe-9" vertex="1">
          <mxGeometry y="107.35" width="140" height="34.65" as="geometry" />
        </mxCell>
        <mxCell id="tH_dNCv8WW0gVUp8uDPe-8" value="" style="shape=image;verticalLabelPosition=bottom;labelBackgroundColor=default;verticalAlign=top;aspect=fixed;imageAspect=0;image=data:image/png,iVBORw0KGgoAAAANSUhEUgAAAgAAAAIACAYAAAD0eNT6AAAABHNCSVQICAgIfAhkiAAAAAlwSFlzAAAN1wAADdcBQiibeAAAABl0RVh0U29mdHdhcmUAd3d3Lmlua3NjYXBlLm9yZ5vuPBoAACAASURBVHic7d15nFxlne/x7+9U9ZaQdGczBCQgjKMiI8ZAOul00iI4Mm4Ic/E1o+OMjsi4XJ3BZZQlaZsE1EFxuerMxauO66iMIirLuMWQTqfTIeIax1EQFAiQkM7eVd1d53f/SBCMWaq669Rzqs7n/Xr5SpA65/mGrtT51nOec44EAAAAAAAAAAAAAAAAAAAAAAAAAAAAAAAAAAAAAAAAAAAAAAAAAAAAAAAAAAAAAAAAAAAAAAAAAAAAAAAAAAAAAAAAAAAAAAAAAAAAAAAAAAAAAAAAAAAAAAAAAAAAAAAAAAAAAAAAAAAAAAAAAAAAAAAAAAAAAAAAAAAAAAAAAAAAAAAAAAAAAAAAAAAAAAAAAAAAAAAAAAAAAAAAAAAAAI3MQgcAUF0LL/WmaN6+WbnS6ByZZpYUtZri1sijljiyFlPc6m4tZt4iWau7t5gp525FMxXdveiyQmRejGMrRjkveBwVo8iLHtueXOzbx/Pj24b6Zu8O/WcFMHEUAKBOLOx9YIqp9dQottNkdqrJTpBrjsxnuzRb0myTzZbUXptEPiZpu8u2m7Rd0nZ3327SI3Ld6+Z356PS3QN9s7dK5rXJBKBcFAAgRXp6vXW/dp2Rcz0tdp1m0qkunWbmp0k2L3S+iXBpxNx/42Z3m3S3u+422d0ejf10qG/2/aHzAVlFAQACObN3uKNVera7FphrgWQLXP50M8uHzlYz7tvddJfJ7lKsu0qyu+7MTf+V+iwOHQ1odBQAoAYuvthz956+a4G5nyO3xWZaIOkpoXOl1D53/7GZfuiyO5rHoh/0v2f6ttChgEZDAQCS0OvR2dr5LHOdI9k5Ji1Xzc7NNxp3uf3c5WtcWpOLbO1gX8eO0KmAekcBAKrkrCsfPSnK5V5q0rnu3mNmM0NnakjusWQ/kbTGIt06trV97eYbbCx0LKDeUACASei8avcz3OILTX6hzM4KnSeTXDvd/Ftmumlc+2/f3Hfi/tCRgHpAAQAq4ra4d9fZsfuFJl0o2dNCJ8LjXBox6dux4ptyFn2TUwXAkVEAgDIs6t3+ZMX5v5fp7006OXQeHJu7j5vZLbHZ/ztly/TbbrzRSqEzAWlCAQCOoKfX8yPx8IvM7HUunW+yXOhMmCDX/S7/dC72T264ZuZ9oeMAaUABAA5xVu/OU3OxXyLTq+v15js4AvdYpu/I9Ynxhzu+weJBZBkFADhoyVXDC2KzKyS/SGZR6DxImOt+Wfz+cRv5BAsHkUUUAGTe4hW7l8ZWutJkfxE6C2rP5dtM9uHxYvzRze+buSt0HqBWKADIrEW9O//cYl0p0/LQWZACrt2SfyyK8h/a0DftkdBxgKRRAJA5Z6/YtcQs/qDJOkNnQfocfHjRh1qj0WvX9s3dGzoPkBQKADKjq3fbCeOef59Jr5SM9z6Oyl0PRqZ/Hry64wuhswBJ4EMQDe/8N3vLjhm73irXFWY6LnQe1Bd3HzDZWzau6tgcOgtQTRQANLRFK3ZcYIqul+nU0FlQx9xjN/tUyaLLN/dN3x46DlANFAA0pEW926fLcx8z2d+EzoLG4fKHzaPXbFzVflvoLMBkUQDQcBat2LFMij5rplNCZ0GDcv+Y7d3zjsEPzh8JHQWYKAoAGsbCS70pP3dnn6R3ciMfJM3lv8jFeuWG1TPuCp0FmAgKABrC4t6df+KuL0laGDoLssTHXLpy6OoZ14VOAlSKAoC6t3jF7qVupZslmxU6CzLK/XN7oo5LtvTZaOgoQLkoAKhri1buvFjunzWz1tBZkG3u+kHzmC7qf2/HcOgsQDk4T4q6tWjl8DtM/mUO/kgDMz13tMkHFl05/JTQWYByMAOA+tPrUafv/Jhkrw8dBTiUy7eZRy/ZuKp9Y+gswNEwA4C60xnv/DgHf6SVyebI/L8WXbXjzNBZgKOhAKCudK4YfrfM/iF0DuAY2s3sdk4HIM04BYC60bly5xskfTx0DqBc7v7rXJRfyuOFkUYUANSFRb3D/8tifZkb/KAObc6NjJ0zcN2cPaGDAE/EhylSb8lVwwvk+jwHf9SpheNtTTxSGKnDBypSrafXW2PT503WEjoLMFEmvaRz5fDrQucAnogCgFQrxLuuldnpoXNIkrv2uvxXLt0nd+74hoq42/Vn9e7ksdRIDdYAILU6e4efK9f3Jav9+9R91E3fM+mmUhzd0VwcffDQc7hnv2vXrFxLfHLs9gK5v8xMZwfJirrh8vVD1rFcfRaHzgLwYYVUWtS7fbrF+Z/KNL+2I/vW2O1qi8a/ONQ3e3clWy6+YvuJcS73BpNdJtOUpBKi7r1r49Ud7wsdAqAAIJU6Vw73SbayZgO6drv0vlK070Ob+07cP5ldLbxi77x8bqzXpdeaWb5aEdEgXPubxqNT+t8zfVvoKMg2CgBS5+C3//tk6qjFeC791MxfurFvxr3V3O/iFTt63OyrPKUQh3LX+4ZWdbwrdA5kG4sAkT6ef1PNDv6ub7RZsavaB39JGlw1c62XdLakn1d736hzpjcu7t05M3QMZBsFAKmysPeBKZJfVoux3P0LQ1H7hWv75u5Naoyha2b8JjcytkSuHyU1BuqPSdNir837HDgSCgBSJe9trzPZnKTHcfnGtqjjklqsxh64bs6eUlx6qdwfSnos1A+TvXlR7/bpoXMguygASBWX/XUNBrnfrella/uskPhYB915zazfWWQXuHvNxkTqtUel/PmhQyC7KABIje7Ld88x19lJj+ORv3lT33E1/zY+2NcxJOm6Wo+L9HLTC0NnQHZRAJAao01+ftL3+3dX/1DfjK8nOcbR5Avj17mcy79wkL9Acq7GQhAUAKSHxy9KfIzI3pH4GEcxcN2cPZFsVcgMSBGz4xf37lwQOgayiQKAdOj1yGQvSHIIdx8Y6msfTHKMcrRY+yck7QudA+kQx8Y6AARBAUAqLBzbNzfpa//N7BtJ7r9ca/usINdtoXMgHcz0tNAZkE0UAKRCU9PYvKTHiCy6OekxymWmYOsQkC4uT/y9DxwOBQCpEMdRoh+CLt23oW/6fyc5RiVGzG8JnQHpYG4UAARBAUAqRB4n+iFo0j1J7r9SP+6bsdOl4dA5kALGDADCoAAgFTxK+luQb012/5UzT18mBDHz9F5vDh0C2UMBQCq4a2qyI9iDye6/cp7CTAjBrEk7p4ROgeyhACAb3FN32Z0ZlwICCIcCgKw4PnSAQ7k8dZkAZAcFAJngZieEznAoU/oyAcgOCgAywTxtK63dxAwAgIAoAMgEl85Y2PtAahZada7Y9RzJmkLnAJBdFABkgpm1RvGURJ81UAmXXxg6A4BsowAgMyLZBaEz/J7potARAGQbBQCZ4fKX9PQ+fFzoHEuuGl5gsmeEzgEg2ygAyAwzm1mIm98eOkfJtDp0BgCgACBbzN7eefmeuaGGP7t3x3Ize2Go8QHgMRQAZM1Uz5feE2Lgnl7PW2zXhRgbAA5FAUDmmOk1nSt2XlrrcUfinR8xs0W1HhcADocCgGwy/+jiFTt6ajVc54qdbzSzN9RqPAA4FgoAMsqa3OyrS3p3dSU9UudVu/7G5R9OehwAqAQFABlms+I4XnP2yh1/l8juez3qXLHzXxT558wsn8gYADBBFABkm1lzpOjfF60c/vCi3u3Tq7XbJVfuOHlRvPMWmd5RrX0CQDVRAABJJnuLPPfrRSt3vqmn1yf8bf3M3uGOzhU7/6WUs1+a2fnVzAgA1cS0JHCQyeZI+uiI77xs0YrhL5rs5o2rOjYfa7uFl3pTfu6u58r8pR7rFTLNNFkNEgPAxFEAgEOY7DSZVkha0bli5/1u3i/ZgyZ/MI5tayRv9sjmmfwEd5tv2vVcmaZLJuO4D6BOUACAozE92WR/9dg/RNGBX+3gP3PAB1CvWAMAAEAGUQAAAMggCgAAABlEAQAAIIMoAAAAZBAFAACADKIAAACQQRQAAAAyiAIAAEAGUQAAAMggCgAAABlEAQAAIIMoAAAAZBAFAACADKIAAACQQRQAAAAyiAIAAEAGUQAAAMggCgAAABlEAQAAIIMoAAAAZBAFAACADMqHDgBIkqLos67SYOgYWWSxnSHTqtA5ANQWBQCpMNQ3fYukLaFzZFFn7/BOuYWOAaDGOAUAAEAGUQAAAMggCgAAABlEAQAAIIMoAAAAZBAFAACADKIAAACQQRQAAAAyiAIAAEAGUQAAAMggbgWcNr0eLdLuRealTik6QdLxLp9nbvNkPsspbagyd2vmRsBhtY7mW8p9bWFg2X1yL/v1KTAis4fctdWkhyRtNdM9o9b03WlLvv9w6HBZRgFIge7Ld88Zy/kLFMV/Id/5AslmPfE4bzLJfv87AA0mbray/2q7/AQzq7fP7lOe+Cd0Sfl4zEfWL/uhzG9zt9vaHjh+o738xlKwhBnE8SSgRVftONOi6Eq5/6XM+GYPZFRs+Xmb+o57qJzXjqxfVjJrwJlA1wMyvb+lef8Ndtbm/aHjZAEFIIDOFbs63fxKk14SOguA8CopAIWBZZ50nsC2yXV9i5c+Zt0De0KHaWSN1yJTbNGVw0/pXDl8u8wHOfgDqJR7Jj6z58j0nkKUu68w0H2ZO19Uk5KFN1MqLLpq+O+Vsx9L9oLQWQDUqR/0ZOYz26QZkl1fHFj2/f3rls4PnacRZebNFEr35bvndK7c+XWL7JMmTQudB0Adm7Mte5/ZpudaZD/Z39/9N6GjNJrsvZlqqHPFzuePNpV+KumC0FkANIDd03OhI4RgZu1RZJ8bGVj2Ff/R86eGztMoKAAJOfuqna+Q+S0mmxs6C4AGMWVapj+zTbq4sG/k+7s2njsrdJZGkOk3U1I6V+74xyjyz0vWFDoLgAayd1/mP7PNbFFzqdi/f2jZSaGz1LvMv5mqbdGK4dVS9CGp/Bt7AEBZxpoyeQrgUCZ7ejTmA4UNy58ROks9owBUUeeK4X8zsytD5wDQoFqKfGY/xuzJHnv/6GD3wtBR6hVvpipZtGJ4tcz+IXQOAPUnL4/Led2e5hY+s5/ATDPj2G4dGVz2lNBZ6hFvpipYfNXwJXzzBzBRuWJprJzX2ViOUwB/7EmK/VZf1z0jdJB6QwGYpMW9O8+PTf8aOgeA+pVrKZZXAEbH+Mw+DJM9vRjZTf6z05tDZ6knvJkmYclVwwviWDfW4ZO5AKRI244nlVcAmigAR2TqKeya+WluHVw+3kwT1Hn5nrlxpFvMdFzoLADq2+0zVV4BKHEK4GjM7BXFgWVXhc5RLygAE9U0/knJ5oWOAaDOucfqs7IWAVo+z2f2Mbh57/71y7pC56gHvJkmoHPlzjdI9qLQOQDUP5dGy37xeInP7GMwWS6Sf94HF00PnSXteDNVaEnv7qfL9f7QOQA0CLOypv8lyfIRpwDKYfaUYtzy0dAx0o4CUIGFl3pT7PHnZZoSOguABuFedgFQaZzP7PK9qri++69Ch0gz3kwVyM/d2SeJu04BqB4rbwGgJJlzxVElYtO/7l+3dH7oHGlFASjTWb2PnuGmfw6dA0BjMS//FIAkCkAFTNZhuejDoXOkFQWgTDnPfchknH8DUF2VzACY84TRCpn0spH13eeGzpFGFIAynL1i+EJJvIEAVF8FawDGOAUwUR/0r1zMF7hDUACO4fw3e0tk9oHQOQA0Kiv7MkDLcwpgIszszwonbb00dI60oQAcw/CMXW+XxJOmACTCKzkFUMpxCmCCLNYqX9PTETpHmlAAjmLxFdtPlHR56BwAGlgllwHmmAGYMLNZhZbSu0PHSBMKwFF4Pr9S0tTQOQA0sEpmAFSiAEyG2xu5LPBxFIAjWHzF9hPl/urQOQA0uEouA3RmACbDTE1Rzric+yAKwBF4Pv92mfFsaQDJsgpOARhrACbLpdfu2fC8uaFzpAEF4DAW9u6eLRcrRgEkzip4GJAxAzBpJmvNx2NvDZ0jDSgAh5GLS//E/f4B1AR3Aqw90xt8XfeM0DFCowAcYlHv9ulm9r9D5wCQERUsAiyJOwFWg0nTijm9JXSO0CgAh/L8myS1h44BICvKXwNgzABUjbu9xdf0HBc6R0gUgCe4+GLPmeuNoXMAyA53K1bwcgpAlZhpZqElfmXoHCFRAJ7gvqfvPl+mJ4fOASBTdlTwWk4BVNcloQOERAF4AjN/XegMALLFpO0VvJYZgCoy6axif9ezQ+cIhQJw0MIr9s5z9xeFzgEgW8y97ALAjYCqz6NcZr/4UQAOyuXGX2PGozYB1FZsvq2Cl/MZVWXu/kq/c2EmL/umAEiS3Ex6begUALInUr78GQDWAFSdmbWPjE65OHSOECgAkhb37jpXplND5wCQPaWo/BkAZwYgEZErk6cBKACSYve/C50BQDaNKn6kgpdTAJJgWjoy0PMnoWPUWuYLwMJLvcncXhw6B4DscfnDP+6bsbOCLTgFkBBT6aLQGWot8wUgN2/XOTJ1hM4BIIPcflrZBixUTowbBSBrzP3C0BkAZJNJFRUA7gOQHJcW7RtYfGLoHLWU8QLgJumC0CkAZJR5hTMA3pxMEJjJIjVl6gthpgvAot7dnZLNC50DQDbFVtkpAOdW5YkyeaZOA2S6ADD9DyAUl/bsU/tPKtvInppQHEhyafmujefOCp2jVjJdAFwUAACh+C1b+my07Fd/5eKcpKckGCjzTJZrHi9k5rRwZgvA2b27/tREmwYQin2tklcXTnjgFDPuBJi8KDOXhWe2AJj7OaEzAMgmdy+0WfG2ijayXOZuVBNIj7ssdIhayGwBEAUAQChm31nbN3dvhVstSyQL/oCZZo6u7zozdI5ayG4BMD03dAQA2WSxVzT9f2Ajz8y56dA8ijLxBTGTBWBR7+7TTTY3dA4A2ePu4/F49M1KthlZ132qyc5IKhP+kLtRABqWx5n44QJIH5Pdsem97Y9WtE2OG5bVli93b/zjY8P/AY+AAgAgCDdVPv0vcclyDZlZ+9j6rueEzpG0DBYAN3PvCZ0CQPa4+w7Z+Ocq2aa4vucMyVgAWGNxlGv4L4qZKwBn9e54psxmh84BIINM7x3qm727kk3c4suSioMjczX+F8XMFYBcKTordAYA2ePSA9GePR+tZJs965c8yeWvTCoTjsxcC0NnSFrmCoCbGv68DoBUWjX4wfkjlWzQZLk3mKwlqUA4CrPj927sOT50jCRlrgCIAgCgxtz9123W/smKtrn1/BbJ3phUJhxbPh5fEDpDkrJVAHo9klsm7vAEIEXMVq7ts/FKNim073mlpCcllAjlcKMANIol2vOnZjoudA4AmfLjoavbv1T5ZvZP1Y+CSrgoAA1jvBQz/Q+gtsyukMwr2WRkoPt8M/uzpCKhPCZRABpFFDX2DxNAurj7Fzb2td9a0TZ3LmyS9MGEIqEC7jrVBxdND50jKZkqAHIWAAKoFf9lWzT6+kq3Ko62XWaypyeRCJUxk42UWp4dOkdSslUAzFkACCBx7l6Q+csrfeTvvsGeJ7trZVK5UDkzPSt0hqTkQweolYXv3NEu2azQOQA0PpP948a+GT+pdLsojq83s6lJZMIEuZ8WOkJSMjMD0Nxkp4bOACAD3P9j46qOGyrdbGSg+zyTLk4iEialYY8dmSkAsTXuDxFAOrj8V7nC+D9UvN2dC5skq+g2waiRBj52ZKYAeAP/EAGE5+4FxX7xwHVz9lS6bbHY9laTnpZELkyS6ymhIyQlMwXAGngaB0Bg7qOR/OVDq2f+uNJNR9Z1n+rSiiRiYfLMbOqeDc+bGzpHEjJTAOQUAAAJcB+No+gvB1fN/GbFm67rnqGcbmHhX7rlSuMNefzITAFwZgAAVJv7qCu6aFNf+7cq3vRnpzcXI7uJa/7TLxd5Qx4/slEAej0y08mhYwBoHC4vKoouHFrVfstEti/smvkpmXqqnQvV5w26DiATBeCs8R0nStYUOgeAxuDyonl0YaW3+X3MyED3KjN7ZbVzISFGAahbls815AIOALXn8mJk9rKNq9pvm8j2I+u7X2Oyq6qdC8lxeUMeQzJRAKLY5oTOAKD+ueveyGz5YF/H7RPZfmSg+zzJ/m+1cyFhroY8hmSiALiXGvKHB6B23PW1YuQLBvs6hiayfXF9zxly/aeZOB1ZZ0yNWQAy8SwAi5gBADAxLi/K7e1DqzomfKe+vWuXzXOLbzFZezWzoTbcGrMAZGQGgAIAoHIu/1Uu1pLJHPx9XfeMXN6/JWl+FaOhhkx2nK/paQ2do9oyUQCsQdsbgCT5F/Mj4ws3rJ5x10T3sK+/64RCTneY2XOqmQy1NzI1brjjSCZOAbg0x0KHAFAf3O/0SO8c6pvx/cnsprBh+VMVx9+W7JSq5EJQuXHNkfS70DmqKRMFwNznyKgAAI7M3X8duV05uLrjRsl8MvsqDix7jrvfLuP0Y6OIG/BKgEwUADdmAAAcnssflmxV6eGOG4ZusLHJ7m+kf/k5sfxmk6ZVIx/Swd0pAHVqeugAAFLG/X9c9pm2aPQja/vm7q3GLgsbll/kHn/RZC3V2B/Sw6zxjiOZKADm1iKmAAC47nHzr7jpy5uunvGjau56pL/7de7xv5osV839Ih3M1HClLhMFwOXNRgMAsse126V7JX0nlr5856qOTUkMUxjovkKya5LYN1LC1Rw6QrVlogA0YnMDJsU9dik26eCv9vt/lhS7/An/TrHLYjOVHv9nj3WE7R/fz4Ex5CpJdsj+FNtj//6JY/zBa7z0h/s7dIw//DPIbMzcH1Cke026V7J7B6/u2JHof8Zbz28pduy7XtIbkxwHKdCAx5GGLwA9vZ4v+C6+/mMy9rlrm5lvc9c2k22TaZu7bzPTNjcNR7GXSlHOo4MHpliKIymO5bFiefT7/y8fl+SxRQf+v5IU5w7+aiX3SIpL8jhS04HX5eQ5eTx+8HXj8jinOI7G5GNqjfPucZM8LrrHuRb3EXncolLcplK8V+Nx0+6Sd4yfFG8rKj51WPGNNyqe7Ap3HFBcv3xBwfZ9zqRnhs6C5LkbMwD1ZnjvQy1tU9tCx0AdcPk2kw24fL2ZbxiXftu0e++2wQ/OHwmdrRo2hw7QIPwrF+eKT976ztj93Sbu658Z5swA1JvpTW3Nk76uBw3J5XfL7fvmPiBF64dWd/wqdCak28hAz58UtfWzki3h1iJZwwxA3Sm25FsiHw8dA6nhYy7dJNe/Da2asSZ0GtQHX9PTWmwp/bN7/C6ZMaWYQebMANSd/PhoS5zLxCMPcHS/keuGKMp/akPftEdCh0H9KGxYflExLn1AslP41p9pFIB6E1uuWWLNU2a5fhRHtmJT3/RbWPyGShTXLX2m5+wjcn8etxKHi8sA607OPS6FDoHac93jpquGVrV/iQM/KlHc0P0sj+1tsfkrTNbwn5Eoj5nFoTNUW8O/uUdVGs2JG3NlxeP3dW+/YXMV7uuO7BhZv+wFJn+buz1fJnHzMBxiNHSAamv4AtCUby7GzhxAo3P3cTP9S2Ff4dqffGDevtB5UB/2rl02L5fzF8v0ZjP9mTjo40hcxdARqq3hC8B+jY+28pe6sblv8cj+bqiv487QUZBu/rPTmwu7ZnVLfr5kLzDTszjooxxuzgxAvWnbvafo0xruIU6QJPdYsg/M2Nmx4vb/Yw3XzjExPrB45qg3n+zu8z3y+ZJOlmy+ueYXdvkZZprKQR8V88b7jGn4AnDS/SeN/vYZu0LHQJW5/Fe5KHr1hr72gZqN2d81baQ515Ebi9olb5K5WVyKZHmTuY2V4sgsZ4riSOam0oHf22O/tziSyRTbgV/NzeLowGstjmQ5U8kPbp8zxXFkJpMik8eRJJNZVIrdDmxvB/59HEeyyCSZ3COZmcwjxTLpwO/ND7xeOrjtYxncI5lc0pi7jUo+duD3GsvlbMxlY/LSwV9t1N3G3EtjTU025q4xVzTmbmNeGh+N42gsnhqNTVPTmDQ8JmnMzto8oXUY7jJtXpiX1KTxXF5xlN9rU5oi35+P4qjVLXei3OdHOZ0st/lyzXf5yZLmF2VTZa4/Oo/PeX1MRgPOAGTib8OilcPjPKKzcbjra6Vo36s29524P4n97127bF4+70tdtkDSAjOd6fK5vIcmxl1jksYkHzNpTKYxycbkHunAl5C8H7ilbl6mvNyazMTNO5AurhWtS9etDh2jmhp+BuAAG5XE3bsagLveN7Sq/XKpo6qX9vmanuNGWsYvijx6lUvPkx34Sv0YvjlOnJmaJDX90feNJ1xb/wf/hv/USKMGnAHIRAEwV1FGAahvPuaxXj+0esanqrbHr1ycK5z40HmSv6qg+MJI0ZQD08QAcAiPWANQj9y8yDe4+uXSsFx/ObS6Ovfu3zew+MTIm95a1NZXmNnxHPIBHIubUwDqkmtYprmhY6By7nowdnvenas7fjnpfa3paS22lt7msS5nJTiASkSm4dAZqi0TC23MbFvoDKicyx8+cPBvn/TBv7Bh+UXF5tIWua02s6nVyAcgO+JYDXccycQMgLu28SyPOuO+3T0+987VMyZ18C+u7znDrfRhHugCYDKiBvwimYkCYPJtTPfWD3ffIffzNq2e9fMJ7+PO89qLo4VrYpVez+V7ACZrLEcBqEtu2sbhv27sMtmfb1w948cT3UFhsPv0QrHwdTN7Kj93AJPlLp+6X9tD56i2bKwB8KjhmlsjcnnJzS/auKpj80T3UVjf/TKPbdDMnlrNbAAyzLTTzlk7HjpGtWWiALg5BaA+XD7UN+P7E9nQXTayflmfy75m0rRqBwOQYd54CwCljJwCiEzbvKr3jUO1ufTVoatnXDehbQcXTS8MNH/OTC+tdi4AMFEA6lZcirdZlInJjrrk7v+dL4y/ZiLbFvq7nlaIo6+b2dOrnQsApAPryEJnSEImCoCVmh5SVAodA4fh0p5clLtw4LoZeyrdtjDYfbpKusNks5LIBgCSZO4Phc6QhEx8Ld74nmkPS9oXOgcOI/Z/sn0tMwAAFhBJREFU2tA3/b8r3Wz/+iUnq2TflnHwB5Aws3tCR0hCJgqAJMn1m9AR8EfWDa3u+HSlG+1Zv+RJptx3ZDoxiVAA8AdiUQDqmasxf4D1y8fcotdLVtHyTL/zvPa85f+Ly/wA1IoxA1DfzCgAaeLSB4b6pm+paJuBxW3F0cI3TXp2UrkA4FDNLc0NefzITgFgBiA13HVvyfavqmibNT35gvI3SrYsqVwAcCh37bCzvrsrdI4kZKYAxN6YUzh1KfLLNveduL+STQotpV6TvSipSABwWA08e5yZAmAUgHRw3zLU13FzJZuMDnYvlPSuhBIBwJG5N+yxIzsFYN/OeyXuBxiauz5QycI/v/X8llJsnzFZJu5ZASBlmAGof4MfnD8itwdC58g237o31/H5SrYodOx9t0nPTCoRAByd/Tp0gqRkpgBIkpvuCp0h2+zDW/pstNxXjw4sWyTpHQkGAoCjykX+o9AZkpKpAmByCkAgLu0ZL8b/Vvbr1/S0ltz/3WS5JHMBwJG4fLxpx3E/C50jKZkqAO7+w9AZssrk39z8vpllX0pTbCm91cyekWQmADgqty32wtuLoWMkJVMFII4pAKHE8m+X+1r/2enNcr05yTwAcCyNPmucqQJw5zWzfif37aFzZFE83lx2ARjZPeuvZXZ8knkA4NgiCkCDYRag1lw/23ztcVvLfblJlyUZBwDKETMD0FjcKAA1Z/puuS8d6V9+jklnJhkHAI7FXd6WKzbsFQBSBguAZBSAGnOp/OtoI39rglEAoCxmuscWD+0OnSNJmSsAuVI8FDpD1rj7g+W8bv+6pfPl4n7/AIJzaVPoDEnLXAHYcM3M+yT9JnSOLLEoKuv8f2TRAjNZ0nkA4Jjc14SOkLTMFYCDGv4HmyYllcqaAZCJ6/4BpIJFUcMfJ7JZAGJr+B9seriPaMZDZb6YAgAgPNcDrUvu+FXoGEnLZAHw3NgPQmfIDNej5d7/380pAADCs2zMEmeyAAz1zb7f5Q3f7lLB7OEKXvz05IIAQHncYwpAQ3P7QegIWeCusu6jvfuO7jkmTUs6DwAcU5yN40N2C0BGpnhCM/NSOa/L5cebk84CAGX4bduy/ntCh6iFzBYAt/wayT10jobnKqsAWCnHY38BpMH3QgeolcwWgE19xz3kEjcFSphbmQWgKaIAAAjP/RuhI9RKZguAJJnsptAZGp25lVUAFFMAAITl7vtabPy/QueolUwXgNgoAIkrdwYgHqMAAAjL7DbrGhwJHaNWMl0ANvW1/4/ct4TO0ci8zDUAyjMDACCsyP1roTPUUqYLgCS5KVM/8For9yoA4xQAgIBcXmz2+Fuhc9RS5gtAZOI0QILKngFw5ROOAgBH813rHtgTOkQtZb4ADPbN+KFL94XO0bCsvEWA5uPMAAAIJ2PT/xIF4DFfDR2gUVmZMwBjOU4BAAjDXWOj+dabQ+eoNQqAJI9LnwqdoVGVfR+A2CgAAMIw3dze+b1HQ8eoNQqApE2rZ/1c8g2hczQik+KyXugUAACBxPpE6AghUAAel8k3QNJcZV4FkCtRAADUnvu9rUvXfSd0jBAoAAeN2/4vy7U7dI6GU+5VAJwCABCEfdJMmXwuDAXgoM19J+6X+RdD52g0VuZVAJwCAFBrLi+VbOzToXOEQgF4AjNOA1RbufcBsFxMAQBQW263Tu0afCB0jFAoAE8w2Dfjh+76YegcDaXMqwA4BQCg1sziTH/powAcIjJdHzpDIzEvbxGgxJ0AAdSOS79sWbL+ltA5QqIAHOKkX7R/yeV3h87RKMq9DwBrAADUlOm9ZmVeptygKACHuPFGK5n0vtA5Gka5awAiCgCAmrmvtWn/F0KHCI0CcBh7rOMzLmV2YUg1lX8VAIsAAdSGu66zszaPhc4RGgXgMLb02ajc3x86RyMo9yqAkosCACB57g+1jkafDB0jDSgAR1CK9t8g9+2hc9Q7K3cNAKcAANSC2fV2ztpC6BhpQAE4gs19J+53M64ImKwyrwIwTgEASJr7oy1x6d9Cx0gLCsBRRHt2f0iu34bOUc+4CgBAWris17oH9oTOkRYUgKMY/OD8ETe9PXSOemblPguAUwAAEuTSz1sfOJ5v/09AATiGoas7bnRpbegcdavcqwC4ERCARPk/2ctvLPfzKBMoAOWI43+Ue6ZvGDEJZf13M04BAEiIu3+jrav/u6FzpA0FoAxDq2f+WKYbQueoS2WfAmARIIDqc9eoLPe20DnSiAJQpnHLrXBpOHSOeuNW5rMAmAEAkAj/cFvX2l+HTpFGFIAybe6bvl3Sm0LnqDdlLwLkRkAAqszdf9Fq472hc6QVBaACQ1d3/IfkXwydo66UOwMQOQUAQNW4azRS9ErrGhwJnSWtKAAVGi/6G7k3QAU85+W9jhkAANVjpqtalt5xV+gcaUYBqNDm983cFUfxq7gqoDxmXlYBcNYAAKga/37LknU8z+UYKAATsKlv5h0uuy50jnoQu8qbARAzAAAmz107Shr/W7OyP3syiwIwQaWH21e4fH3oHKlX7l9CYw0AgMlxV2wWv3pq1yCPcy8DBWCCNt9gYz4aXSD3/wmdJc2szBsBSWbJJgHQ6Ex+WWvX+m+GzlEvKACTsOm97Y+WIvsLd38kdJa0KvsUgIsCAGDCXP7h1qX9Hwmdo55QACbpzr6Oe6LIXiLX/tBZ0qj883BOAQAwIS59vXVJ/1tD56g3FIAqGOzrGHLFr+DKgD9m5c4AGDMAACrn7kOtGnuFWbmnG/EYCkCVDK2aebOZ/a27j4fOkiplXgYoUQAAVMblm8Zaci/iZj8TQwGoosGrO75gil7K6YDHebmLAJ1FgAAq4P6d1mLuedPPWrs9dJR6RQGoso2r2m+LZee5+47QWVIhLvtaXAoAgLK4+1da2ne82M5Zuzd0lnpGAUjAplXtG9zj5S5l/lpUi1gECKCqPt7a1f/XdsaW0dBB6h0FICGbVs/6eTQ+3inpe6GzBFXuDACLAAEchbv2u/ubWrvWvYkFf9VBAUjQ4LWzH9h4dfvz3f0ydy+EzhNCHJW7CJA1AAAOz+WbzEvPaVva//HQWRoJBSBx5kOrZnxIUW6hS5l7MpWVOQNg3AgIwCFcXnLX1a3FXFdr98AvQ+dpNBSAGhnqm76l9FB7p1yXyz0zq1ZNuTKn6lgDAOAPfC/n0ZK2pet67Zy1XF6dAApADW2+wcY2rup478j+wilyf5vkW0NnSpqVewqANQAAJLn8llIpXtLate685qV3bAqdp5FRAAL4yQfm7du4asb1rdZxqlxvkutnoTMlpVT2ZYCsAQCyyuV73f3L5vactq7+F09dtn4wdKYsyIcOkGVr+6wg6eOSPn7WlY+elMtF50v2Fy6dZ9K00PmqoezLAJ05ACBL3LVF5rfJdVtr+451XNZXexSAlLjzmlm/k/QJSZ9YeKk35Z40fLpZ7gRZfLy7zTPzeXLN8jqbtclF0X1lvpRzfEH5Bnf9NnQKNB6TRtz0kLm2mkUPlWJt9Wj0nqlLBzN/n5TQKAAptPkGG5P044P/ywQ37WcCIBxzfaR1af+XQucAUDt19W0SAABUBwUAAIAMogAAAJBBFAAAADKIAgAAQAZRAAAAyCAKAAAAGUQBAAAggygAAABkEAUAAIAMogAAAJBBPAsAgFz22sL67ueGzpFVLTZ+mXUNjoTOgWyhAACQTOdJdl7oGJlVbHmXJAoAaopTAAAAZBAFAACADKIAAACQQRQAAAAyiAIAAEAGUQAAAMggCgAAABlEAQAAIIMoAAAAZBAFAACADKIAAACQQRQAAAAyiAIAAEAGUQAAAMggCgAAABlEAQAAIIMoAAAAZBAFAACADKIAAACQQRQAAAAyKB86AABUm7t2y7TV3Ke47HgzNYXOBKQNBQBAXXP5Xslu99hvtig32Nq890E7a/P+3/97l+0dWDKnxfKnxPLz3e2lZloYMjOQBhQAAHXJXf8TmV/VsvO4b9gLby8e6XVmcmnDI5IekTQk6ep9gz1Pjkrxm2X+FpO11iw0kCKsAQBQb7a563+3jkbPbOnqv/FoB/8jmbp47f1tS9e9M45yT5X0KXfFCeQEUo0ZAAB1xO8YHdf/mr68f1s19jZ18dr7Jb22sGHpf3ps/2Fm7dXYL1APmAEAUC8+3tI8cl61Dv5P1Lpk/W0WRUvk/utq7xtIKwoAgNRz19WtXeveZGdtHktqjNYld/yimG9ZTAlAVlAAAKSaS19v7Vr37lqM1d75vUcVRS919121GA8IiQIAILXctaU1Lv3tgZX8tdG65I5fWOR/zcJANDoKAIDUcrdLrHtgT63HbV2y/jaTf7rW4wK1RAEAkEou/+qU7js2hBq/5PFKd+0/9iuB+kQBAJA67hqTcu8KmWFq98CDMv9AyAxAkigAAFLIv9nWtTb4avyxcf0fl5dC5wCSQAEAkDpufnPoDJI0fXn/NnPrD50DSAIFAECquLzUptK3Qud4nH8tdAIgCRQAAKli0pB1De4IneP3oui20BGAJFAAAKSKy+4NneGJWqZtv8+9dvchAGqFAgAgZfzB0AmeyM7YMmryR0PnAKqNAgAgVcyUqgIgSS5LXSZgsigAAFLF3VJ38x2TRkJnAKqNAoCUcM6x4gDXvNAR/oglnGlaE+9/1BwFAKlg0nDoDEgHS/pgWyF3mbuOT2z/8pIWfrfmzzsAKABIhVj+UOgMSAeXnxA6wxPt2dwzy0zNSe3fpEfMePIgao8CgFQwy20NnQHpYLKz3dPz2dQ8Or4kyf27i/c+gkjNXzJkWxQbH4J4zJNGBpYtDh3icdGFie7eKAAIgwKAVCjk83wI4vfM9NLQGSTJv3JxTu4vSXIMYwYAgVAAkArtnd97VNJ9oXMgHUy62Nf05EPnKJ704J/LbHaSY3ikHya5f+BIKABIk1tCB0BqnFpoLl0aMoC7zGNbnfxIOZ41gCAoAEiP2CgA+D0z6/X+rmmhxh8d6P4rM3tOkmO4+y/alqy9N8kxgCOhACA1WqLRNe7ccQ2/96RCFK0MMbD3d01z6ZrkRzK+/SMYCgBSw7oGR2S+JnQOpIjb2wr9y/6ypkO6okIUfUlmT0l8MHMKAIKhACBVzKJPhs6A9DCTuflnihu6n1WrMQsDy95vshfWYKh7Wou5H9RgHOCwKABIlZbFd9zk0s9D50B6mNlUj/WtWpSAwkB3r5kuS3ocSXLpWjtn7XgtxgIOhwKAVDGTR7JrQ+dAypidFMcaKGxYflESu/eBxW0j67u/LNm7k9j/YdzX2rz/szUaCzgsCgBSp/n+uV+W+69D50C6HJgJ8P8cGVj2Xl/Tc1y19ltct/TMgjetM7OXV2ufx+LSe+2szWO1Gg84HAsdADickfXdrzGzT4XOgdR6xF1Xt7bsv2GiB9KRDT2nmMer3PVKsxp+Frrf39K+4zQ7Y8tozcYEDoMCgFRyV1Tc0L1GsuWhsyDF3O91sy/H5jdNWdw/ZCY/6ssHF00fLTW/KDa7UK4LknzK35FD+Etal/Z/q+bjAoegACC1Rjb0nCKPf2JSsJvBoI64HnDzQXN7UKatbtqq2KdIdoKZTpD8FHdbGuSg/7hPtHatC3qHQ+AxFACkGqcC0EDuaSlGZ9o5a/eGDgJIFADUgZGB7q+b7ILQOYCJclfs5sundPWvD50FeAxXASD1xr10qdx/FzoHMAmrOfgjbZgBQF0oDHaf7iVbZ6aZobMAFfp0a9e6vw8dAjgUMwCoC62L+7e424vdtT90FqBcLn2rpRix6A+pxAwA6kph/bIXufnXTZYPnQU4Oh9o0fh51jXIEy6RSswAoK60Ll13i8sucT/69d5ASC79vKWkF3PwR5pRAFB3pnSt+0wkf4XLi6GzAH/EtX4019xjy/qHQ0cBjoYCgLrUsrT/Sx5Hz3fXjtBZgMe49KWWXVPPbe/83qOhswDHwhoA1LXCxu4/Vcluk3Rq6CzINnd/T2tX/5XHuh0xkBYUANS93Xd0z2nO2Tdl6gydBdnj8nHJXt/Wte6TobMAleAUAOre9OX921pGo+e69BEWB6Km3H/jbj0c/FGPmAFAQxlZv+wFZv5pyeaFzoIG5/6ZFo/fbN0De0JHASaCAoCGs2vjubOax0c/YaYLQ2dB43HXDpP/Q+vS/v8MnQWYDAoAGtbIwLLXSv4hkx0XOgsahOu7JRt79dSuwQdCRwEmiwKAhrZvYPGJkef/xcxeEToL6pjrATO9s6Vr3RdCRwGqhQKATNi/flmXSR8x08LQWVA/XF6U6/rWqW3X2LO/sy90HqCaKADIDHdFhQ3LXmPStZKeFDoP0s3dvyGP39rWPXB36CxAEigAyBwfXDS9ELdcIfmbWB+AQ7lrs1xXtHWv+3boLECSKADILB9YPLPgTf8o05tNmhE6DwJzrXXXtRz4kRUUAGSe93dNK0bRG+R6q8zmhs6D2nL5rS5dO6Wrf33oLEAtUQCAg3xNT2uhOX6tyd8ms6eEzoPkuHxcrq9GHr+3pXvgR6HzACFQAIBDuMsK65c9X5EuketlZmoKnQlVc7dc/288H/37cZ1rHwodBgiJAgAcxcEHDf2dmy4x6Wmh86ByLi9KdpNcn2jtWreGp/UBB1AAgDLtX79seWS6xF0XmGl66Dw4OpffZbLPFnPNn2vv/N6jofMAaUMBACrkPzu9ubhnxrmK7SKZXSBpTuhMkNwVm7RBkX/NzW5qW7zuN6EzAWlGAQAmwb9ycW7kyVu7TXaRuV8os5NCZ8oSl4+ba42bfa2Ui77OeX2gfBQAoIpGB7sXxrHOlds5bt7NjYaqz6Vfmvsas2hNcyn+ji3rHw6dCahHFAAgIb6mJz/S5GdHUXyO3M5xaamZ2kLnqkN36+ABf2zM1xzXs25r6EBAI6AAADXiPzu9eWTn7M4o8sUuLZB8gdz+1ExR6Gxp4dKwyX/kbndFph+W8rpjyqJ1vwudC2hEFAAgIL9z4ZSRwtQzzeIFJi1w2QKZn2GyltDZEud6wE13SX6Xye9yy9/VtmTtvaFjAVlBAQBSxtf05AtNYydLudMU6VTJT5PbaZJOk/mp9bKu4MCqfH9Asrtlukfyu83sbiuV7m7y6G7O3QNhUQCAOrNnw/Pm5krjp0byEzzSHHPNdvPZcs0202x3O/ir5phpSjXHPnhQ3+HSNjNtd7ftB3717RZpe+y+3WSPmOfubdnV9ht74e3Fao4PoHooAEAD81vPb9HMHS17Rptbcvnx5qiUb7F81GLjpWbLRS3jFjdbbC2Kosg9HlUcjeYiL8qjUY+8GMdjo3G+uTi1VBzVlGlFnfmdETPFof9cAAAAAAAAAAAAAAAAAAAAAAAAAAAAAAAAAAAAAAAAAAAAAAAAAAAAAAAAAAAAAAAAAAAAAAAAAAAAAAAAAAAAAAAAAAAAAAAAAAAAAAAAAAAAAAAAAAAAAAAAAAAAAAAAAAAAAAAAAAAAAAAAAAAAAAAAAAAAAAAAAAAAAAAAAAAAAAAAAAAAAAAAAAAAAAAAAAAAAAAAAAAAAAAAAAAAAAAAR/f/AYGSGo1CN4t4AAAAAElFTkSuQmCC;" parent="tH_dNCv8WW0gVUp8uDPe-9" vertex="1">
          <mxGeometry x="29.628333333333334" width="93.5" height="93.5" as="geometry" />
        </mxCell>
        <mxCell id="tH_dNCv8WW0gVUp8uDPe-11" style="edgeStyle=orthogonalEdgeStyle;rounded=0;orthogonalLoop=1;jettySize=auto;html=1;endArrow=none;endFill=0;dashed=1;dashPattern=8 8;" parent="1" source="tH_dNCv8WW0gVUp8uDPe-10" edge="1">
          <mxGeometry relative="1" as="geometry">
            <mxPoint x="130" y="840" as="targetPoint" />
          </mxGeometry>
        </mxCell>
        <mxCell id="tH_dNCv8WW0gVUp8uDPe-10" value="" style="shape=image;verticalLabelPosition=bottom;labelBackgroundColor=default;verticalAlign=top;aspect=fixed;imageAspect=0;image=data:image/png,iVBORw0KGgoAAAANSUhEUgAAAgAAAAIACAYAAAD0eNT6AAAAGXRFWHRTb2Z0d2FyZQBBZG9iZSBJbWFnZVJlYWR5ccllPAAAAyZpVFh0WE1MOmNvbS5hZG9iZS54bXAAAAAAADw/eHBhY2tldCBiZWdpbj0i77u/IiBpZD0iVzVNME1wQ2VoaUh6cmVTek5UY3prYzlkIj8+IDx4OnhtcG1ldGEgeG1sbnM6eD0iYWRvYmU6bnM6bWV0YS8iIHg6eG1wdGs9IkFkb2JlIFhNUCBDb3JlIDUuNi1jMTM4IDc5LjE1OTgyNCwgMjAxNi8wOS8xNC0wMTowOTowMSAgICAgICAgIj4gPHJkZjpSREYgeG1sbnM6cmRmPSJodHRwOi8vd3d3LnczLm9yZy8xOTk5LzAyLzIyLXJkZi1zeW50YXgtbnMjIj4gPHJkZjpEZXNjcmlwdGlvbiByZGY6YWJvdXQ9IiIgeG1sbnM6eG1wPSJodHRwOi8vbnMuYWRvYmUuY29tL3hhcC8xLjAvIiB4bWxuczp4bXBNTT0iaHR0cDovL25zLmFkb2JlLmNvbS94YXAvMS4wL21tLyIgeG1sbnM6c3RSZWY9Imh0dHA6Ly9ucy5hZG9iZS5jb20veGFwLzEuMC9zVHlwZS9SZXNvdXJjZVJlZiMiIHhtcDpDcmVhdG9yVG9vbD0iQWRvYmUgUGhvdG9zaG9wIENDIDIwMTcgKFdpbmRvd3MpIiB4bXBNTTpJbnN0YW5jZUlEPSJ4bXAuaWlkOkJBRDVEODA1RDY4ODExRTdBQUVERUU1NzYyRERBOUVGIiB4bXBNTTpEb2N1bWVudElEPSJ4bXAuZGlkOkJBRDVEODA2RDY4ODExRTdBQUVERUU1NzYyRERBOUVGIj4gPHhtcE1NOkRlcml2ZWRGcm9tIHN0UmVmOmluc3RhbmNlSUQ9InhtcC5paWQ6QkFENUQ4MDNENjg4MTFFN0FBRURFRTU3NjJEREE5RUYiIHN0UmVmOmRvY3VtZW50SUQ9InhtcC5kaWQ6QkFENUQ4MDRENjg4MTFFN0FBRURFRTU3NjJEREE5RUYiLz4gPC9yZGY6RGVzY3JpcHRpb24+IDwvcmRmOlJERj4gPC94OnhtcG1ldGE+IDw/eHBhY2tldCBlbmQ9InIiPz5PxUNFAAB3MklEQVR42uy9B5Rd13WmuV+OlV/lgCrknEGQBEiBWaRISlSyPB6FcRi35OkZd9vLM3ZPW1ZPj91ePWO7x6GdZbuDLctWpCiRIinmACaQIAiAyEBVoXLOL835970PKIIIFV5+/6d1VIXAQtU59579n312cHzxl58WQkjeEzCj5gYjZIbPDK/9cSGfg1kz5uyPC/l80ozBG4xpLhkh+Y2bU0BITvGY0WZGhxnt8z42XGHcAxn8HoL2SCfTVwiCHjPOmnFm3scLtqgghFAAEFJ0OM1ovcK4z//YbP+dYvRYtNjjWiTM6L5CFMz/eN7+O4QQCgBC8hqc1LeascX+iLEpA6frYhJHKZFw2zW8CEfMeMceh+2PA5w6QigACMkFuD/fcBVj38ipSbsXYbc95nPxCkGAcVR4nUAIBQAhaWaVGfvM2G/GLWas57uTUxrtcd+834uZccyMl814wYwXzTjFqSKEAoCQxbwTO+YZfHxs4LQUxLpttscv2L/XYwuBlCB4yxYKhBAKAEKk3D7Vpwz+XuGdfbEA4fYpe4ApM16dJwjgLRjjNBEKAEJKAwSe3WTG/WZ8VKz7ZSenpSSAsLvDHgAZBq+b8SMzfmjGQWHWAaEAIKToToL32Qb/XjOqOSVknhjE+E0zhsx4whYEj4t1hUAIBQAhBfZc32obfIztZjg4LeQGQBh+zh5JMw7ZYgDjJWH8AKEAICQvqTDjE2Y8bMbdYt3tE7JUIBh32OPXxYoVeNKM75nxHTNGOUWEAoCQ3FFmG/yfEsvF7+WUkAwBQflJe6DeAK4IvmELgnFOD6EAICTzoOHNg7bRRyCfn1NCsgyE5kP2mBErgBBi4FGxGiURQgFASJpARbgHbKP/MWGaHskfIEAfsQfSDH9gi4HHhB0RCQUAIUsCEdqI2P+CfdIKc0pIngNh+hl7TJjxfTP+TqzMAqYXEgoAQm4AGsP8rBk/J1abXEIKEQjWn7YHuhr+lRl/bUYnp4bk0ymLkFzjEiuYDyems2Z8jcafFBFt9jN91n7GH7afeULoASAlS4d90v+fzGjidJASELoP2qPbjK/bnoEznBpCDwApBTxmfFqse1F0a/s3NP6kBGmyn/1T9rvwafvdIIQeAFJ0RMz4ihm/ZEYdp4MQBQWH7rFHnxl/bMafmDHAqSH0AJBCZ7W9oSEQ6ms0/oRckzr7HcG78p/NWMMpIRQApBBBLf5vmXHcjC+LlctPCLkxeFf+hRnHzPi2WG2qCaEAIHn/PKFUKhqnoN/6I3zGCFnW+4T+Fs+b8YpYcQLMHiAUACSvQAGUr9in/X824xZOCSFpZa8Z3zTjhBn/UqyS2IRQAJCcgWInvyHWnSWCl1ZzSgjJKEid/f/MuGDGbwq7XhIKAJKDE/+vipW//H+bUcMpISSrVIkVMIh38H+nR4BQAJBM4zPjfxUrd/k/ipXaRwjJHdVm/AczTpvxr4TdMQkFAEkzaH/6Zdvw/yczGjglhOQVSCH8Pfsd/Yr9zhJCAUCWDApFoVTv+2Ll8jdzSgjJa1BhEPE4CBb8eWGxN0IBQJbwXHxerDzkvzRjBaeEkIICDYj+wn6HP8+9nlAAkIVwwIw3xepjvorTQUhBs8p+l9+0321CKADIh0B6EXL4f2LGNk4HIUXFNvvd/mf7XSeEAoBoLv9vm3FUrCp+hJDi5ZP2u/7b9rtPKABICYIuZF8SK1jo18VK8SOEFD8++50/Ye8BDk4JBQApHfaZcdCMrwtT+ggpVRrsPeCgvScQCgBSxCAy+O/NeMGM3ZwOQoi9F7xg7w1tnA4KAFJcoIMYSvfi7u9znA5CyFX4nL1H/Kqw6yAFACkKtpvxqlile4OcDkLIdQjae8Wr9t5BKABIAYKa4KgR/poZuzgdhJBFsMveO/6DsL8ABQApKA6Y8Y5YXcJYCpQQshTc9h7yjrCIEAUAyXsqxSr/+bQZazgdhJA0sMbeU/7C3mMIBQDJM1Dg4z2xGoAwr5cQkk4c9t7ynrBgGAUAyRuQy/stsUp8NnI6CCEZpNHea74lrCFCAUByysNmHDbjEU4FISSLPGLvPQ9zKigASHZBqs6fmvFdMyKcDkJIDojYe9CfClOMKQBIVtgpVmvPX+RUEELygF+096SdnAoKAJK5tfo1M14xYx2ngxCSR6yz96Zfo12hACDppcWMJ834XTM8nA5CSB7isfeoJ+09i1AAkGXyGbEKcdzBqSCEFAB32HvWZzgVFABkaYTFatX5j2ZUcToIIQVElb13fd3eywgFAFkguE9Dj+4vcSoIIQXMl+y9jHFLFABkAXzCfmE2cCoIIUXABntP+wSnggKAXHstflusClvlnA5CSBFRbu9tv027QwFAPkiNGT8049eFdfwJIcWJw97jfmjveYQCoORB8Yw3zLiXU0EIKQHutfc8Fg6iAChpvmTGi2as4FQQQkqIFfbe9yVOBQVAqeE140/ESpHxczoIISWI394D/8TeEwkFQNFTb8YzZnyZU0EIIboXPmPvjYQCoGhBOgzqZd/CqSCEkEvcYu+NTH+mAChKUB7zJTPaORWEEPIh2u09kmXPKQCKii+Y8bgZlZwKQgi5JpX2XvkFTgUFQDHwW2b8rbCLHyGELASPvWf+FqeCAqBQQVTr35nxVU4FIYQsmq/aeygzBCgACoqUG+vznApCCFkynxden1IAFBAdYgWyHOBUEELIsjlg76kdnAoKgHxmlzCVhRBC0k0qhXoXp4ICIB/ZZ8ZTZtRxKgghJO1gb33ajP2cCgqAfOIuse6pKjgVhBCSMcrtvfYeTgUFQD7woBk/MCPEqSCEkIwTNOP7ZnycU0EBkEs+a8a3zPBxKgghJGtgz/0nM36aU0EBkAu+ZMZ/Fxb4IYSQXOA247+a8fOcCgqAbPJLZvy1GS5OBSGE5NSG/bkZv8ypoADIBr9mxh+Z4eBUEEJIzsFe/Ptm/J+cCgqATPLvzPhdTgMhhOQd/xf3ZwqATPE1M/4tp4EQQvKWX6MIoADIxEP1m5wGQggpiP2a1wEUAGnhK1SUhBBSUOA6gIGBFADL4ktiBfwRQggpLH5PmCJIAbBEUOTnL4XR/oQQUohg7/4zYbEgCoBFgvK+KDDBPH9CCClsG/d3wrLBFAALBI19UGKSFf4IIaTwQcXAbwgbCFEA3AC09P2usLY/IYQUE9jTvyNsJUwBcA12Cbv6EUJIsRK09/hdnAoKgPl0mPGYGRWcCkIIKVrK7b2+g1NBAQAqbVVYx6kghJCip87e8yspAEobrxnfNmMD3wlCCCkZNth7v5cCoHRBnv8BvguEEFJyHLBtAAVACfJbZnye7wAhhJQsn7dtAQVACfEFM77KZ58QQkqer9o2gQKgBLhDStztQwgh5AP8pW0bKACKGAR+fEtY5Y8QQshlPLZtKKmA8FISAPVi5X9W8lknhBByBZW2jainACguUul+7XzGCSGEXIN2KaH0wFIRAL9vxi18tgkhhNwA2Io/oAAoDhDd+RU+04QQQhbIl834EgVAYbPdjD/ls0wIIWSR/GczdlIAFCZVYkV1BvgcE0IIWSR+24bUUAAU3s/134QdnwghhCydFWb892K1lcUqAFDZ6X4+u4QQQpbJvWb8ewqAwuBjZvxbPrOEEELSxP9hxicoAPKbVWb8VzMcfF4JIYSkCdiUvzVjHQVAfoJgPwRssNIfIYSQdFMuVpGgMAVA/vF7ZmzlM0oIISRDoFfAH1IA5BcPm/Ev+GwSQgjJMF8y4zMUAPlBoxl/xWeSEEJIlvgzM1ooAHJLKjAjwueREEJIlkChub8rdBta6ALgX5lxD59FQgghWeYOM36VAiA3bDPjd/gMEkIIyREoEFSw/QIKVQAg5e/vpUR6NhNCCMlLPGKVCg5SAGSP/1esdAxCCCEkl6A40O9RAGSHh8Tq1UwIIYTkA78oVjo6BUAGaRCm/BFCCMk//sq2URQAGeJPzKjlc0YIISTPiNg2igIgA3zSjEf4jBFCCMlTHrFtFQVAGkGDnz/is0UIISTP+SMpkKZ0hSIA/qNYJX8JIYSQfKbRtlkUAGnggBk/x2eKEEJIgfBztu2iAFgGfjP+XKya/4QQQkgh4LBtl58CYOn8lhlr+CwRQggpMNbYNowCYAlsN+NX+AwRQggpUH7FtmUUAIvAZcZfmuHm80MIIaRAcdu2zEUBsHDQ5ncXnx1CCCEFzi7bplEALIA2M77GZ4YQQkiR8DXbtlEA3IDflQJtrUgIIYRchaBt2ygArsM+Mz7HZ4UQQkiR8TnbxlEAXAXkTf4BnxFCCCFFyh9IHtW1yScB8EUzdvP5IIQQUqTstm0dBcA8wmb8Dp8Nkk8kkkmJxRMyF03I9ExMP5LcY5ZF4nFrbRKJpP6akALid2ybl3PyJc/+N8xo4HNBsmtIksaAiBqRhH5uDWNX1Efn87kkFHTrqCjzythEVLp7piTgd3HycinMzKL5vC5xOBwqzGbnYioIsGj4PWfqo9P+3Jn63GF+n/NHck6DbfN+gwJApMOMf81ngmTyJJ9M2Abf2Ilkwjoyuj1O8RtjDmPi87j0cwyv+dzrdUo44JGysEcqK3xSXxuQnr5p+clL3dLVMyFul5PGJAfEzdqtai+X1e0Vumaj43MyMxtX7wzEG7wCUfP57FzcDHxuPuLX+Dvm92JGKDiuEAqOeR8JyRKweX9hxplSFwD/Dw5bfB5Iek719keBpbc2dhhrt9chLnx04TRoPrqdUl7mkbqagESqfFJT5Zc6Y+QbaoPmc5/+dx8SEhtEqiq88jffPC7T03H9t2g0suuxcZn1++iBNrl5Z51cLZZq1hj8sdGoDI7MyODwjIyMzZqPs/r50MisTExFdd0SRihADMRiCfUexG3vj3oR7K/LtSUZxGfbvk+VsgA4YMYn+SyQNJoJ3eChAxJmY4e7Hqf3lsawNDWEzMegNNQFpbrSLx4jCHBCxEbvMadJp0bEXPskiD9fv6ZSHrq7Xb7347MyORlVIUGy4MUxxtnjcUpbc5m0t5bJtQKp4RWI1GD4zHNQoQY+Zv5buP8hAGPxuBEFc9I/OC0Xuiel8+KkdPdMSl//tIyb9dS1d1hegmSSXgGSUT5p28BnSlEAYOdk2h9ZskHACS6Ok1wsqSf+GmPUV7SUSWtzSFY0lanhLyvzitn31Qvg97vF73Wp0U5t7G734l6ByjKfPHBXqwwMzcgrb/ZoXICHIiDjwMUfCnrlk/d3SKQ6cN2/a62tZby9Zr298/7MY9Y7UOuW2iq/rGorl6mZuMRwfWBUI+IJ+gZn5PyFcTnfPS7nuiakb2BG/wyeo8seJKoCkjZgA3diSys1AfAzZmzj+pMbnunNcT6mht6638WvK8q9ssoY+6b6oJ7sYfzDIbcEA269s4ehxj1+Opmajsmxk8NytnNcTp0d1e/FRWOQcbDuCMK8aUetbFlfnZ6Nz21dA4WCng/8fkdruaxfWSHDo7guiOma4+rgwsUJjf240DWpHgR4FPB8pYQBPQVkiWyzbeF/KSUBgH/3q1x7ci2DH08YY29O9nGz+WOjrqn0SU21X+oiAXXfV1d4pbYGxj+ov5cpQ9zTP2U2/il1GXf3Tsrp8+PS2T2hJ1Ld/M2/yyy0TGPNM65r3nt/2Ky734xARv4lxBhUV/l1zOdi35Rc7J2Q3oFZFQeDQzP6bPSZ52LUCILUFQW8QfQQkEUCW/j30LqlIgC+ZMYqrjtJcTkVz7prDwU8Um5O+RVhr572m+tDeve72pzOykOejH0fM7PmxDc8q9HlCB57//SIHHl/SO+L5+YSmiWAjd7rsbwLNP5Z2KTcDpmaickb7/TLeXMCX7UCWQDlEjGCEOtRFvapIMyk4W2sC+pIMTI6J8dODcuZC+PSY8QBgg3HxqNWVsJMXBxOYeohWSirbJv4l1mX1l/85aez/W/iSu6E5GFnJJL9k75lQh16mvZ4jWF1mw095DbGvly2baqRzeurJejPnE7Fvz5rjL6miUWTcuLUiLzyVp+8d2pIRkejanwQP4DNnBt5rp8XK1ofUfu4fgkG3RrzsXF1lWxaVy2N9UHz/FjiDPEe2VwveATeODIg7xwdlC6IxaiVmhi10xOZZkhuwHkz1pgxV+wC4Ctm/DHXu8Q3c7Hy8XG3jzx8bOS7Ntcaox+R2mqfdXoyY37AXiYYm4zKG2/3yaEjg3L63KhMTscveSRI/mMV/BE9aft95jlqLZOdWyKyfWNEqit9KhiyEaeRilOJ2nEqx06OyFvvDsjhY0MyNDyjXiOKAHIDfsmMPylmAYCLtVNmNHGtSw8YVRRnQeQ+quttWFMlO43RX7mizJz6PWYDd0t5mTfjm+TI6Kxuzu8cG5aLfZMyMxOTyamYFpRBNkHKdUsKwStwucDTpeqNAbcG91UZAYBI/11ba43AzG7lVRQdQoYIMgu6Lk7K6+/0y+HjwzIwNK1ZKT6vW+MNCJlHt1jXATPZ+gezHQPwZRr/0gInMNyd4269qtwnOzbVyPrVlequjVT5pbkhpO7aTIP7/MPHBzWAr7d/WoO6kPI1PR0Tj9uK5LY2ZG7KheUBsL0A9q9RAXByKipxs74IyDvfOS7vnRiS2uqAPmvrjehE/ECmQfphpNoqGd3SEJbmxpDcsqtBBQDiSt45NiT9A9P69+ABoxggtm2Ejfz9YvQAhMw4bUYd17nYT2VJvf+M24V4WpvC0toclpb6kKxqr5C1KyuyEimN6m/njcG/2Dsl57sm5MTZESMAJrV+gMe+Ky6EiG3Mp3XStYMOk0lJhU/M//WlpjhJuxLiFSflqxnPD/+eXQfPYUuhK36tFRLnfZ7PjhLMG2pEQBTA+4Rqj2tXVmopYQQQIn10ZWu5XQAqe+BZPH5qRM51jevnEKVIOcSziNRCep9Kmj4zVpoxWWwegP+Fxr+40eI8MaRDOTRNq9Zssiitu92c+ndvq71qed10A7crUvbGxufMyW9Y3nhnQIu64HvDFQNGrvfXZPJyqeJLhvxKo24bMKuC3WUPBe6zHfadt9N5ueHNpc81WNH6vUtG3Zn69Qd/cKtHwmVlkLTX8IMjJUCsJkm4vkl9TK13cl5N5GuJhVSJ3WzOPf59PIseO2MDVzyvHeqTl9/olYpyj2xcW21dDxiBWhb2auyJIwuCsM2IYQxw6L0BeevwgDaZ6hue1uwCXB+4mU5YqtTZtvJ3i8kDAJ8bmh5Uc32L8cRvq0m40s1xqqE2IDfvbJB9e+o1hS/TTM/GtNkP0vfeOGw2+Df7zMlqXH8PDX9yVaznUpLDFafuDzWjmWfEHala9A7rP0aJYtxnIxMiEDTDblQEo4agN7/Xfelz3H9buehobnS5PoH+nufDJ8sZY2gQsOaYJwhgJJHGhmsbRLLPzCKwLa7FePD7KIwzbf7OlN2Fb9qcXBH4dslDkWq4NK/x0gd+L5GalPkKJfsXL1ZL4YTGpMAbsHd7rdy8q0Ea6gIS0Hl0Z9UzgHmFMHn+4EXp6pnUZzcKpcV+E6XIkFhN8saKRQD8phlf47oWp/FH9LPbGK/NG6rl3o+06h0rXOwwRJncvGBGosYYHXy7X1587aLmZMMYpU6tOT/dJ+e578UyhjDSlUYUVZb7pKzMozUNKiv8aoQQtR42vw6gZLFv/t2wfdK2v76eru08czeEhMtx2VV/PYPquJpCubpoSdoeCPRTgDCIq8W8bLrx78MrkfL8wM0OIzYxiTGn1fNQMAd58fDG4OOwOd2Ojs1a/RecTlvszO/IJ1nxEl3586r4clieAqwD7ur339QoFWZ9stXxCf8Mnl0IrVPnxuSJ5zrl8HsDel3FSoMlCYoD/btiEAC4+79gRhXXtHjAHT8inOsjAdm3u0F2b6+TirBHas2vs1Eb/8j7w/LKm71yoXtCK7GNTcxpLn+qD3ymNkztJJe87CLXTnJx63N4GpDFgOhzFKZBNblITVBqq3zqCcFJHnEHOPHj24Nx19O6Dy2IHTpv+D1HAe/2qTlJpcOhO1/UjgdJCSJkXaAr37BZN3htcGUzaAQDAuQQrDmp9+Gi84m1tK5A7OuPDMxNak2TWvPfqdcBuCJY2Vauz/a6VZVZnUPMXf/QjEyYZ/rQkQF59pWL0t07JQGfO+3lrUneMmxGq2Q4FiAbMQA/S+NfHGCThGsYpz0U6tmzLaKbY2tjWMvxZhqUXUVe9WlzQkLgFFyluPOHYcDpLZ2d+dQoJFKFZ6yGQ9ZpTLQufYUx7lUVPj0xYuD34Kb3mQ0aJ3dkNiC1MWxEEdLSSqVrYCoOQe/db/BI4DlCW+XxyTkZR8qcFmSyhCW8CRB1EAUDQ1Y732EjEnD1kBIF7nlxEcu5L4emcFltAFUEoKhPb/+kBo8iaBT39ag+uGd7rcaQZBoIwSZUHTQDz9aalZXy/slRef1wv5w6N6p/jmeMMQJFTZVtO/+wkD0AyINB1b8OrmcBG347fx/V+hDNj5MRcvj3bI1kPIUPRuLEmVFN3Tt5dlQFADZmnBCxGacjfepSGeL45Upz+FnDIXNqD7mNcfcZY+9V9zyaDcGw45QIlz2ED6LLU6WBSfqACIAAQLomjDKuEiano+b34yoYUH4X3h8ICMQuaM+Aed6C5RpIPAfW1xWtI7BtY40++8giQHBrNsF78OY7A/LeyWE5d2FcznaNq8fL62EKYRGDuDlUB4wXqgD4tBnf5DoWJnq/H0uoccNptx3V+rbVyr49DRn/t4fshisw+i++1iPHT43q6Qx348s5Tc+/l0/Y1WNwosLXxd07DDxys3Fqx+kL2QwtjSE9BWIOSO7BM9nTN60pnp0XJ+yGPLMasIjrBXgJYLhhIFNX+I5l1OVP3c8jVQ9NqW7dXS8376zXzxvqg1lP20MRq4OH+uT0+TH1juBndrFNcbHyGTP+qVAFwCtm7OUaFiapIC2U6b3/zja5aXtmszjhZsfGPTQ6I8+/elFeOHhRRYDPGOblRvJfMgR26VgEVjm1X7xTT/Ao1tLRViarVlRIS1OIbX4LEAQeopwzgujOdVn1H3Byjs/z7KTE31IzD/Df4mtCMG7dUC0fu2uFFrUK+j2aBZNNUG74h0+fl6Mnhy/9fKToeNWMmwtRAOw343muX+GhQW1mL8EJ+OP3tsvOLTUawJbJ4D78m++9PySPP9upKXyT0zE7An3pQdjzA/awQbqN5a+L+PVEj3vVtR0VGsSI+2r8W16kfzH/umBJZaQgjx7rjfqAw0ZMnr0wJu+fGVEvUnfvtMZ0uD5QN2FpYjJVn2H1inJ58J4VsnFNdkOdEFwJ0Qwv2aNPnZV3j4+oqMm2ECEZ5zYzXsjEF87kBe6vcN0K67SPyH64TevrAnLv7a3aZa2lKazV/DJ26jeGFy7+V9/qk/6BKXX9LzWaPxV9Dhdx1GyM5WG3fv8w9EhNrK0JXsqZLwt79E6fVdeK6xm20k8vC9WycFhF33rzLE/dZnV9HBia0Sp8CCaFtwDpiRAEuOpyuZ12tsH1/52UAZ6eiWtVP1xDrDbPGa7HtqzLTrkTq76DyIa1VVJR4ZW+gWn58XOd2pEQ70Aw4GH6YHHwK5kSAJnyACBw4ZgZjIwqAHBCHp+MalDbTdvrNdp5jTGYCHTLFEj3euvIgJw8M6qjq3dSvw/cvy/E/Z4q5IITEArWYKerqfLJiuawNDdYWQnI40b6XZ0x/DACDu6GxAbXBX1GcGqtgrE56UZMQee4XOyf0msneBAQaY94E/cNguzw3OLqym+EckdruaxbWanXA2hlnW0QF3D0xIgR1L3m47C+S748qH5JlrdFm7FerID6gvAA/Gsa/8Iw/HCZOp1O2bqxWnZsisj+PY3q+s8UOKUcPz0i758e1Q5p/f3T5tTlWFCJXr3njFmnfLhfUVCnutKvJVwrzcc6831rmdWWMk3LI+RaQOxipBgdi8oZYzy7+yZlYHhGBgdn9FSPLITR8ajt8rfEwJVXRPg1gkfxfMLoHjs5LKfOj2qd/01GBKxozl4nQmQpYKD/Bupk4HoAtTK0LLKbBYUKFKdtU79cCB6AiBnn5YZZwCSXwF2OjQunZrjJH763Xe8yMwFO6zhpIW//1TetcqdI8cJp/3pxBZdKy9rR+hAJaCOMfPuKcp+0NoZkdXuFbFhTqQV4CEkXE5NROXxsUAPt8NwiJgUFivD7iDEQu3rg1Roi4blF90s8uzftqJc79zdrvwEEm2YTfB941156vVfrZqCuAn6PaYMFybQZbWYM5LsAYNnfQjj9m52guS4k9x1oldv2NmZkU9CNcCam7tbHfnJeTyTYSH2ehZUI1lMXArXMycvncUq7OdnAtbp9Y0Rqa/xcRJI1ui5OauOet98blE7zOa6drGuo60feI+YAPRz2bKuVR+5baYSqR4Vs1voMQEAbtfK9J87Kc69clIHhaca9FC5pLw+cbgHgMaNT2PUvb4nZtfJvv7lBHrnfbEhhb8aC/AZHZuS7j5/ToCQUcUkkktctra4bqnaYs5rLNDcEZefmGtm6sVZdmk5nUrwe1Ml38j6fZFcwm+cSFQqT5rmbmozKiTNj8sbhfjny/pDWIHA4EHz44euB1PNulRj26BXbvQdatJjUh5oiZRCkLvb0TcmPnrkgz77crdd+zBYoONAquMWMaL4KABb+yeMNDO7L9tYybdize2ttxu764e5/6oVuc1oakP7BGW0Og13wasFUOEFhc8K9fjjokXWrKmTjmmrpMKd9VN+Dyx/3/HRbknwCQX8oT4yP6GXw3skRefvIgHoHgPeKDoypGgQISm1qCMmd+5rllp31Wf6uk1o4CDEKTz7fpf00IAIQ7EgKhrQWBkq3AHjCjHu4RvkDTiDaX9xsRrfuqjcn6ohs3xJRN3wmNsU33unXk9F7ZnNButWVlfuwCSJFDx3hEMEfqfHLmvYKNfhoI1xjRAl6C+C0REih0NM/rVUJIXi7eyY1+O5c57i2TvZ7rTbN8A6kahSsaC6T3dsjsmtznZYWzjaHjw/K8VNj8twrXVowCfE4EC1J1hLKd35sxr35KABQ7/+UZL+1N7kGiPCHux/FblC69M79TVJbnf7YTHgXcJp4/9SIPHfwojZQQVMcr32ySBVoQd40gv5g9PE91ZiTfaM5DW1cXak51IQUA0grRDYA2lNf7Js0Y1qzX3CF4LY7Pk5Px1Qcb98U0doBG5HLn+VAVryXz77SrbE5J06PaiowymHzdi2/z3RmrBKrT8CycW2/+Yvp+sZ+1YzbuT75Y/yx0eDu/O7bWuTj97VLKJDeUzUMPwL8Dh0ZlG8+ekpefL1XNzakRCFwL2lX4IMbFCd6iI+VK8pl7456ufcjLXLX/hbtJlhdxYA+UjzAsCOzZsv6atm6MaJVNPEu+mxPADxf8AbAAHf1TGhgIWIEAgH3pb+bDWDocSUI7xs8Fbiqg4ciaf8hdUBegmWZMCMtJ/d0eQBw1EPqXxPXJ38EADr2feK+Dtm0Nv0lSnGnifvOHzx9Xl54tVs3tvmBefjUaTdgwV3+jk21sn9vgwoSXAMwiI+U2rENHQxfe7tPXjZCGY2MorG4/gG8dMgWWNNRIZ+4v0O2bawWlzO7OfuIwTn0br/8w/dPycjonIoUvqJ5S7dYKYHL7hKYLgHwsBnf5brkwUZjV8j72F1tctvNTdIQCWSkF/3jz3TK0y92Se/glJ70sVvgI+73EcWP+/w9O2pl95Y6qTOfB/0ucwJyM5iPlLQImJqKqsHvH5qRg2/1qvu9u29KBTFSXVF9c99N9fLJ+1eJ3+vM6vcWiyakb2havvv4WfXqTU9HtfgRyUs+bsb3lvtF0lUJ8Be4HrkHhh9uxtv2Nsvtxvg3N4TSLz17JuWxZ87L4feG1P0PTwO8ATD6qMa3e2u1bN8c0X/bcvuzBC8hetoyAy5+gHcD7aV3mHcFWTPvHB2S1w/1aTliFOy52DstB25pkl1bIln73uDFa64Pyac/tlJ6eqfk2KlZCQYoAPKUX8gXAYC8xPu5HrkHd/LI6b/n9hZNNUons3MJefn1Hi3fe+i9QZk0Jxmc+FGRb826ClnbXiF1dQFZ2Vqu5XgJIdcHV2MYAJkviBlA+eC3zen74Ft9Wnzo1JkRufeOVqks82Xt+6qrCWgfg96BKfOex1kvID+537a9nbkWAD8rVgwAyenp3xj/gEe7nuH0nc5XFul8L7zWI088e0FTmyrMZoR64+iD3mY2ro3rqmTzumouAiFLpLkxpOOWXfUauwMX/NnOMXn5zV4ZN2J73+5GjRHI1hUasobQLfG1t/uZkpufuGzbu6zKgMsVAPAP/RzXIvcgr761KSR37m8xJ/P0SDJcKaBV6rd/dFqefrFbo5s3GUOPmuZ7ttXJLbvrJeCj9iMknaDcNcb4xJyW733h4EWZnbWyehprAxIOZz5dEF689tZyFSLXq95Jcgps778Xq1tgTgQAChK0cR1yC6LqsTk01Ydkw+rKtHxNVOdDUZO/+6fjWsoXefu7t9bJ7Tc32mV5HVbkECEkIyAg8IE7V8jH7l4hb707oFdwrc1lsn9Pg97XZ5qVK8q0SBHqGXg9jAXIQ9psG/yjXAmAL3ANcg+MNSqLoZ1vOkAu8JuHB+Sbj57WUrw//z9slK3rq8Xvt7rxXap3zlMBIRnFYdvdjWuqpKOtTL17qDiI6zc0FcpkSu32TTV6DXDk+JB4K3xcjPzkC7kSACgp9xDnP/fMzCW0wM72zTXL/lq9A9Ny+OiQ9g341Mc6tHhPS2NIi/sQQnKDz+fSAXc8BLjbfbnKZtKoAmcG2gt6PS5pMwcLFOrCdSCzefKSh2xbPL2U/3g5T80DZjDcO8cg776pLiTrV1VeSjFaClquN5bQwj31tQEtHrRvd4OsXVlB409IvngEjA1GQyE01kpeKtw///P0gmuAvTvqZC6aZJ+A/CRs2+IlsRwB8FOc+zw4/c/GZPe2Wo0cXrLxtz8ijbC60qvpSGtWsjY/IflMUi5X3MyUcW6oDcre7XVX7eRJ8oYl2+KlCgAkmX+M8557gn63bF5XJXWRpTf5sU4PSQ0sYqU+QgoDeOtSbvlLcTkZAPEGK1vLzN5glS0mecfHbJucNQHwIGwP5z2H6j9pndh3bolIZJkd/lIbibWZUAAQQi4TDnnkI7c2aUxAggogL8+Btk3OmgCg+z8PQO1utBJtawpxMgghmbEuAbds2xTRmh+2s5DkH0uyyUsRAGXC0r85Pv0nxelySFtLmTTVBzPS7IcQQgA8gxABG9dVSzjskViCCiAPud+2zRkXAOj8xwbuuTz5x5IalHP37S1SXcmlIIRkFuw3d+1vkcpyn7YuJnmH37bNGRcAdP/n+PTvcDqM4ffJnq21TNEjhGQcj9spK9vKtFsgPmdKYF6yaNu8WAGA3LD7OM+5IxpPSHmZV3ZsqpVAgHX4CSHZY8v6Kr12RLVQknfcZ9vojAmAT5jh5TznUABEk1JX45cDtzYZJU4BQAjJHjftqJP21jKZjVIA5CFe20ZnTAA8zDnOHcjAQUe+xtqgigBW5iSEZBNUG22oC0rA55YE7wHykUXZ6MUIAFw23835zR2o+reiOawqPJOFPwgh5FqgMRFKj8/NsSZAHnK3LKLHz2IEwK1mlHN+cwdq9a9sK5eNa6s4GYSQnLBqRbls3VjDOID8pNy21WkXAB/l3ObQ+McTWu4XzTl8Xt79E0JyA7oSrmgpk0i1nzWB8pMF22oKgAIhGk3Ijs0RWbuykpNBCMkptTV+2bOtTuJxdgksBQHQYMZ2zmvuSCZENqyqlMY6lv0lhOSWpvqQ7NoakUSctYHzkO22zU6bAEB+IaPOcmH47aY/a43xxxUAI/8JIbkG+1Ckyi/NDUFxaTtiioB8Wh5ZYL2ehQoAuv9zJgCSEo3F5fabG7X2PyGE5AMoQ37zrgbtRRKPUwDkGQuy2c4F/p17OZ+5Of27zOxXVvhk3aoKlv0lhOQNoZBHbt5ZJ36tCcD5yDPuXYh9X4gAuAlij/OZfeLmrfJ4XHLTtnqpKGMBRkJI/oBrgIZIQGuT+L0uSSRYFyCPqLZt97IFAFv/5gjc/ePUD/d/eZgCgBCSf4eUW3c3SE21T+aidAPkGTe03QsRALz/z5Hxd7ucUlPll5aGICv/EULyDq85+e/ZXidV5X5tVEbyihva7hsJAFQV2s15zD7RWEKqKr2yc2utMf5OTgghJC9xux3S3BiSirCXwYD5xW65QfXeG1mWm2XxDYPIMsHdGups4/R/6656cbl4+ieE5C+7zEGltSksMywPnE/Adt+yHAGwj3OYfaCiQyG3vlBVFT66/wkhec3alRWyorlM+5WQvGIfBUCBMTMb157bOzfVcDIIIXmP1+OUlqaQVFX6NH6J5A37lyoA0HFmL+cv+6Dxz8rWctm6KcLJIIQUBB3m0LJpTbXMRXkNkEfAhruXIgC2mhHm/GUXuP+ryn3SWBdk7WVCSMGANsHrV1fK7ByvAfKIoBk7liIA6P7PAVDPm9ZVy7pV7PpHCCkcEKvUEPFrp0C2Bsgr9lEAFAho+7tpXZWm1RBCSCHR1BCWHZsiGgdAEZA37KcAKBDq6wLaYcvjZvYlIaSwqK0JyO5ttdrEjAKgcD0ArfYgWSLV9nfv9jqprQ5wQgghBQeKAiF9uboS6ctCEZAfNJixajEC4FbOWbYFQFIcDofs3FIr9bVBTgghpCCB93LHloj4vE6mBOa5F8C5WJcByYzxdxm5HKn26yCEkEKlotwrN+2o106mcfYHyBf2L0YA3ML5yh7oqOXzGdW8tVbCQQ8nhBBSsKCJWXtzWMrDHs0MSPIeIB+4ZaECAAWANnG+sgNy/WOxpHiNWr5tT4MEg25OCiGkoPF5XbJ+TZWUhb0SY4OgfGC9Gd6FCIDVZjAKLVun/2RSy2ji3r+lPqTqmRBCCv1ks88caKqrfDLHBkH5AE6WGxYiALZyrrIH8v6rK/2yc0uNJOgqI4QUg7UxB5lVbeVSV+PX4GZubXnBVgqAPAPuf1TOuml7nbiZ+08IKSLQIbCm2q/9TUhhCIAtnKfskEwkxeVyqJsMebMOFv8nhBQRm9ZWSUtDSKJsEJQPbKEHII+IxpNSHwnIytYydZMRQkhReQBay6W5Pigzs/QAFIIHoMyMds5TdpiZiWkLTRT/IYSQYkMDnOtCUlXpY1Gg3NNoRuR6AgAuAh5FswRO/S2NYa2fTQghxcjKtjLZsLpSojF6AfLNC3A1AUCyQDyelMb6oDTUsewvIaR4aW+FAKiSGAVAPrDlegKA9/9ZAmoYqritOczJIIQULSgKhPbmKHZG8tsDQAGQJVAcY92qKmluCHEyCCFFTTjkkdUd5VoPgDUB8lcA8Aogw6Qe/kh1QGqrfZoGSAghxUxzfUh2banVQED2Bsgpm+bb/fkCAD2DKzg/GRYA+J95/resr5ZIDe//CSHFT1nYIxvWVIrDyQNPjkHEedvVBEAH5yYrCkBL/u7ZXsvWv4SQkqGywqeBzy6XUxKMB8wl7RQAOQL1fkIBt0bG+rws/UsIKQ08bqfs2hIRv8/FmgC5pYMCIAfgofd4XLK6vULcrPxHCCkhykJe2bGpVg8+CboA6AEoNZD7j4d/64YaCYU9nBBCSMmAgOfWppD4/fbeRydAXnkAVnJeMkssbnkAdmy23GCEEFJSIsDpkFUryiQc9kqM1wD0AJQKCPzD6b+uJmB3/uMVACGktMC2t3dHvdRU+WWOHQLzxgPgNqOF85LB038soVGwG1dXsRAGIaQkcbudsn51pVSbvRBXoiQnNJnhnS8AWm0RQDIoANARa+umGvMS8PRPCClN0CGwtsYvAb+b2QC5wWnb/EsCgO7/DBOPi1SV+7QzFiGElDLtLWFpqA2wQ2Du6KAAyJrxT0iFMf71taz8RwghG9ZWax+UaJQCIFcajAIgS0RjSWmqD8qajnJOBiGk5Kmt9msr9FicAoAegCJndjYmrU1hWbuSrRYIIcTpdEgtMqKqfBJnHEDOPQANnI9MPuxOve8qD3s5GYQQYmhpCMnajkoNkCZZp2G+AKjhfGQGpLrU1wVV6RJCCLFoaw5TAOSOGgqArAiAhHS0lDEAkBBC5hEMuKW5MSTCrGgKgGIFaS6rVpRLW1OYk0EIIfMIBTzSVBfSz1kgLTcCIGAPkiFa0ACDtf8JIeQD4Gp0/apK7QuUZHegbKJ238nTf2ZprAtKeRmD/wgh5EPHUCMAtmyssSoC0v5nffopADJEyp21eV01o/8JIeQq+LwuaWspE5+HHlIKgKISAEntfLVxbbVEqpkBQAghVyPgc0lTfUgbBSUZCEABUBQCQERb/iLVxUt1SwghV8XrcWiHQHgD2CGQAqAoTv8el1NrXft9Tk4IIYRcA2QCbNtYYwSAk1UBKQAKHzzEULOo/Y+PhBBCrg5c/+iSCk8pbwAoAApfAMST4jVqFgGAgYCbE0IIIdfBaw5K9ZGApkvTC0ABUNBAxfr98ABU8P6fEEIWcGhat7pSKsu9Wj2VZEcA4Hga4jyk1/i7XU4pL/NJGdP/8m99zJiZiUksdrn0SDJhfZaqSY5OZWjghCwOfI4/N7/U6xyPhzEduWZmNiZzUeuUaFZHEvb6wYjg8GiWTFyueeuHjBzzP6wfPHMkHz0ATg0EfO3tPununTIHJ85JFghBADBHLY2gvzUMf2tjSKLRuDEY9ADkgyhz2PXGxyeicuLMiJy9MC49/VPSPzgjo2OzMjsXV1GAvwtjD89N0O+WmmqfRCIBLVcKj87K1nJxmD9H4RJ8dLCQecZJGXUwOR3T9TtzYUJ6+ybN+k3L0MictX7m3bPEmkM8bqcEAy6pqfJLTU1Au3Fi/Va3V4jL/Lmun8PK1CH5wcoV5VozJUYPQLbwQQDwmJpGcAopD3u0/j+CW0ju6embklcO9cqp06MyMj4nU9NxmTMGYy4WNyItqS7HRNKqRKbpm2ZMOeIyZsTC4MiMnDZiAYLAa07/ZSGvNDcGZcPqKtm9vZYFTLLA0PCMvPJmr5ww64f1mJ6Jq8GPRhPaawOeG702TiYvrR8M+/ikw/z9WfGY9YPn5pkXuyVs3s2G2qCsX1Mpe7bVSciO0bHqdlAM5BKnmX9cAfi9Ln0fnVyPjDte6AFIM1FjVCrKvLJxbRU3lKyf9C9v4nFjFA69NyjvnRiWC10TctGc9oeGZ/V0gb/jcjl0g0mdAt1Ox1U9B7PGyMzMxs2GFLXvJh1yvntcTp4dk1ff6lOht3NLRFrZ7CntvHN0QN49PiznOy+vHww/TvguvaaZv34iV7aVw/pBJOC/wTVB6m75XOe4nD4/Jq+9PSAdLWHZtbVWOlrLOOF5QFNDSGqqAzJoRB/qA5DMewAoANJlgPT/HCoAqio4rdkGhmDObPjvHhsyBnpU3jYC4NS5MT3t+/1u8bgd5iToXsTXE3HpRbK9Edn3/3NzCb1COHpixBioITUmWzfUGDFQJu2t5VyIZRCPJeXd9605ffvIoLx/ekRP/MimcRvRFgwsbv3wTDghDFyX1w9XPRCFx0+NyuGjHn1GdmyKyOr2Mlm5ooKLkEPWdFRKc8Og9PZNqceNZF4A8AogTSQSuP/36L0jybbhSEjf0LS8896Q/Pi5TjnbNa4GA4Ff6e7ECO+By2V9XZwwXzjYI6+/3S97ttXKgVubZGVbORtALXb9Ekl19R8+Zq3fiTOjGsjn8zmlwpu59cO/e/CtPjlkxMaOTdVy1/4W6TDrV1XpZXxHDmhtCmm8RjTGOIAswCuAdBKLJqW5NagPMcme3wUR4afPjcr3njwnrx/q15zicDA7YcQwJhB9uIN+7Z1+OXx8SB68a4XcfnOjeoGcThqRG4HNvrN7Uh416/fSG71i7L6EQ54sPDlWwCDWD9cF7xwdkiPvj8hHD7TIHUbI1dYEdX1JFo+k5t2tqvCLg+9N1jwAFABp3MigXukGzoLZt+5b1MX73Ctd8oQ5NXb3TC3KRZxOsF853U4NAv3nH56Rs10T8shHO6S9JcwAs2sY39SMvGZO4I89fV69Nr4cpelheVJBuz94+oKc6zTrd3+HrFtVqWtKIZA94D2L1PhleirGec+CAKCvMl0eACMAIkg5qgtwMjJq/C2DGouJ/OOjJ+UNc/LuG5yWfLGx+P7ePjIgU2YDu/u2Ztm7o46LdpX1g/v9u4+flVff7JWLfVN59f0dPTki0985KXfua5KP3NzERcsikWq/NNeH5PipYb2qIRmDVwDpBHeWlUa9ohAQyazxGBufk+8Y4/HSGz0yPh4Vp8uRN6cFBC/NziXkvfeHZC4aV2/FzTspAuav38RkVH7w1Hl5/uBFGR6ZtXL3zXuTzJP1QzAp0g6jc9b6Hbil6cOuC5IRcIWK7Jojx4dYECgLHgAKgDSAwiI1VT6tAUAyB4zHkDEYP/zJeXni2Qu6GcN1m08edhgMuLKjsaScOjsm3/nRGbUcu7bUlnwlQazfyNicPPV8p64hgihT65fMo/Xzmu8pFk/Kue4Js35n9Tnbt7tBCwyRzFJZ7tM26jG2Bs64AMDTzCuANIB7wlbz0FYzAyCjoJLfk893acCYGn9Xfhn/+UYEWQg42V7oHpd//P4pDRAs9ejmyamYPPtKtzz61DlNz4Qgysv1EyvAE2uInPR/+O4peevwgH7PJPNUlfkkFKD7P8NoxA09AOkQAImkNDeEpb6W9/+ZAieCZ1+9KE+/2KlFfArhqgVlhVEOuqtnUn5kTrynz42VbMtTvCOo6PfMS90yPR3XbI1C8FhACIxPzMm3Hz8rx06NqLePZPho6nNJW3PZJTFNMucBIOnyAKCKFT0AGePQuwPy6lu9Mjo+V3CudL/PrYWJXnq9R8YmZqXU9jQEyJ45PyYvmp8fAX8+X2Gd7uD6x/ePmg/5FLBYrITDbmlutNKpk0IFkLEDihmznIblg0cUjWNYvzoD4soYj/HJOXPy75Kz58cLsseCFhQ0J8mX3+iTZ16+qHFkpXKSxAkOP+qjT57Xqnv5em1zI+AJOHioz6xhjy36WawmU6CGxtqOSus5of3PFLPYSec4D8vf3GvNyT/gd3MyMgAag3z/ifNaHQ61/N0FmhuMxkHDo7Py6pt9cvjoUMkUCUImxOPPXNC+DOiQ6XYX5s8NLwBiGF59s1+vMlzM9skY2EvRnwEimfY/c68mPQBpON0AFHwJBCgA0m88EnLSnBoRODYzF9N740K+E0T52U7EAxiDqE2GitwLgKuxC90TRgCcNz9vzBjRwg7sQqEpxHMgEHVsYk5/PpIZUKER7YHhVWUcQOY8ABQAyxIAVmIwellXlDOhIt2g3zuq/MFYOoqgOjtOv4gkP3VuVN48PCCz0eKOKh8anZGXXu+V4bE5deUW+g2Zla6YlO7eKXnuYI8RpcwKyBQIoF3RHNaUTAZeZk4A8ApgmR4AbAodK8qkPMQaAOkWV10XJ9VlrnfoReAy1xxzFJqZS8hjT52TyclYUb8b57sn5Scvdqn7vFiuPLwelxYy+snznTI1HePpNGPz7JQVLWHxeJ32QYukGV4BpOVUYE4EDbUh3gmmGdT2f/voYNG9/DCEiGXo7pvSJkYzc8UZTDY8NivvnxqRyeniEjkpL8DoxJy8896gBqiS9IMW3ivbK1RwxekByJgHgAJgGSdUhxN3VV7zsLJoRbpBFTa02fUUpbByaBQ5ut+hDW4xcub8uF5zuIuwep72Mogn5blXu40AiPJlzQCIF0EgIK7NEky4yJgAoHxdsgCwSoY21IVYHjzNTE1HNe8aTX6cRdgRDPebMCJvHRmU3oHizCs/dXZUznaOF2X5XNxm4P0/eXZMr6noos6EyLLKAiPwEl4zznDa4RXAcoAqRZW3tqYwGwCl+/TfOaEnSHeR115HUyP8nEgvKyZ6eqfkfPeE1nAo5tIYKHB07OSI9qcgmaE+EpSA38VAwAx5APjkLlkAJDUtDYEqftYASCsnzMnqwsUJzZ0vZlAhEAbkXNdEUf1c6HuAGI5ify8QqHb0xIhc6J7kS5uhPbbN7K8IsI7HKAAyIQB4BbDUhzNpBIDHoakqHjcvAdIFvKmdxvj3D84UbNGYhYKiRmcvjEl/kV0DwPWPqw23q7jXz+lEieBRTVclGXg/3E5pbQpLKOSWOAMB0g2vAJYrAFxmA6iLBEqmqls2jP/gyIw2XymFKUV52YHhWRkaKR4djuBGVDycnY0X/XuB643ZqPXz8pI6M+CAFQ552R44Qx4A+q6WZKiSGtxUXuYtiK5mhQLS486b0+PYeFSNY6k8SwMj0zI5VfjR5DD+57omtW2zs0TCYlxG5PQOTLNJUIZAgTXEADAVMO1M4hUd5Dws4fRv1Ggo4DGnfz+DU9IIToxnLwmA0rAgcHMODs3onXnBC7hYUs6cG1UxU0rr12cEQFcvz1IZ2RMcDk21DhR4GfA8ZJACYKkbXUIkFHRLc32IKUBpPk319JvT8LQxICVzgnTKyOis+bkLXwAgtRE/x4y6/0tjAeGpGhmblWFmAmSMSJVfOwSyAyMFQF6AIiDhoEcDVFgBML3AGM7OxUsmrsLlEpmYjmlzmWIwhsOjc9rvwFEirwWeU5QGHp9gPHWmaKgNSnWVj3EAFAD5QSKRkLIyj7Q0hTgZ6ZxX835PTEU1v9rhKA0BABcnegLg2qMYQE48ujiWSlysrt9UTEYnWBEwYwKgPihVlT52X6QAyBMPgLFUPq9LgwBJ+sDdcam95PCUw2VeHDXzkxoAGI0l1DCWAvgxo0bwIOuBZIb6moBUlfMKgAIgTzY5uP0CfnfJbHJZmlbdRLXDYkkVV0Zd+bi6zQsdGH7ka5diWAxPp5kDvVbKwh5eAVAA5B5E/ZeFPFIeZvvftM6rsRo4CScTqgBKx/w7LOOBa49CB67/pP0zlRL4eRPJBKPUM0go6NHKi5xiCoAcK32RygqfBqWQtDoA9ARZii84PJvF4N0s5VMws4EzLwCqq5h2nW4BMG0PsuDNOmlO/16prvRzMtJ5ihIpmeI/V4KAuWLImkNGg6OEn19eCGYOeF1rawKWh5AsF7X7qS2HXoBFCoCKMvMwVlMApHUDdTg0sFLjKkroHYfbGKmkxdD50O22q2KW2B6NH9elPZ75HmeKynKv1FT66AFI0+lfDx4UAIsnEU/oFUDEqFGSTgEgKgAgBJIlZUGSenIuhsY5KI9dikYQIo4BwZkFV64NdQEKAAqA3IJIVESkBtkCOO2EQh4tIFNKwVTYz3w+t1aWLHRgBEMBt17llJKIw8/r9VIAZBKUA0bjtRgFQNoFQA/nYzGbnGgfAAr+DJwgzUYKYYXTcKmIAHQ5DRvjX1EkNSWqKvzi9bhK5qSGnzNoRE84zJogGRVZZuOtLPex62J66JkvAM5wPhZ+WoMSDfrZATBzBsRnTsSlZEASWla6oqzws0rQFyNS7bfXrzSeVysouDjWL99B7ZVwiOnXaeAsBcASN7ja6oAEg3T/Z2Z+RWpr/HqiKhUBELevlKorfUXxs9SWmABAZ1AYfwSpkczidjmlvi6gYSasubAszlAALOm0ltSa1OEQX/ZMgGI4zY1hVfnxEhIAMP7NjYXfV8LpEmlpCus1TqJEFACeUwSo1UaYFZRpfF6n1CD9Wq9fqQDS5QE4zflYuACoqfJLJXsAZASkw7U3h9UlHiuRut8QPbg3L4YYALfLJavayyUYcJVM2VYUr6qrCUibET4ks8AziCtCKAB6ANLnAejEPsQ5uTG4Aqgxar+8jPdQGTlBmieyoS6oTZZK4QogaTROBfKbq/1F0f4YgbE4/SNN1u0ujU0a64ZrK4+bbcEzLgDMs9VQG5ASKxWS9nOsGefnCwAY/wucl4Vt2LgCgBIlmcHjcUpTfVBPxMV+DQAvR3trudTXBovq58JpGJ6yYu/ehuezuSEkkWrWBMkGgYBLDwhkWXSZEZ0vAC65BMgNpFPSiviFq5pkjtUdFdJqjMjcXHEbkFnz861fXSktRXD/P59Na6ultTEsM3PF3SIXbYA3r6tWwUoyD/ZdCEvrNMb5WCKXbD0FwGKxXZwks3S0lklbc1nRnyBR/nf1igotcVpMIA4AXoBivwJA1cr1qyqkkafSrIGmQKgJQPu/ZM5SACz14fN7Ltc7Jxmjotwn7S1h8fldGndRbKR+pLWryiVSU5z54/Bq1NX4i7JDINYP99D4+ZC9UQzxGwUjml0OzRJSEUAVkDYPADMBFvDCI7iJL3sWTlZmrGgpk63rarTHfPE9T0m9/9+3u0HqI8V5elyzskK2bKiWmdniuwawAlQdcsvuet0TSBbfHTsTC96zJBUAPQBZeuzM6+7QfG23iwIgGyAGYM/22qJLB1Qxad48bGK4Pw4VaUAp6rZv3RDRbIBiJOBzyS07G4qmhHPBHA7MASxSbe3DSV4EpM0DQAGwAJCD6vfxCiAbYJ4RDIiAMgRfFoPahymMRuPi87jkrv0tVkBTkepJVG1bvaLciLg6rXWQKJLT2pxZP7/fJXt31ml3OjcDgrOK1+vSrAtNM01wPtLlAeg1Y4Rzc+1TGzbqmmqmAGaTiDGQD9zRJn6vqyju++Lmh3Cak0tLY1juuLVJvEWeO46+APfe3mJ1OkwWxz6Agaj/+w60qieHZBe0DEfsBYQXGwMumimZl/J/5eN7mPNzjRdf7KCfSNCofwqAbAGxtWV9taxbWanKv9ADyqLRpDTUBmXfngYpC3lUDBQzuKdtbymT3VtrtZFLoa8fPBkQpTs2RXQdvQwIzjooFlab8gAwBmCxHBGrENBVBcA7nJ9rKwDEANRUeo0houzPrhFxyGc/vko3XpRdLVQQOIb4UYiZA+b0Xyp7V8CIuEce6FBvQOoEXainfwSkblpbJQ/e1V4yzaryTwA4tHomagLQ/i+aD9h4CoAF239VANr1y8UsgKyfIpvqQnLgliYtuTo1HVNvTCGB73d0fE62bqyR+z7Sqs+Qo0QeI/ysFWGfPHj3Cg3empyKFuTPPj4RlU3rquS2m5vE7XEwGyhXAsA8PCgV7nTSA5BuAcArgOt4APCwhdiLOgfG02HUvkNu3V0ve3fUS8DvktkCqzA3MRmTNR2VcsetzdLWUnpNYyDidm6JyG03NWop7anpeEHFPuJ5a6wP6vohvZHkFlwNOlkHYCkcvp4AeFdYYPGaRgiR214P3f+5Aqr/zn3NcsuuBn3xC6HbHEQjysXC/f3AnW2ydUN1ib4/VvDWR25pNCKgQfs9zBZAfQerXoMR/gGPWb9W2WVEjJdNf3LvBTDGH2mYOBhQBKTPAzAu81IESGoTEH3QysNeyqMcb8aIvv7oHa0ahAXXcj6nluGOGN8eOv3db77nvTvqSj6FFOlbd+5rkVt21mksTWqO8nL9ktb3Vlnu1ZgNnP7D9ADmzV6AjqwQlQkqgIVy0YzB6wmADykEYj1sUJzhsIeBPzk9RVp5v4gq/5lPrpE1HRXqkcnH9z9pXxnB3Q2vBU7/SIUr9b0KPz9KBH/6Yytl+4YazezI1+9TWzWX+eTmXfXyuY+vUrcz3/78AF6ZMnMg83kZCLjU0z8FwCI2A6v+tLtoi7YUjAhwXs7D/sWf2aAR9UgLisXyaxeYmY1JRblf7rmtRR68q03vwC0RU+oizlo/VAn8mU+tlR2bavTdyrf1m43GJRz0yG17G+SnHlp1qfkMX/88eY7MQFdWj9ulpYFJ+gQAAwGv6gFwGgHgZeRvnhgReAMiEb988bPr5J7bW8Xvc2qUdq6Bh2h4ZFYrGH7+U2s0c8HNO+Orrl9ttd+crFfLQ/euUO/I2MRczk/YeNdHxmaltSGkp/6PHmg1Rsap3y/f/Hx6hqz92ONhP4BF8CHb7qYHYAGbApSSOaWgcAs383w6BTikriYg932kReqNGHj6hS45enLEiAG3bgzZPG2jwA1KxOJeG6f+O/Y1yfrVVRo7Qq4NSiHjiiRSFZCnzPq9e3xI5wx3u1ldv0RSSzRD4H/k5iYdSPnzeVnoJx+B168i7BGvhzEAy/EAXE0AnDRj2owA5+uyAoCbEn0APBQA+WlE9jdrsN1LB3vk6KlR6R+Y0qYhXo91esu84XfJhjVVsnFtlXxkb5PU1/L1WSgIrt1/U4PUVPq1tv57J4alt39K1w3vWya9bjD8s7NxNSSIKcH67d/TqI2oSD57AESbMFmBpJyPBRAz4+hCBAASrFEucDfnzAIKEwIAfQB4ostfb8D2jRHZsKpKHn++U44cHZQeY0RGxqJavQ3rhgIi6dACeB6w6cDdH/S7pbEuKB0ryuXWXfWybWONpRmTvO9flMY287VhbaWsXlmunoBDRwakd2Bar1N0/ZxW4Z10rR8C/GD8UVOitiYgHW1lcotZv91barl+BUKFOZD5iqRHSBY4ZsbcQgQAeJkC4IObk6YBovoUd4W8xudzycN3r9BrgWdf6pbnX7soPX3TuobxeOLSaWEpy5gyCmhC4vI49Dpo/apKufv2Fi0Pe+UJhSzuRAdw4se9+923N8sLr/bIc69elM6Lk5KIJ9Vgq7s3ufz1c3stQYhYDazfdlu4cf0KB6Rker2MAVggL1/tN68lAF40419yzlIbR1I3jXIGARYMMCTotgfX8qmz4/LKmz1y5MSw9A/MWDX553kEUlcEqU0/tZ+g/HMqne/SidEIjI7WMtm6oUYb3ODaQZ8JhoinFbfTaVd+rJNznePy8pu98u6xYfXqIOob1zvXXD/7/z6wfkmrkY/P65b2lpBsXlcte7bXazYCnhWe+AuPoN8jLqeTMQAL44XFCICXOF9Xnhwcqji5SRQGMA5Oj0s8ZqxfXWk2er/ca06WyBQ4e2FCunompH9wWoaGZ2VkbE6isbjMziW0vajHbQWhBXweqazwahMi3Om3NZdJc2NI3f5wHSMmhGQO3MuLR2R1e4XUVAXkrn0tMj45J+c7sX5Tun4Dw9P2+iVkZiahXh54ZpAfHvC5dY2qzfqhfSxKMLc2hDXjAJ6imiofVVtBi3yHeb9ZCXCBvLgYAXDBHq2cN9ugOEU3fVKAG4XHaQx48NKvO9rKjeGf0aZCCACbnomb031Cc9Gxl+C+GR0IYUhQuQ9ZBcg5jqRO+yS73gCzDmgClWIl1m9kVianYjI9G7UMv1FuOOHDO+B0WmuHk73fvLM49ZeF3BKpCWgsDykSHNa7SgFwQ3rMOLUYAZBSDJ/j3Fmg9SQ3/+IgFHCbwSjvQiXgd0tzg5sTQVTcc19e2ulfD7ZL+Y9KiVQAoJ/5wIQQklfgKoflgG/ICxQASxYAScsV7Gf+PyGE5BOIE2EmQGY8AKgaNEEBYKUN4UFjzWlCCMkjAWAOZ163S7g1X5MpM95aigBAQaBXKQCSGm2KQDCmmxBCSB4JAK/L7gjKvfkawIbHliIArus6KCUPgMYA+F1sBUoIIXkEYgDUO8vN+Vq8cL0/pABYAIgBQOQxIYSQ/AFpuogBIEuz4TeauVfMKOlWC6kqgBAAbAhKCCH5JQA82g+ALoCrANv98nIEwJgZr5e2ALCuAAI+5psSQkg+gYqdHheLAV2D120bvmQBAH5U0hIqKXYaoJtlgAkhJI+A+9/DIMAl2+6FCIAflrYHIKmpJqGgh48TIYTkEcjO8rIl8JJt90IEwEEzhkpYAajCDAcZBEgIIfklAKwsgAQLAVzJkG27ly0AEEjwRKnOIn54XAEEA6UnAKiqCSH5jM+uA0A+xBOygAD+hc5cycYBaCVAFALye0rwZ09SBBBSaIeWhDVKRgDwCmDJNnuhAuBx2IPSVABWb3m3qyR/dA18jMeTEovzDSMkn9/VuWhcP1rCvTTeVw0CdDsYBPjhx+HxdAoA9BM+VJoegKS2AsZdU6mBXtsw/sdODcuZC2N8rQjJ4y3/0JEhmZiY07RljFLA43ZqnRba/w9wyLbZaRMAC3YpFKOUQv4/REApgp89YUTAT17slv/27ZPSPzjD14uQPAGxbz956aL8p786rLVKEBBXauCKlvZ/abbavcgv+uulqABKuQAQrgBam8Jy9MSIPP5spwwOzcialeWyc3Ot1NcG+KoRkgOi0aS8+/6gvPHOgJw6Oyo1VT5paQzpnXjpCQCn2aYpATItAF4Sq6pQecmdgku8AFBlhU8O3NokvQPT8tSLnfLGYZ+c7RyXrRtqZGVbuTTWBfnKEZIFxieicqF7Qk6dG5PnD140wnxYtm+KyGceXKXvaSlWK8dVZWkXrP8AY7atTrsAQEvBJ834ZIk5AMwpmCUA6yIB+ezDq6R3cEoudE3IE892ykuv9cjeHfVy574W8+d+qSz3qhonhKSXyamY9A9Oy+FjQ/LUC51ysW9KorGEbFhdKffc1iIrWspKdm4Q78Ad+hJPynXa/y5HAIDvlZoAgARw0qYpNZU++bnPrZc//Pq7mhWAuIhXD/XJoSODsmZlhTxwR5usbi+XQIBFkwhJy+5jTiAjY3Py7Mvd8vSLXTI0OituY/Dg6vd5nbJ/b6PcfnNjSc8RDh1ulAMWoRCwbPTC526RX/w7ZsyZ4S0pFwC59KLB3f+ZB1bJP3z/pHRdnNQSyXOxuJw4Myp/1v2etDWH5e7bmjVGgBCydEbGZuWp57vkrSMD0mdO/3NzCb2OxJY0MRmVzz60Su7a18J9KdWuHWqptL21c7aNzpgAGBUrv/ChUlHfcC956Na+BGpv79oakbGJOXn0qXPS3TMl5WVGBMzFdVPCGBialpde75WNayrl5p31EgywjwIhCwX3+y++3iOd3RPSZd4vCAHtSWJH+E9NxeT+O9vkwK3NRoDT22a1a3fJzGy81Bu2PW7b6IwJAPCNUhEAAG7uUsmpXSiovLX/pkYtPPLY0xdkYHhGQgG31kpATe4z58flXOeEnDYb2alz49LWFJaNa6s0m4AQ8mFisYQG9MGTdvy0GadGVEzjXcMBBJlIENmIR9q7s04+eqBVGpiFo3hsDwAEQInzjUWLpyX8I7hjQDK4vxRmFKafQYAfBieP229u0lgABASOjc+pKw4bFa4F4D252Det2QLlYY/s3FKr1wKtTSGprw2WZGElQq5kZHROuvsm5dyFcXnJnPqPnxqVuBHRQfN+hUOeS3sQjD/uuTcZIf2pBzqkqT7EybMJ+J1SZuZqcGRWSthXOyOLvP9fqgAYF6vN4CPFPqPILS2lqlqLpaLMK3fvbxG3Mfo/evaCObHE1FUJwQTNhCAln9erXoEXDvZcuhZA1sDalRXiw4sb9JZ0nQVSeswaYz4zE5eB4Wl57e0BTecbGJzWfQYBtFeeN2IJKxB5szH+n35olXSUcMT/1YBQqqjwSbJzXEo4DPCHtm3OuABIuRqKXgAg2sZln2rJ1Skzp3vcRQbNS/itx05rxDJqc88H85fqpogrgbOdR6U87JWbdtTJHea/RWBhPJ6k0CLFu5WYvSQeS5hTvENOnBmRHz/fJUeOD0ssGtfANQ1iu5ZgmI2rB+3j93XQ+F91D/JqCnKJtwT+xlL+o6UKgEfNmDKj6CvAwCS5aZhuKAL2bKtTJf6N75+ScxcmJBx0XzMgJxZLquvz+Vd75PVD/dLeVia33dQoOzZHOJmkKJmajsmzr3bLocODGtE/MRVVt77uMY5rn1uHR2fltr2N8vC97bKyjcb/aiBOCwGSJdwPYMq2yVkTAJNm/MCMzxS18Tdv5sxsTOvfT83EJejnvfW1wD3/jk01GvH/nR+dkTcP96sIuLKHgm52Doe+rOMTczI0kpDhsVm52Dulkc8rWsKya3OtNDXwjpMUPkdPjshb7w7Iua4J6euf0r0kHk9ovMz1PF4o8oO0vwfuXKFptR3G+DsZi3RVEDD52qE+IwJKNgLgB7ZNXrx42n7zF5f6j6L44meLWwCIupVQhQvXAbi3ZkDg9ZV4fSQgjXUBiZtTfs/AlG5iLqfzQ94A/BpXA4jgRdATNsYzF8ZVCKDKGcaEmfdgwHVd9ygh+caF7kk5fHRIXn6jR2NfYJxOnx9TVz4a17ivc62I/WbWvDNlIa/c85EWefCuFZo9w33n6rx7fEi+8/hZzTwKlO4B7avQmtkWAGfN+N+kyIsCuV0uGTUn1G5jmKqrfNJQG+Rd9Q2oqfLLqo5KDXTCGJ+MSiKZvOamh5ONx2O58aZmYvoyv202UGykcJ3iygC5z0iJKmGVT/IYuOpRo/+9E8Py/KsX5YnnOuW1t/ulz4hgl52mBoF8PUOOVEB4xuD9Qu8N1PeHZ41cHRQi+4fvndLyyKmMiRJkwoz/WRZR/jddAgD/4BZ7FDUwTsgxRZ7uqvYKNXAMDLw+CPrbtiGip52hkRk15ImkVazzeocZNPbwaplTl0wa4XDk/WF55c0+6eyZlKQ5Hfl8VmwBvhYLNJFckUhY9/rTZvT2T+lp/59/eEY7ZnaZZxUneaS6QtQuxHWPvw+hgNP+g3e1yUfvaOMecw30+nByTv72m+9rl1KPq6QDtf9ZlhgAuFwBAHDv8D+WwixDueMlPX56ROvdV1f6+SbeAKQuoUXp5vU1WizoIoz4Itorp64I4HFBnYEjRum//HqPnL0wLj6zsUaq/WbTRCMQbpQkyyf+kVnN2//2D8/KY0+fV6EKFz8MvvsGJ/2rGbQ5c/pHIO1PP7xGtmyoocv/OsCj+I3vnpR33x/RQMoS98j+mhknl2zXvvjLTy9rjzfjjBltpTLbSFdDB67PPrxahQBZyGkpKaPGgL/6Vp/84KnzWuIUmQOLUe3YJPF1sC/CQwAPQ3nII82NYdm6sUp2b60ryV7oJIuGZyqqWSsI6sOV4OxsTCanYxqwp5uhw7GoUrSxeEILaVWVe9Xdv3ldtdRA1PLkf+01mIjKk893qqdlajp6qeZIiXLejA5ZRjPk5XoA4NOFFbyjlGa9d2Bai3mgFGdFuY9v5QK8J7gDRfWy1oawlJd55XzXhEzPxNRLsJANLxU0iK+FDRdlUoeGZ7XvwIWLk/LusWGtOjgzm9CvTzFA0kGfeddfM0b/uVcvynMvX1Tjf/r8uAwOz2iAq26i5rlcjPGHkMUpFhkzH9EUvw7ZtaXGPLc+RvpfB1zDvvRGj/zgyfOaRom9o8Q9Jb9nxjPL2puX6QEAaEd1Fu9Bqcw6auDD1bd/T4M8dE+71LMm96IYHJmRl9/olXePDsnRk8N6lwqBsJR7PHhkIAiwOYRDbuloLZf21jIN1kTQJu5UW5hSSBZxpDnfNS5d5oQPod91cUKDUhGDEo0m7GDVpd05w/AjKNbrc8m6lRWyZ3udbNtYo4WwyI29JS+91iPfeeKsdHZNaqnkEgdFJNrN6FzOF1muBwCMmbHHjLWlMvMIbEN9gL6BGY3cbW0OM1VtEQTNXK1dWak9AZwup95/woBrsxP7lL9QsBFjPVK9BZBOePzkiNYhOGc28pGROc0sgMcG7lq3y8lMAvIBcD3Vo6mnk3Lk+JA8f7BH+1vA4Jw1z9A0jLZ5ZnzmGcOztthTJ9JcIVQ9bpfGxGzZUC2fuLddK2GWhRjlvxDh9Oa7A/Loj8/J+2dG1cNH5DEz/my5XyQdHgDwsBnfLaXZxxYAoxIOeuTO25rlnttaNDCQHrzFg1ze75uXG8F9OM1js9Q5XuZcYuONRRN6esCmsXFttXYl3LCqUsrLvVrhMRWpTUrmgK8neXid8HgNDM3IkRPD8taRATl9dkyFPUSpxzwby40sT1WmQ5Aa0tTgiXrg7jbZbJ5DsjBQE+HMhTH5L/903Aj7USkr85Ryxb/5fFyW0PwnUwIAOygCEppKUZ3iZIBSnbfvbdQGOWTxczg5FZVjp0bl+0+ck/NdYxoc5U5zmp/TvqtFCmFttV/Wrq6UbRtqZMPqKquvOnYWKriiZmxiTgXne+8PyzFj+EfM6R8pfVAGiTRbFngH8cxtMgb/vgOtsmFtpXqgGOS3MHDVeqFrQv76H45rJUW3m/Nm0y1W4P2y+x+ny2+Nb+TrZvybUlsJuAOR/gP3FF72O25putT4hizcMKOhx1ZjjJvrQ3oH++QLXfLOsUFJJkQrfKUjzxeeAHw9bPQ9/dPq+j1ybFirDVaW+7QMMcQAKj56GURYFCDQ9MSZMXn/1IgGiSIdFe8rfh8D3ia8w+kIKIN+wDOGqyx4lW7aXif79zZIW1OZnlx99DQtinOdE/I3/3hcOnsndX3IJb6eDuOfTg8AQDrCKSnRfozYTCLVAbn/jla5c3+z3nOTJXoEzKaMzfrE2VF5570hefvogBU8ZTZQBGGl45Cu3dnsNCwIAq/bqRkdqC1QVeEzn3slgsqPRpCgAxt+n+Q/6CuBoD2cHOHeR8GYoZE5GRw2gm9sTl3KOElqm29nep4liAi8/9j5mhtCsnNzRFausIJRWxvDXJQl8O6xIfnmo6d1D3Cn4TqmiICbapVY6ffLJp1WCt/Qk2bcU4qrglM/Aol+9Mx5QVfKA7c0astbsgSPgHnhsYFirOmolFXt5RqN/f7pMe2khncAaX7L2RSw8eOKwW2/ARABI6Oz0m++PuIQ4KatMQKgtiYgLU1haYwEVRSEwx4jELxSa8Qeg5Fyy9h4VEvtotLk5FRcxqfm1LPT2T0p3b0TavgB2lOr6918DKUpehzXVtqwJ5rQa7/V7dXS0VauHfs2r69WjxJZGki1/N4TZ9UDiD2Ut3If4Ml0Gf90CwDw56UqAHCiLC/z6Ab02FPn9HSJmACUDSZLBxsqBiqvoVsgSn+iURBqr8OV67JPB8vdJBAb4PRYPQlS6zk5HZexc2Ny7OSIBo5B5DU1hqS5PqiioMWc7uAt8HmdKkiwWfn9LpYoTjO4S0dDLtR+mInGJRZN6mketffPnB/VFL2evmmZNX+W6iuBNUh3HX31GiWsayRcEeHd1quj5rDs3VknG9ZUcbGWAeoqHDkxJN/64Rk5fHRQqip9DPi7uo1NG+m8AlCxLVZeYl0prxA2olDAo208797foidJlvZMD/CuoLvaUy92yYWuSSO04noSSyQun+wzKfLgKUBPAs0wiFn13hvqgtLeUqZR3i3GGDTWBiUcdl/avCAOPHYHOD4G15lb+1QNsZVqHoXgUFTdQ4bI+c4J6RmYlu6LEzJjl4DVIjx26mim5ja1jlZpaodZT7c0GhGIO/5bd9cz5icNICsDKZj/+OhpXWvU9KDx/xB9YtXdiearBwDf2B+b8bVSXiUE+0SNCHjy+S6ZmozJw/e18w45TcDrv2tLRDatq5KhoVl5/uBFeeWtXhk0n2ODhlHIlCHA13VpSUKHvjg++wYAd81wQyOVDN8fNi4YhbpIQIMamxqC6i1A3QOIwUtixhg8rfxWgqIAgm1+YBc6bsKzg6qOaKbT0z8lvf3TercOwQXhl/qIK6JsGd1kEmJPVOy1NAbl1l31xvDXS23Er+vMipPLBzVAXnytVx57+qz0m/cYa0vjf1X+OJ3GPxMeABARKyWwpMvjpU6L2CC2ovDHRzukrYkBQemdZGN8jeFFR7Yz5tRw8FCf9mFH4yCfz7Xkim1LWWsYCv2I/yXs06LHuhrw2h89Xqd2LkNWA9ybqBuBj/WRoNTWwJ1cvCWMUTMDbnuU0EWcBUTTwPCsxl1Mz8b0Lh0nf/w9uIKRAoaPeIcsjWQJu2zUfo/ZhakAvDu7ttTKjk01ulZw+SMWhKQH1Pb/3pPn5KAR8bjmS3layIdA8BNS/wbS+UUzIaPxDf6NGV8u5dVKnRbRsOKNd/olak4QD9zRynvCtE6yUZuIsTBTij4DEFi37KzXYMxjp0a0cyNS/RDhj/Krmcq/ThmmS9+UywrVhSFBSljCdm9jJO22r0g9RC14XCGgmBSC0/x+t/iMWHCbETC/HzB/HjKnIQycigL4POjW/w7/vd+XW9czjPb0TFQmJmMyMRVTd/2U+Qj3PD5Ommcfxj1mDPms+bsz5jQPV29qTNofES+DSUzV1IdnwGm79l2O7Ai4aGqtzPrAvX+zeU9Xt1dovw+UlW5gud600907qZ0UDx7ql4mJOSOYXbwiuzZ/k27jnykBANCk4BfF6hZY0uA6ABvl62/36wb4kNlokO9O0gtc/0i7wsAmjkIvp86PSXfPpFy4OCEXe6f0VJetEzb2MYfz6ulLanCiSRmendUTLtLIUgIhYXsT/Ob7DIU8WkEu6DfG3mvEgfloCQC3pplCMFjtZ8UOhrRaJ2s7Wqfdnc5pNUvGgOv8WvtrSqRYjpXkpXoJcNXDQKe+z7h5fuEOxzONUzpc9Jbxt/Lq8YzD2E9ORrXhDQQA/lWn47JRV8Nuf8R6OBy58XpobX47kBTZHkjhq49YH1Exspk9JDLGiTOj8vizF+SVN3v1ueJVyvUfVdumpn+fysAVQIpvmfEI187i/2fvTKCzrM48/iRAQggBREGlyii4r9OOVaud0850quNSF2zH6nTs1G1c2hnbTk+rdga1Z5zlWDtnFnXO1NbK9GhdQFFEwUpUMKgE2RQxhAQIJISE7CF75nnuez+IGCQh3/K+7/f7tf8mBk/Dd9+7/O99n/s8FjRmk6ZFkF9zxfFy0nGTyAOepnZfuS4o4bqxolnq6jvcz8K+00gExfUlXi30+xME//PEKyYJ/rvnFYQt/mPzc12Uuu2o7M67MwA5QQDb/mqn9/baLrh3TzJEW+SD4/het6CbCQj+zJuIHF+hMWfvLYw9hmPPz8Nbrc0+i72KsZsbR0wtkONnTJLPnnYYhaNSjJ362O2Np+aXy9oPd7m+OmoUt2YOwDzVrKgZgPNUy3h2AyYdCZLcWIe/9srj5PNnTHHvE3nnlXpsMbOgzOdfqXDFXfa3EMain/Xv7XH9AzvfUI8u9mREDtoojseyZqKmf6ZI/uLSGXLGKZzIpb5PBlc33/+oQZ54fqMr5Z2spF5ZwPmqt1Lxf5zKl4j2Fy5RfYHnt3duDRaefnliXpkLXLvsq39AOdA0sGlzi7zw6mZ3ChPnxf/jC/aAI/+cYXbUuI9FbaSq6lZpaethcKQBC/587pVKeXfVTmfGLSCWtX9IlKRq8TeSUQ7402hQXc0z/CQW8byjrt3lu7ZSwtM4ekwZ9r5xztyPXPlmTlsgYZIs8G+XLkyHTBpLkF8KWf1BvTypu/51GxqCKow55MMYBneo1qfq/zzVYcTPqTaqjuM5fhw7/rKgKUt+YdHTluL2S+ceKYXjiAtIJpZU5IXFlVK2qSnjUfMQLuxV3EcVjfLq0ir3Ku7Yo4tolGTu/po65e2VO+SNt2vcOLRFP5FpE4bERr+Gpm4MpPgEwN482oXaS3iWg7gvC37RQWH3oss3t7ijMYvkPuzQsWQOTAI7d3XIgt9vlpLSWhcMx+4f9j0FsIsPdjxtJ3InzJzkblUw9EaGxVeser9e3nynRl4u3ipV1W3OfFPOd9j8g+qdKBsA433VLSrO2AadhHJcmlibgNZ9WK9moMNd73J55fO5GnOwttPuotsd45IVO9z3YyjFCoOZcF2U7CSusbnL1XT4zBHjXeImOJiFX1xGzJXr6uXpF8qldE2du+I3btxoTNXwqVfZ4tydyl+SDgNgH8DOXr/CM90/tju1q1u2G1m5VgdOj0Upj5fcUbmxD1pLNpZ8acXanbLo9Sptz06MFHwqZsDtZkjllhY5YcZEV+2Rq2nDw5JebdnWKs+/UinPvlQhu7t63HE/c9dB80+q11L9S9JhAIz3VDdzCjC0EwF7LVCxtVk+KGvQyWmUS24DQ8Pu+Fst+Mef2aC7kU5X8pfdBwzFgNtudUN5o5x8/GRX5RGGOOa03ax87zMLNkn55uYg2RODbiRYxr9rVV1xMQD2QSwe4AKe7YEMQHALyyKUrd75tupWnZSaXGlTy1YGn862mnb51ZMfusIyiYkd4IDjzn+13PT1uzrk6Gnjyfl/ACyniVXlfG5hhaxcVycNTV3OgI9izI2U2aridPyidBkAY5XqBhUVcYbyYHQQWfKMxpYuVx2t2ldHs7zxk9idDEr1jjZ5+sVNsuqDOndywuIPB2UitR/Z+LNUwNzKGWQ3190nK9fulIVLtsrbK2tlw6Yml1LZaliw+I+YGtVfSYrf/WfCAHR7XcQzHuppwN687hZJW17Z7K7WBPnixVWPg4A6F/G/RZYs2y5jx47iCBIOeszZkXaNmm2LHZk5fQLxAJ7W9m4pq2iWt96tkUVvVLnqm+0dPS52yb1qo4mSwd2qpWnbaKbRACROAb6jmsBzHt6k5Iqm6DxUsaVVd7j10tLa5QrCWORttufTtuQidt3oNV38bRYazYQNI8CCAi1trRU5mjxxrEw7fFzWXsu1jYZV1LRXau/prt8C/JaqAWht63anI26DwsqfLLaprpPg6nwsDYB9MKtrTF6AgzQCeXlBjXurcrdsxQ43MC2TmQUtWXGYbDuCsyI1byyvltdLqt3pSB5VxSAJ5PsbOZZL4tQTJ7vCQdn0Sqm7t9dVhLSTkMWvb5Un5m+U0rV1zmzn5wc7fkg6P1EtT+cvTLcBMNZ4lzOJ5z0iO+AMgd1ftvu268saXOnho6ZlT4hFd3evlG9pkfmLNktVTSv1xCG5k6Mu+FbmeMu2FjnrzCkuSVC2ULm1VZ55aZM893KFlFc2SWdnr6sskSgvDUlns+r6dO7+M2UA7AO2qC7jmY/kNMCXbdUdcHtHrxqBTqmoapG1H+xyrn3ihHwpGh/vACYr7fv40x9JZVWL+2eC/iC5YyzHRbU3q8k2o33cMRPd7jeuNLd2u5O0l4u3uCx+lj67SeeVHlc+O2fPDSVICX+vWpHuX5qp5Oi/Ud2pmslzHxm26OXn5bj0m1bdzO7AWw6B8i3NMn1aoRxz9AQ5aeZEZwhitfg3dMhTC8rdvW3blVhGt/5++gMk/xSgp7dflumCaAWDvnTOtFgZ666uPvlwU6Pb5W/d3up2/tW1bS4Q0k48eKWWFsr9mpj+/p2BEwCjT4JKgVfy7JO3W7HgJbuKY5G5ZgI2bGxyVwgtiKelrVua9asFC44riHZRHDvtsKC/V1T5+aPZ+UOKx5YtlL0u3uawQ8a6dMFR7nM2F9hCbydnVp53Scl2efPtGtmgRqCrs9elQrbFn3GVNqzi36pM/OJMrgS/Vf1QdSbPP4mTlQRRzGPG57kdsU1alVWtYmN5+rTx8tnTDpMzTz1UpkwuULOQI0WFeZHKfW5BSMU6YS14dbMro8w7f0gHthOu2t4mxcurXUKuE2dGJ4TJTgdt0bdiY3a7wU7NLN24VULs6Oh184UFFx8ygfwiGWC1XwszQiYNQJ93PkvoA6nbuTgz4CN2LaLZds6mKYcVyOknT5bTTzxETjh2knu3aXfnLXd3WJ2/JUZa+k6NvLZ0m7M67FAgnRQV5cmqdfUyQU2zBduOKxglYQyJM+NvufntinB/Tr/U7GiT997fJe+uqZVtamL69A+s6qhd4RtfSDR/CHb/fdloAIxi1VzVLPpBegxBrs8w2NDYIctX7JCVq3e6Kz2HTy1wRuD0EyfLzGMmhHJxXfNBg5SU1jgjk0d1P0j3+JEg58bq9XXyu+fL5PpvnhzKv+fOXbtl7Ye7ZH1Zo3uv39HZ49712wlAv/4H4xwa5kqaUv6G1QAYFv1oeQE4f0qTCbB4Adsd2HF6S1u/OyK0O/TbqnWnsK5OigrHSKFq6qEFMu2IQpkxvUiOnJq5Ok7299tZt9tFJ2/c3OziGDj6h4xMmL5yoJW8nbKoUr721WMyGhrf090nldtaZHNVq9TsbHflxC1y3yL6LfbHxni/zw+SO4oiPSGi0699me3PIWiICtWDEtwKgDQaATvuT5TrtEXWSudavQGLAB41Ose9E5w8KV+mTilwwU+FhaNl/Lg8ZxAOsZ+rQbA/TzUWvPjswgpZv7HBJf6xJC1E/EOmSGQKXPxmlRwxtVDOPGVyWqLlbRxYciIbp7uabJHvkkb9ammwbeFv8D+zsmtWiteO+KMU35NlPOjXvqw3AMb9EqQIPoJ+kRnsWDDP5CcMW2Db2oNdRFlFk6tOaLuICWoKzAwcOjlfpk0d50zA+PF5Lm963pgcl4zHbhkUFoyRgoJRbrEeM4KsYVadbZFOtG++U+3MCos/hME8m6z63fOvVErhuNFy0vGTRry7tp26nS7YuGtt69Hve9y4s0I7tvjX1u+WHbXt7grs9trdzoT09/e5MTfGmflcVywMQk+NX/MyTlgMQKs/Afg1fSM8k5wdd462HjIg+Umf7sBrattkW02rvLe2zp0cuBTEOvnYaYAzB6rJh+TLlMljZZIaBiurOr5wjIy1egY5Qc4C8fEIo0dJMIGNtkpiucExpfoFm0wtQtne+c99aZMu/EHEP4s/hMUwGx+WN8jry7fLhKI8OerIwn0W9GBRt/5uCYXsZM2yV3Z390m3fp/jx5n9WXt7jzPbFt9ip3C2q69r2O2+b9Gf67+uYyVnz1G+fZ1YxGIfUe70ax4GYACWCOF21Vn0j3BPfG7hHuTPLF2o5R0wJSbAgZOhJeuxAiKWSMVOCFysge6einQiM6MwqSgwC/azqYeOlWXv1si8hZUu4I9XlxBGzNgueWu7Gt6x8vWLZ7h+ajt2C7qz4Dvb0dt7eFvcLX+FZRS0Ql52smU7+ESODmeKB5jvgVg8DsSGFZKhpD9hNwA2AuxKxFL6SHTZu+j3f9wAiF1N6neTnx1xJm4k2E7fviauH9rOJsdX9LOERrt1EiVqGcKMvZYqVhNQumbnx3b+A08ALOi2ty+4mhf8c3AqkPj+k+QMagYg8tzhp0MMwCAsUz2p+ib9JJrsnbByBp28bFK0QD43OXpn4CbLARNn4t8zU0CdcQg7djRvxnZXY+fHxkCO/58c/8NE7EBOYmz47zG4WcOTfo0LT98NYSP9WIJCQePoL3E1CPuaAyZAiC5mWffEywAMTrtf20JFGO+IbFHNpr8AAEBMmO3XNgzAEPiFqpQ+AwAAEafUr2mhI6wGoFd1o6qHvgMAABGlx69lvRiA4WHlEX9O/wEAgIjyc8lQqd+oGwDjHlUZfQgAACJGmV/DQkvYDUCH6mYJ0b1JAACAA9Dv164ODMDIKFY9Sn8CAICI8KhkuNRvXAyA8SNVNX0KAABCTrVfs0JPVAxAo+q79CsAAAg53/VrFgYgicxVzaNvAQBASJnn16pIkBuxxr1NtZM+BgAAIaPOr1GRIWoGoEZ1A/0MAABCxg1+jcIApJAXVA/T1wAAICT8j2p+1P7SuRFt7B+q1tPnAAAgw2xQ/SCKf/GoGoDdqmtUXfQ9AADIEN2qayUo94sBSCOrVXfS/wAAIEP8VLUyqn/53Ig3vpVYXEwfBACANLNE9UCUP0DUDYDlW/62BNcvAAAA0kGD6jpVHwYgs1jaRa4GAgBAuvgbVVXUP0RuTB6GXb94hD4JAAAp5jHV03H4ILkxeih2DWMNfRMAAFKEXT//Xlw+TJwMgF0NnCURKcIAAACRoll1paoVAxBOylXfkiA4EAAAIBkkAs43xOlD5cbwQS1Q/Yz+CgAASeJfVM/F7UPlxvRh3ataSJ8FAIARskiChD+xI64GwO5m/qWqgr4LAAAHyWYJUv32xfHD5cb4wVmiBgsK3E0fBgCAYdLh15D6uH7A3Jg/wFWqW+jHAAAwTG6VCOf5xwAEPK56iL4MAABD5GEJEv7EmtwseZjfV5XQpwEA4ADYWnFHNnzQbDEAXRIkcKikbwMAwH6o9GtFFwYgXuxQXSxkCgQAgE/S6NeIHdnygXOz7AFbHmeL6uymrwMAgKfbrw3rs+lD52bhg16iupH+DgAAnhv92pBV5Gbpw7abAffS5wEAsp57/ZqQdeRm8UO/RzWHvg8AkLXM8WtBVpKb5Q/fjn2KGQMAAFlHsWT56+BsNwCJ64HrGQsAAFnDesmi634YgP1jVz8uUdXSFAAAsafWz/lZfyUcAxBgVQPt/mcTTQEAEFua/FxPpVgMwMco9R2jjaYAAIgdbX7nX0pTYAAG4y3VZRKUgQQAgHjQqbpctYymwAB8Gq+prhKyBQIAxAGby7+u+j1NgQEYCi+prlH10hQAAJHF5vBvqV6kKTAAw+FZ1V+r+mgKAIDI0S/BPf+naAoMwMHwf6pbaAYAgMjxPdVjNAMGYCT8r+r7NAMAQGT4seq/aQYMQDL4d9XdNAMAQOj5merfaAYMQDK5HxMAABBq7lP9I82AAUiVCeB1AABA+LBj/9k0AwYgldjrgJuF2wEAAGHAov1vF479MQBpwgIDvy3kCQAAyCQ2B1+veoimwACkE7sieLWQMRAAIBPY3HutcNUPA5AhLFnQFULtAACAdGK5/WcJSX4wABnG0gZbhSmqCAIApJ5EVT/S+2IAQoEVELpAglrTAACQGmyOvVAo7IMBCBlWSvgrqlqaAgAg6dT6OZaSvhiAUFKqOle1nqYAAEga6/3cWkpTYADCTIXqPFUxTQEAMGKK/ZxaQVNgAKJAowTvqebQFAAAB80cP5c20hQYgCjRpbpOdS9NAQAwbO71c2gXTYEBiCr3SJA1kIRBAAAHptvPmffQFBiAOPC4cIwFAHAgEq9PH6cpMABxYokEgSyVNAUAwCeo9HPkEpoCAxBHEldZSmgKAIA9lAhXqDEAWcAO1ZeF6lUAAOLnwi/7uREwALHHolqtfrUFuuymOQAgC9nt58DbhUh/DEAWYoEuJLgAgGwjkTCNYD8MQFazSvVHqoU0BQBkAQv9nLeKpsAAgEiD6lLVfap+mgMAYki/n+Mu9XMeYADA06earfqakC8AAOJFo5/bZvu5DjAAMAgLVGep1tAUABAD1vg5bQFNgQGAA1MuwZ3YR2gKAIgwj/i5rJymwADA0LErMreqLlfV0RwAECHq/Nx1q3DVGQMAB8181RmqxTQFAESAxX7Omk9TYABg5FRLUCDjh0LCDAAIJ11+jrrQz1mAAYAkYVdoHlSdLeTLBoBwsd7PTQ8KV5kxAJAyVkuQRONhmgIAQsDDfk5aTVNgACD1WFDNbarLVDtpDgDIADv9HHSbEOiHAYC084IEwTbzaAoASCPz/NzzAk2BAYDMUaOapbpKCLwBgNRS7eeaWX7uAQwAhIC5qlNUvxSCcAAgufT7ueUUP9cABgBChuXbvkn1p6oymgMAkkCZn1NuEuqUYAAg9BRL8H7uX1U9NAcAHAQ9fg45w88pgAGAiNCh+onq86pSmgMAhkGpnzt+4ucSwABABFmlOkf1I1U7zQEAn0K7nyvO8XMHYAAg4vSqHlCdrHqS5gCAQXjSzxEP+DkDMAAQI7aorlF9UbWC5gAAPxd80c8NW2gODADEm2US5O3+jnCXFyBbqfFzwNl+TgAMAGQJdq/3MdXxqn9WddIkAFlBpx/zx/s5gLwhGADIUlpVd0nw7o8EHwDxZq4f63f5sQ8YAACpkCDF558IVb0A4sZqP7av8mMdAAMAn6BY9TnVdapymgMg0pT7sfw5IZkPYABgCPSp5qhOUt2o2kyTAEQKi+a/yY/hOX5MA2AAYMhYKtBHVSdIUPN7G00CEGq2q26XIMDvl0IqcMAAwAjpUj2smqn6O+HqIEDYqFX9wI/Rh/yYBcAAQNKw60P/4ScZSxdaR5MAZJRdEuTrn6H6hZC3HzAAkGIsX7ilCz1WdbeqniYBSCsNqtl+DFrFvjaaBDAAkE7sHvH9qukSvHfcSJMApBS7wve3qqNV96maaRLAAECmTwTsveOJEtwzLqFJAJLK26pvSBDc95/s+AEDAGHDrhpZprHzVOer5gnXjwBGMp6eU/2x6lzVM0KVPsAAQAR4SzXLnwrYDYLdNAnAkLCx8ogEd/ivVC2lSQADAFHE4gIsh4DFCVjQUi1NAjAotX6M2Fi5VVVGkwAGAOKAXRm0oKWjJHiXuVioQgbQ78fCN/zYuE+4XgtpYjRNAGmmW4J3mSa7wnSDBDXJp9E0kEVYxr5fS5Bpk+I8wAkAZB028f1UgiPPy1UvCkFOEF96fR+/3Pf5n7L4AycAwMQoMt/LjkGv9ycD02kaiAFb/E7/V6oqmgM4AQAYHJsg7T2ovR64SPWEBAmHAKJEq++7F/m+fB+LP3ACADA07A70y14FqotVV6suUY2jeSCEWEKsBarfqV4Srr4CBgBgxNhE+qxXoepSbwZsdzWW5oEMYsV3FvpF397vk6EPMAAAKaLNT7amItVl3gxcqMqjeSANWKndV3wftLiVFpoEMAAA6cUm3t96TVRd4Q3Bn6km0DyQRKzozqt+wbf0vE00CWAAAMKBTci/8bJ+bfUI/tzrD1U5NBEMA0vQs0r2xqFYausemgUwAADhxibqN7zuUh0hwSsCMwMXqCbTRDAIu1SL/IJvR/w1NAlgAACiTc2A0wG7+nq2BAGEZgjOEq7DZit202SFX/AtkO8doXolYAAAYj3pL/eywisWK2ClVs/3Okc1nmaKJXY3/23VMi/rA800C2AAALITWwAWeRmjVGcMMASmo2mmSLJ1wGJvWiOkmgbAAADsB1sg3vP6L/8zMwDneTPwBdWpEiQngvBguSLeV5X4xf4tbwAAAAMAMKKdZCL3QOKU4Dh/UnC6/2o6RrhtkGosOr/S7+bX+q+mjezuATAAAOk4Jdjg9fSAn1tiotP2MQX2/SSa7KBo2meRX+tF4h0ADABAqLCFqcRrIIdLUBDGNGPA96ajs3gc2nVNK5BjJXE3+a8DxTU8AAwAQKTZ4bV8P2PwqEGMgeUuOHSAohZzYO/k6weoZpAFfquQXAcAAwCQxbvgSq9Po2AfQzCYrFBSvgQ1EfKH+L3RKUF++84hft+2z+I+mKiEBxBy/l+AAQAUuRaStKAmewAAAABJRU5ErkJggg==;" parent="1" vertex="1">
          <mxGeometry x="60" width="142" height="142" as="geometry" />
        </mxCell>
        <mxCell id="tH_dNCv8WW0gVUp8uDPe-15" style="edgeStyle=orthogonalEdgeStyle;rounded=0;orthogonalLoop=1;jettySize=auto;html=1;startArrow=classic;startFill=1;endArrow=none;endFill=0;" parent="1" source="tH_dNCv8WW0gVUp8uDPe-14" edge="1">
          <mxGeometry relative="1" as="geometry">
            <mxPoint x="130" y="220" as="targetPoint" />
          </mxGeometry>
        </mxCell>
        <mxCell id="tH_dNCv8WW0gVUp8uDPe-16" style="edgeStyle=orthogonalEdgeStyle;rounded=0;orthogonalLoop=1;jettySize=auto;html=1;" parent="1" source="tH_dNCv8WW0gVUp8uDPe-14" edge="1">
          <mxGeometry relative="1" as="geometry">
            <mxPoint x="410" y="220" as="targetPoint" />
          </mxGeometry>
        </mxCell>
        <mxCell id="tH_dNCv8WW0gVUp8uDPe-14" value="on_voice_state_update" style="html=1;shape=mxgraph.infographic.ribbonSimple;notch1=20;notch2=0;align=center;verticalAlign=middle;fontSize=14;fontStyle=0;fillColor=#FFFFFF;flipH=0;spacingRight=0;spacingLeft=14;whiteSpace=wrap;" parent="1" vertex="1">
          <mxGeometry x="173" y="200" width="177" height="40" as="geometry" />
        </mxCell>
        <mxCell id="tH_dNCv8WW0gVUp8uDPe-17" value="&lt;div&gt;&lt;font color=&quot;#e6e6e6&quot;&gt;member1, joined voice Channel &quot;General&quot;&lt;/font&gt;&lt;/div&gt;" style="text;html=1;align=center;verticalAlign=middle;resizable=0;points=[];autosize=1;strokeColor=none;fillColor=none;" parent="1" vertex="1">
          <mxGeometry x="150" y="165" width="250" height="30" as="geometry" />
        </mxCell>
        <mxCell id="tH_dNCv8WW0gVUp8uDPe-19" value="" style="endArrow=classic;html=1;rounded=0;" parent="1" edge="1">
          <mxGeometry width="50" height="50" relative="1" as="geometry">
            <mxPoint x="410" y="260" as="sourcePoint" />
            <mxPoint x="410" y="290" as="targetPoint" />
            <Array as="points">
              <mxPoint x="520" y="260" />
              <mxPoint x="520" y="290" />
              <mxPoint x="470" y="290" />
            </Array>
          </mxGeometry>
        </mxCell>
        <mxCell id="tH_dNCv8WW0gVUp8uDPe-43" value="&lt;span style=&quot;font-size: 12px; text-wrap: wrap; background-color: rgb(251, 251, 251);&quot;&gt;MemberJoinedChannelEvent&lt;/span&gt;" style="edgeLabel;html=1;align=center;verticalAlign=middle;resizable=0;points=[];" parent="tH_dNCv8WW0gVUp8uDPe-19" vertex="1" connectable="0">
          <mxGeometry x="-0.0183" y="-1" relative="1" as="geometry">
            <mxPoint as="offset" />
          </mxGeometry>
        </mxCell>
        <mxCell id="tH_dNCv8WW0gVUp8uDPe-21" value="" style="endArrow=classic;html=1;rounded=0;" parent="1" edge="1">
          <mxGeometry width="50" height="50" relative="1" as="geometry">
            <mxPoint x="410" y="337" as="sourcePoint" />
            <mxPoint x="410" y="370" as="targetPoint" />
            <Array as="points">
              <mxPoint x="520" y="337" />
              <mxPoint x="520" y="370" />
            </Array>
          </mxGeometry>
        </mxCell>
        <mxCell id="tH_dNCv8WW0gVUp8uDPe-44" value="&lt;span style=&quot;font-size: 12px; background-color: rgb(251, 251, 251);&quot;&gt;NewGameIntentEvent&lt;/span&gt;" style="edgeLabel;html=1;align=center;verticalAlign=middle;resizable=0;points=[];" parent="tH_dNCv8WW0gVUp8uDPe-21" vertex="1" connectable="0">
          <mxGeometry x="-0.0152" y="-1" relative="1" as="geometry">
            <mxPoint as="offset" />
          </mxGeometry>
        </mxCell>
        <mxCell id="tH_dNCv8WW0gVUp8uDPe-23" value="&lt;font color=&quot;#e6e6e6&quot;&gt;If there are enough members:&lt;/font&gt;" style="text;html=1;align=center;verticalAlign=middle;resizable=0;points=[];autosize=1;strokeColor=none;fillColor=none;" parent="1" vertex="1">
          <mxGeometry x="414" y="306" width="180" height="30" as="geometry" />
        </mxCell>
        <mxCell id="tH_dNCv8WW0gVUp8uDPe-24" value="" style="endArrow=classic;html=1;rounded=0;" parent="1" edge="1">
          <mxGeometry width="50" height="50" relative="1" as="geometry">
            <mxPoint x="411" y="411" as="sourcePoint" />
            <mxPoint x="411" y="441" as="targetPoint" />
            <Array as="points">
              <mxPoint x="521" y="411" />
              <mxPoint x="521" y="441" />
              <mxPoint x="471" y="441" />
            </Array>
          </mxGeometry>
        </mxCell>
        <mxCell id="tH_dNCv8WW0gVUp8uDPe-45" value="&lt;span style=&quot;font-size: 12px; background-color: rgb(251, 251, 251);&quot;&gt;GameStartedEvent&lt;/span&gt;" style="edgeLabel;html=1;align=center;verticalAlign=middle;resizable=0;points=[];" parent="tH_dNCv8WW0gVUp8uDPe-24" vertex="1" connectable="0">
          <mxGeometry x="-0.0149" relative="1" as="geometry">
            <mxPoint as="offset" />
          </mxGeometry>
        </mxCell>
        <mxCell id="tH_dNCv8WW0gVUp8uDPe-25" value="&lt;font color=&quot;#e6e6e6&quot;&gt;Conditions are met and new game has started&lt;/font&gt;" style="text;html=1;align=center;verticalAlign=middle;resizable=0;points=[];autosize=1;strokeColor=none;fillColor=none;" parent="1" vertex="1">
          <mxGeometry x="410" y="382" width="270" height="30" as="geometry" />
        </mxCell>
        <mxCell id="tH_dNCv8WW0gVUp8uDPe-26" style="edgeStyle=orthogonalEdgeStyle;rounded=0;orthogonalLoop=1;jettySize=auto;html=1;startArrow=classic;startFill=1;endArrow=none;endFill=0;" parent="1" source="tH_dNCv8WW0gVUp8uDPe-28" edge="1">
          <mxGeometry relative="1" as="geometry">
            <mxPoint x="130" y="545" as="targetPoint" />
          </mxGeometry>
        </mxCell>
        <mxCell id="tH_dNCv8WW0gVUp8uDPe-27" style="edgeStyle=orthogonalEdgeStyle;rounded=0;orthogonalLoop=1;jettySize=auto;html=1;" parent="1" source="tH_dNCv8WW0gVUp8uDPe-28" edge="1">
          <mxGeometry relative="1" as="geometry">
            <mxPoint x="410" y="545" as="targetPoint" />
          </mxGeometry>
        </mxCell>
        <mxCell id="tH_dNCv8WW0gVUp8uDPe-28" value="on_voice_state_update" style="html=1;shape=mxgraph.infographic.ribbonSimple;notch1=20;notch2=0;align=center;verticalAlign=middle;fontSize=14;fontStyle=0;fillColor=#FFFFFF;flipH=0;spacingRight=0;spacingLeft=14;whiteSpace=wrap;" parent="1" vertex="1">
          <mxGeometry x="173" y="525" width="177" height="40" as="geometry" />
        </mxCell>
        <mxCell id="tH_dNCv8WW0gVUp8uDPe-29" value="&lt;div&gt;&lt;font color=&quot;#e6e6e6&quot;&gt;member1, left voice Channel &quot;General&quot;&lt;/font&gt;&lt;/div&gt;" style="text;html=1;align=center;verticalAlign=middle;resizable=0;points=[];autosize=1;strokeColor=none;fillColor=none;" parent="1" vertex="1">
          <mxGeometry x="160" y="490" width="230" height="30" as="geometry" />
        </mxCell>
        <mxCell id="tH_dNCv8WW0gVUp8uDPe-30" value="" style="endArrow=classic;html=1;rounded=0;" parent="1" edge="1">
          <mxGeometry width="50" height="50" relative="1" as="geometry">
            <mxPoint x="410" y="570" as="sourcePoint" />
            <mxPoint x="410" y="600" as="targetPoint" />
            <Array as="points">
              <mxPoint x="520" y="570" />
              <mxPoint x="520" y="600" />
              <mxPoint x="470" y="600" />
            </Array>
          </mxGeometry>
        </mxCell>
        <mxCell id="tH_dNCv8WW0gVUp8uDPe-42" value="&lt;span style=&quot;font-size: 12px; text-wrap: wrap; background-color: rgb(251, 251, 251);&quot;&gt;MemberLeftChannelEvent&lt;/span&gt;" style="edgeLabel;html=1;align=center;verticalAlign=middle;resizable=0;points=[];" parent="tH_dNCv8WW0gVUp8uDPe-30" vertex="1" connectable="0">
          <mxGeometry x="-0.0251" y="1" relative="1" as="geometry">
            <mxPoint as="offset" />
          </mxGeometry>
        </mxCell>
        <mxCell id="tH_dNCv8WW0gVUp8uDPe-32" value="" style="endArrow=classic;html=1;rounded=0;" parent="1" edge="1">
          <mxGeometry width="50" height="50" relative="1" as="geometry">
            <mxPoint x="410" y="647" as="sourcePoint" />
            <mxPoint x="410" y="680" as="targetPoint" />
            <Array as="points">
              <mxPoint x="520" y="647" />
              <mxPoint x="520" y="680" />
            </Array>
          </mxGeometry>
        </mxCell>
        <mxCell id="tH_dNCv8WW0gVUp8uDPe-41" value="&lt;span style=&quot;font-size: 12px; background-color: rgb(251, 251, 251);&quot;&gt;EndGameIntentEvent&lt;/span&gt;" style="edgeLabel;html=1;align=center;verticalAlign=middle;resizable=0;points=[];" parent="tH_dNCv8WW0gVUp8uDPe-32" vertex="1" connectable="0">
          <mxGeometry x="-0.013" relative="1" as="geometry">
            <mxPoint as="offset" />
          </mxGeometry>
        </mxCell>
        <mxCell id="tH_dNCv8WW0gVUp8uDPe-33" value="&lt;font color=&quot;#e6e6e6&quot;&gt;If there aren&#39;t enough members&lt;/font&gt;" style="text;html=1;align=center;verticalAlign=middle;resizable=0;points=[];autosize=1;strokeColor=none;fillColor=none;" parent="1" vertex="1">
          <mxGeometry x="409" y="619" width="190" height="30" as="geometry" />
        </mxCell>
        <mxCell id="tH_dNCv8WW0gVUp8uDPe-34" value="" style="endArrow=classic;html=1;rounded=0;" parent="1" edge="1">
          <mxGeometry width="50" height="50" relative="1" as="geometry">
            <mxPoint x="411" y="766" as="sourcePoint" />
            <mxPoint x="411" y="796" as="targetPoint" />
            <Array as="points">
              <mxPoint x="521" y="766" />
              <mxPoint x="521" y="796" />
              <mxPoint x="471" y="796" />
            </Array>
          </mxGeometry>
        </mxCell>
        <mxCell id="tH_dNCv8WW0gVUp8uDPe-40" value="&lt;span style=&quot;font-size: 12px; background-color: rgb(251, 251, 251);&quot;&gt;GameEndedEvent&lt;/span&gt;" style="edgeLabel;html=1;align=center;verticalAlign=middle;resizable=0;points=[];" parent="tH_dNCv8WW0gVUp8uDPe-34" vertex="1" connectable="0">
          <mxGeometry x="-0.0229" y="-1" relative="1" as="geometry">
            <mxPoint as="offset" />
          </mxGeometry>
        </mxCell>
        <mxCell id="tH_dNCv8WW0gVUp8uDPe-35" value="&lt;font color=&quot;#e6e6e6&quot;&gt;No members connected; session finished&lt;/font&gt;" style="text;html=1;align=center;verticalAlign=middle;resizable=0;points=[];autosize=1;strokeColor=none;fillColor=none;" parent="1" vertex="1">
          <mxGeometry x="411" y="739" width="240" height="30" as="geometry" />
        </mxCell>
        <mxCell id="tH_dNCv8WW0gVUp8uDPe-36" value="" style="endArrow=classic;html=1;rounded=0;" parent="1" edge="1">
          <mxGeometry width="50" height="50" relative="1" as="geometry">
            <mxPoint x="410" y="710" as="sourcePoint" />
            <mxPoint x="690" y="710" as="targetPoint" />
          </mxGeometry>
        </mxCell>
        <mxCell id="tH_dNCv8WW0gVUp8uDPe-37" value="Insert Clocking data" style="edgeLabel;html=1;align=center;verticalAlign=middle;resizable=0;points=[];" parent="tH_dNCv8WW0gVUp8uDPe-36" vertex="1" connectable="0">
          <mxGeometry x="-0.0235" relative="1" as="geometry">
            <mxPoint as="offset" />
          </mxGeometry>
        </mxCell>
        <mxCell id="tH_dNCv8WW0gVUp8uDPe-38" value="" style="endArrow=classic;html=1;rounded=0;" parent="1" edge="1">
          <mxGeometry width="50" height="50" relative="1" as="geometry">
            <mxPoint x="410" y="729" as="sourcePoint" />
            <mxPoint x="690" y="729" as="targetPoint" />
          </mxGeometry>
        </mxCell>
        <mxCell id="tH_dNCv8WW0gVUp8uDPe-39" value="Insert Attendance data" style="edgeLabel;html=1;align=center;verticalAlign=middle;resizable=0;points=[];" parent="tH_dNCv8WW0gVUp8uDPe-38" vertex="1" connectable="0">
          <mxGeometry x="0.1112" relative="1" as="geometry">
            <mxPoint x="-13" as="offset" />
          </mxGeometry>
        </mxCell>
        <mxCell id="1Wkq5TAbRWaWpT25bNUN-1" value="" style="endArrow=classic;html=1;rounded=0;" edge="1" parent="1">
          <mxGeometry width="50" height="50" relative="1" as="geometry">
            <mxPoint x="600" y="274" as="sourcePoint" />
            <mxPoint x="690" y="274" as="targetPoint" />
          </mxGeometry>
        </mxCell>
        <mxCell id="1Wkq5TAbRWaWpT25bNUN-2" value="Log&lt;div&gt;Event&lt;/div&gt;" style="edgeLabel;html=1;align=center;verticalAlign=middle;resizable=0;points=[];" vertex="1" connectable="0" parent="1Wkq5TAbRWaWpT25bNUN-1">
          <mxGeometry x="-0.0127" y="-1" relative="1" as="geometry">
            <mxPoint as="offset" />
          </mxGeometry>
        </mxCell>
        <mxCell id="1Wkq5TAbRWaWpT25bNUN-3" value="" style="endArrow=classic;html=1;rounded=0;" edge="1" parent="1">
          <mxGeometry width="50" height="50" relative="1" as="geometry">
            <mxPoint x="580" y="353" as="sourcePoint" />
            <mxPoint x="689" y="353" as="targetPoint" />
          </mxGeometry>
        </mxCell>
        <mxCell id="1Wkq5TAbRWaWpT25bNUN-4" value="Log&lt;div&gt;Event&lt;/div&gt;" style="edgeLabel;html=1;align=center;verticalAlign=middle;resizable=0;points=[];" vertex="1" connectable="0" parent="1Wkq5TAbRWaWpT25bNUN-3">
          <mxGeometry x="-0.0127" y="-1" relative="1" as="geometry">
            <mxPoint as="offset" />
          </mxGeometry>
        </mxCell>
        <mxCell id="1Wkq5TAbRWaWpT25bNUN-5" value="" style="endArrow=classic;html=1;rounded=0;" edge="1" parent="1">
          <mxGeometry width="50" height="50" relative="1" as="geometry">
            <mxPoint x="580" y="424" as="sourcePoint" />
            <mxPoint x="690" y="424" as="targetPoint" />
          </mxGeometry>
        </mxCell>
        <mxCell id="1Wkq5TAbRWaWpT25bNUN-6" value="Log&lt;div&gt;Event&lt;/div&gt;" style="edgeLabel;html=1;align=center;verticalAlign=middle;resizable=0;points=[];" vertex="1" connectable="0" parent="1Wkq5TAbRWaWpT25bNUN-5">
          <mxGeometry x="-0.0127" y="-1" relative="1" as="geometry">
            <mxPoint as="offset" />
          </mxGeometry>
        </mxCell>
        <mxCell id="1Wkq5TAbRWaWpT25bNUN-7" value="" style="endArrow=classic;html=1;rounded=0;" edge="1" parent="1">
          <mxGeometry width="50" height="50" relative="1" as="geometry">
            <mxPoint x="600" y="582" as="sourcePoint" />
            <mxPoint x="689" y="582" as="targetPoint" />
          </mxGeometry>
        </mxCell>
        <mxCell id="1Wkq5TAbRWaWpT25bNUN-8" value="Log&lt;div&gt;Event&lt;/div&gt;" style="edgeLabel;html=1;align=center;verticalAlign=middle;resizable=0;points=[];" vertex="1" connectable="0" parent="1Wkq5TAbRWaWpT25bNUN-7">
          <mxGeometry x="-0.0127" y="-1" relative="1" as="geometry">
            <mxPoint as="offset" />
          </mxGeometry>
        </mxCell>
        <mxCell id="1Wkq5TAbRWaWpT25bNUN-9" value="" style="endArrow=classic;html=1;rounded=0;" edge="1" parent="1">
          <mxGeometry width="50" height="50" relative="1" as="geometry">
            <mxPoint x="580" y="662" as="sourcePoint" />
            <mxPoint x="689" y="662" as="targetPoint" />
          </mxGeometry>
        </mxCell>
        <mxCell id="1Wkq5TAbRWaWpT25bNUN-10" value="Log&lt;div&gt;Event&lt;/div&gt;" style="edgeLabel;html=1;align=center;verticalAlign=middle;resizable=0;points=[];" vertex="1" connectable="0" parent="1Wkq5TAbRWaWpT25bNUN-9">
          <mxGeometry x="-0.0127" y="-1" relative="1" as="geometry">
            <mxPoint as="offset" />
          </mxGeometry>
        </mxCell>
        <mxCell id="1Wkq5TAbRWaWpT25bNUN-11" value="" style="endArrow=classic;html=1;rounded=0;" edge="1" parent="1">
          <mxGeometry width="50" height="50" relative="1" as="geometry">
            <mxPoint x="570" y="778" as="sourcePoint" />
            <mxPoint x="689" y="778" as="targetPoint" />
          </mxGeometry>
        </mxCell>
        <mxCell id="1Wkq5TAbRWaWpT25bNUN-12" value="Log&lt;div&gt;Event&lt;/div&gt;" style="edgeLabel;html=1;align=center;verticalAlign=middle;resizable=0;points=[];" vertex="1" connectable="0" parent="1Wkq5TAbRWaWpT25bNUN-11">
          <mxGeometry x="-0.0127" y="-1" relative="1" as="geometry">
            <mxPoint as="offset" />
          </mxGeometry>
        </mxCell>
      </root>
    </mxGraphModel>
  </diagram>
</mxfile>
